<?xml version="1.0" encoding="UTF-8"?>
<svg width="58px" height="46px" viewBox="0 0 58 46" version="1.1" xmlns="http://www.w3.org/2000/svg" xmlns:xlink="http://www.w3.org/1999/xlink">
    <!-- Generator: Sketch 42 (36781) - http://www.bohemiancoding.com/sketch -->
    <title>Maps</title>
    <desc>Created with Sketch.</desc>
    <defs></defs>
    <g id="Page-1" stroke="none" stroke-width="1" fill="none" fill-rule="evenodd">
        <g id="Desktop---bons-plans" transform="translate(-21.000000, -92.000000)">
            <g id="Group-17" transform="translate(1.000000, 75.000000)">
                <g id="Group-9" transform="translate(21.000000, 17.000000)">
                    <g id="Maps">
                        <g id="iPhone_6_7_1">
                            <g id="Groupe_2">
                                <g id="map-of-roads" transform="translate(0.702929, 0.145442)" fill-rule="nonzero">
                                    <g id="Groupe_1" transform="translate(0.000000, 0.088388)">
                                        <path d="M18.776636,22.3129969 C20.192133,22.3129969 21.4682467,23.1639389 22.009912,24.46902 C22.5515774,25.774101 22.2521194,27.2762996 21.2511783,28.275125 C20.2502373,29.2739504 18.7449376,29.5726949 17.4372161,29.0320508 C16.1294946,28.4914068 15.2768927,27.2178481 15.2769874,25.8052484 C15.2771168,23.8764933 16.843925,22.3129969 18.776636,22.3129969 Z" id="Tracé_1" fill="#26C281"></path>
                                        <path d="M52.8586109,25.1184896 L55.2316987,6.44739545 L38.2091046,0.000701490093 L17.7904268,9.73247355 L0,2.23494744 L2.40237657,22.1539925 L0.0998158996,41.7688246 L19.0025105,45.3071407 L38.2824435,41.6427902 L55.2970711,45.5613139 L52.8586109,25.1184896 Z M38.1456067,1.9777344 L53.2236653,7.64811266 L52.1861423,15.8120544 L37.157523,12.0181621 L38.1456067,1.9777344 Z M36.1511632,3.0140691 L35.3573222,11.5624274 L35.3442008,11.5593876 L24.9387448,12.898766 L24.8764184,13.1279194 C24.8632971,13.1772576 23.6561339,17.628446 22.3838326,19.6517773 C21.5445422,19.1579814 20.6121321,18.8424276 19.6449874,18.7248751 L18.8014728,11.2818313 L36.1511632,3.0140691 Z M34.5606695,22.0812713 L25.516318,23.4421621 C25.032393,22.078728 24.1465877,20.8932248 22.9752301,20.0413381 C24.1591967,18.1554989 25.2276485,14.5044768 25.496636,13.5408633 L35.2865607,12.2798179 L34.5606695,22.0812713 Z M16.961205,11.3737265 L17.7969874,18.7440491 C15.0749271,19.1225674 12.8098458,21.0218827 11.9671297,23.6324998 L4.25553138,22.4411357 L3.51464435,15.3032402 C6.07072803,15.1344149 7.98784937,14.3043183 9.21656904,12.8230051 C10.3241506,11.4901739 10.6428117,9.91252268 10.7037322,8.73682528 L16.961205,11.3737265 Z M2.22594142,5.16390241 L10.0008033,8.4403288 C9.97737238,9.52202653 9.73345607,11.0917275 8.67133054,12.3710116 C7.56328033,13.7038428 5.80127197,14.4499944 3.42490377,14.5996457 L2.22594142,5.16390241 Z M2.12589121,40.2833024 L4.03856067,24.2633732 L11.6437824,25.4393044 C11.638159,25.560896 11.6257406,25.6815523 11.6257406,25.8057161 C11.625104,27.4110634 12.1703049,28.9691247 13.1721841,30.2251037 L9.22312971,33.3899931 L7.97847699,41.3778608 L2.12589121,40.2833024 Z M17.0261088,43.0719594 L8.67554812,41.5088056 L9.88177406,33.7690316 L13.640569,30.75847 C14.8216287,31.9823105 16.4026948,32.7437698 18.0976067,32.9050296 L17.0261088,43.0719594 Z M13.0454226,25.8057161 C13.0451383,23.4919899 14.4415707,21.4059436 16.5835048,20.5203879 C18.7254389,19.6348321 21.1910087,20.1241822 22.8304158,21.7602337 C24.4698228,23.3962851 24.9601766,25.8568084 24.0728045,27.9943583 C23.1854325,30.1319082 21.0951076,31.5254823 18.776636,31.5251986 C15.6129799,31.5213335 13.0492957,28.9628967 13.0454226,25.8057161 L13.0454226,25.8057161 Z M18.9999331,43.4409432 L18.8389623,43.4105453 L19.9545105,32.8360498 C23.3983023,32.2601258 25.9231328,29.2885049 25.9294059,25.8038454 C25.9294059,25.6128063 25.9155816,25.4259761 25.9005858,25.2382106 L34.7403849,23.9079515 L35.4782259,31.4321343 C31.6001674,31.614054 28.7012887,32.8037812 26.8767197,35.0013159 C24.7491883,37.5661975 24.6486695,40.764057 24.7590293,42.3452157 L18.9999331,43.4409432 Z M25.4668787,42.2116987 C25.3811213,40.7109776 25.5055397,37.7661222 27.4240669,35.4540108 C29.1211715,33.4091672 31.8590795,32.3059571 35.54641,32.1387686 L36.3320502,40.1444074 L25.4668787,42.2116987 Z M37.0912134,12.7306422 L52.0973389,16.5175196 L51.19759,23.5920472 L36.3807866,21.8072225 L37.0912134,12.7306422 Z M49.158159,29.7034289 L42.3306109,28.8934416 L43.580887,40.9798821 L38.1109289,39.806523 L36.5597992,23.6364749 L36.7191297,23.6114551 L51.042477,25.4259761 L53.1615732,43.1867699 L44.2978745,41.1463691 L43.126795,29.7015582 L49.2120502,30.4063219 L49.158159,29.7034289 Z" id="Tracé_2" fill="#BABABA"></path>
                                    </g>
                                </g>
                                <g id="Ellipse_1" transform="translate(34.209205, 10.288521)">
                                    <ellipse id="Oval" fill="#97A9DE" fill-rule="nonzero" cx="2.46025105" cy="2.45521533" rx="2.46025105" ry="2.45521533"></ellipse>
                                    <ellipse id="Oval" stroke="#FFFFFF" cx="2.46025105" cy="2.45521533" rx="2.34309623" ry="2.33830031"></ellipse>
                                </g>
                                <g id="Ellipse_2" transform="translate(51.079498, 28.761094)">
                                    <ellipse id="Oval" fill="#FF6666" fill-rule="nonzero" cx="2.46025105" cy="2.45521533" rx="2.46025105" ry="2.45521533"></ellipse>
                                    <ellipse id="Oval" stroke="#FFFFFF" cx="2.46025105" cy="2.45521533" rx="2.34309623" ry="2.33830031"></ellipse>
                                </g>
                                <g id="Ellipse_3" transform="translate(0.000000, 31.099394)">
                                    <ellipse id="Oval" fill="#F9690E" fill-rule="nonzero" cx="2.46025105" cy="2.45521533" rx="2.46025105" ry="2.45521533"></ellipse>
                                    <ellipse id="Oval" stroke="#FFFFFF" cx="2.46025105" cy="2.45521533" rx="2.34309623" ry="2.33830031"></ellipse>
                                </g>
                                <g id="Ellipse_4" transform="translate(26.008368, 32.268544)">
                                    <ellipse id="Oval" fill="#FF6666" fill-rule="nonzero" cx="2.46025105" cy="2.45521533" rx="2.46025105" ry="2.45521533"></ellipse>
                                    <ellipse id="Oval" stroke="#FFFFFF" cx="2.46025105" cy="2.45521533" rx="2.34309623" ry="2.33830031"></ellipse>
                                </g>
                                <g id="Ellipse_5" transform="translate(30.928870, 39.517275)">
                                    <ellipse id="Oval" fill="#64B9EA" fill-rule="nonzero" cx="2.46025105" cy="2.45521533" rx="2.46025105" ry="2.45521533"></ellipse>
                                    <ellipse id="Oval" stroke="#FFFFFF" cx="2.46025105" cy="2.45521533" rx="2.34309623" ry="2.33830031"></ellipse>
                                </g>
                                <g id="Ellipse_6" transform="translate(3.983264, 3.507450)">
                                    <ellipse id="Oval" fill="#64B9EA" fill-rule="nonzero" cx="2.46025105" cy="2.45521533" rx="2.46025105" ry="2.45521533"></ellipse>
                                    <ellipse id="Oval" stroke="#FFFFFF" cx="2.46025105" cy="2.45521533" rx="2.34309623" ry="2.33830031"></ellipse>
                                </g>
                            </g>
                        </g>
                    </g>
                </g>
            </g>
        </g>
    </g>
</svg>