<?xml version="1.0" encoding="UTF-8"?>
<svg width="211px" height="154px" viewBox="0 0 211 154" version="1.1" xmlns="http://www.w3.org/2000/svg" xmlns:xlink="http://www.w3.org/1999/xlink">
    <!-- Generator: Sketch 3.8.3 (29802) - http://www.bohemiancoding.com/sketch -->
    <title>commercant</title>
    <desc>Created with Sketch.</desc>
    <defs></defs>
    <g id="Page-1" stroke="none" stroke-width="1" fill="none" fill-rule="evenodd">
        <g id="commercant">
            <g id="Calque_2">
                <g id="Calque_1-2">
                    <path d="M101.44,80.64 L108.51,92.28 L116.69,80.57 C122.9,80.57 129.6,80.57 132.09,81.26 C134.58,81.95 143.73,107.44 144.5,114.06 C145.27,120.68 143.45,141.87 143.45,141.87 L129.78,142.22 L129.08,117.92 L126.67,104.47 L126.67,141.88 L89,141.88 L88.72,111.2 L85.79,116.94 L85.79,141.88 L70.79,141.88 C70.79,141.88 69.86,120.54 70.79,115.88 C71.72,111.22 82.64,83 85.65,80.65 C88.66,78.3 101.17,80.65 101.17,80.65 L101.44,80.65" id="Shape" fill="#B91C48"></path>
                    <path d="M129.77,142.73 C129.497716,142.730054 129.275446,142.512229 129.27,142.24 L128.57,117.94 L127.16,110.09 L127.16,141.89 C127.16,142.166142 126.936142,142.39 126.66,142.39 L89,142.39 C88.7238576,142.39 88.5,142.166142 88.5,141.89 L88.24,113.25 L86.29,117.07 L86.29,141.89 C86.29,142.166142 86.0661424,142.39 85.79,142.39 L70.79,142.39 C70.5214832,142.390215 70.3007406,142.178302 70.29,141.91 C70.29,141.04 69.37,120.46 70.29,115.74 C71.14,111.44 81.99,82.87 85.29,80.25 C86.29,79.47 88.14,79.1 90.96,79.1 C94.3989278,79.1878848 97.8258649,79.5422802 101.21,80.16 L101.38,80.16 C101.556279,80.1662394 101.719316,80.2551686 101.82,80.4 L108.49,91.4 L116.23,80.32 C116.324361,80.1874638 116.477307,80.1091258 116.64,80.11 L119.39,80.11 C124.45,80.11 129.92,80.19 132.18,80.83 C135.18,81.69 144.3,108.47 144.95,114.06 C145.71,120.66 143.95,141.06 143.9,141.97 C143.879442,142.226612 143.667398,142.425674 143.41,142.43 L129.74,142.78 L129.77,142.73 Z M126.66,104 C126.900738,104.000883 127.106669,104.173192 127.15,104.41 L129.56,117.86 L130.25,141.74 L143,141.4 C143.25,138.31 144.71,120.1 144,114.13 C143.17,106.96 134,82.45 132,81.75 C130,81.05 124.18,81.07 119.48,81.07 L117,81.07 L109,92.57 C108.907898,92.7125864 108.749746,92.7987068 108.58,92.7987068 C108.410254,92.7987068 108.252102,92.7125864 108.16,92.57 L101.24,81.17 C97.8591639,80.5512131 94.4357255,80.1934906 91,80.1 C87.82,80.1 86.5,80.61 85.95,81.04 C83.06,83.3 72.15,111.49 71.27,115.93 C70.44,120.14 71.13,138.2 71.27,141.38 L85.27,141.38 L85.27,116.95 C85.2681269,116.870447 85.2852685,116.791596 85.32,116.72 L88.25,111 C88.3517571,110.789887 88.5853711,110.678157 88.8128085,110.730827 C89.0402458,110.783497 89.2009636,110.986546 89.2,111.22 L89.47,141.4 L126.16,141.4 L126.16,104.48 C126.159163,104.218753 126.359589,104.000899 126.62,103.98 L126.66,104 Z" id="Shape" fill="#B91C48"></path>
                    <polygon id="Shape" fill="#EEAFE4" points="101.44 80.07 94.15 79.05 101.44 104.85 107.76 91.06"></polygon>
                    <path d="M101.44,105.35 L101.44,105.35 C101.235418,105.334651 101.060972,105.195887 101,105 L93.71,79.2 C93.6645902,79.0376898 93.7040086,78.8634243 93.8148521,78.7364582 C93.9256955,78.609492 94.0930459,78.5469132 94.26,78.57 L101.55,79.57 C101.702077,79.5934962 101.834864,79.6857093 101.91,79.82 L108.24,90.82 C108.314721,90.9642303 108.314721,91.1357697 108.24,91.28 L101.91,105.07 C101.822817,105.248367 101.638362,105.358255 101.44,105.35 L101.44,105.35 Z M94.84,79.65 L101.55,103.41 L107.2,91.09 L101.12,80.54 L94.84,79.65 Z" id="Shape" fill="#EEAFE4"></path>
                    <polygon id="Shape" fill="#EEAFE4" points="116.72 80.52 123.33 80.52 115.51 105.3 108.38 91.69"></polygon>
                    <path d="M115.51,105.8 C115.324621,105.798529 115.155271,105.69461 115.07,105.53 L107.93,91.91 C107.828665,91.7478646 107.828665,91.5421354 107.93,91.38 L116.27,80.22 C116.364427,80.0940971 116.512621,80.02 116.67,80.02 L123.28,80.02 C123.439752,80.0190308 123.590349,80.0944574 123.68525,80.2229693 C123.780151,80.3514812 123.807929,80.5176048 123.76,80.67 L116,105.45 C115.940399,105.64273 115.770816,105.780762 115.57,105.8 L115.51,105.8 Z M109,91.73 L115.4,104 L122.65,81 L117,81 L109,91.73 Z" id="Shape" fill="#EEAFE4"></path>
                    <path d="M123.09,89.64 C110.79,101.94 92.44,89.64 92.44,89.64 L87.3,113.95 L85.77,141.89 L130.69,142.27 L126.69,106.89 L123.09,89.64 Z" id="Shape" fill="#FFC9A4"></path>
                    <path d="M130.69,142.77 L130.69,142.77 L85.77,142.39 C85.6320264,142.390249 85.5000827,142.333472 85.4054023,142.233111 C85.3107219,142.13275 85.2617213,141.997725 85.27,141.86 L86.8,113.92 L92,89.53 C92.0340941,89.3676664 92.1464757,89.2328085 92.3,89.17 C92.446444,89.0899612 92.623556,89.0899612 92.77,89.17 C92.85,89.22 100.91,94.55 109.77,94.55 C114.669216,94.6455303 119.392039,92.7216848 122.83,89.23 C122.960766,89.099212 123.152091,89.0494677 123.33,89.1 C123.508137,89.1519131 123.642879,89.2982036 123.68,89.48 L127.25,106.73 L131.25,142.15 C131.267247,142.292655 131.222286,142.435834 131.126583,142.543021 C131.030881,142.650207 130.89369,142.711039 130.75,142.71 L130.69,142.77 Z M86.3,141.39 L130.13,141.76 L126.13,106.94 L122.75,90.62 C119.18956,93.9169631 114.491684,95.708678 109.64,95.62 C101.84,95.62 94.83,91.73 92.74,90.46 L87.74,114.07 L86.3,141.39 Z" id="Shape" fill="#FFC9A4"></path>
                    <path d="M92.44,89.64 L98.67,79.05" id="Shape" fill="#FFC9A4"></path>
                    <path d="M92.44,90.14 C92.2619057,90.1389288 92.0978251,90.0432061 92.0092423,89.8887011 C91.9206594,89.7341961 91.920948,89.5442351 92.01,89.39 L98.24,78.8 C98.3294636,78.643004 98.4966739,78.5464934 98.677368,78.5475598 C98.858062,78.5486261 99.0241217,78.6471034 99.1117261,78.8051443 C99.1993306,78.9631852 99.1948476,79.1561969 99.1,79.31 L92.87,89.89 C92.7812239,90.0437723 92.6175555,90.1389283 92.44,90.14 L92.44,90.14 Z" id="Shape" fill="#FFC9A4"></path>
                    <path d="M123.09,89.64 L116.71,79.05" id="Shape" fill="#FFC9A4"></path>
                    <path d="M123.09,90.14 C122.914476,90.1410222 122.751271,90.0499307 122.66,89.9 L116.28,79.3 C116.136406,79.0625176 116.212518,78.7535941 116.45,78.6100001 C116.687482,78.466406 116.996406,78.5425176 117.14,78.78 L123.52,89.37 C123.614246,89.5248037 123.617344,89.7184872 123.528097,89.8762258 C123.43885,90.0339644 123.271233,90.1310592 123.09,90.13 L123.09,90.14 Z" id="Shape" fill="#FFC9A4"></path>
                    <path d="M94.15,106.71 C94.15,106.71 92.45,119.15 93.15,120.55 C93.85,121.95 122.22,122.3 122.67,120.55 C123.12,118.8 120.67,108.46 120.4,106.71 C120.13,104.96 94.15,106.71 94.15,106.71 L94.15,106.71 Z" id="Shape" fill="#F7DBBF"></path>
                    <path d="M109.2,122.24 L109.2,122.24 C105.5,122.24 93.38,122.13 92.7,120.78 C92.02,119.43 93.37,108.78 93.7,106.65 C93.7324877,106.415991 93.924334,106.236656 94.16,106.22 C94.28,106.22 105.81,105.44 113.52,105.44 C120.21,105.44 120.84,105.98 120.93,106.64 C121,107.09 121.22,108.14 121.5,109.47 C122.58,114.64 123.5,119.38 123.2,120.68 C123,121.11 122.75,122.24 109.2,122.24 L109.2,122.24 Z M93.57,120.24 C94.45,120.72 100.82,121.24 109.2,121.24 L109.2,121.24 C117.73,121.24 121.59,120.72 122.2,120.34 C122.42,118.97 121.2,112.94 120.48,109.67 C120.22,108.42 120.01,107.42 119.92,106.9 C119.65,106.75 118.47,106.43 113.47,106.43 C106.62,106.43 96.7,107.04 94.59,107.18 C93.81,113 93.23,119.25 93.57,120.27 L93.57,120.24 Z" id="Shape" fill="#F7DBBF"></path>
                    <path d="M30.92,82.47 C30.92,82.47 24.52,94.93 24.52,96.31 C24.52,96.95 22.13,116.84 24.67,124.91 C27.67,134.39 35.37,134.37 44.74,132.42 C50.1,131.3 46.44,100.16 46.21,97.56 C46.08,96 42,82.58 41.35,83 C33.76,88.22 30.92,82.47 30.92,82.47 L30.92,82.47 Z" id="Shape" fill="#7541A3"></path>
                    <path d="M36.35,133.58 L36.35,133.58 C31.5,133.58 26.69,132.58 24.35,125.03 C22.85,120.27 22.76,110.94 24.09,97.3 C24.14,96.75 24.18,96.41 24.18,96.3 C24.18,94.9 29.75,83.98 30.58,82.37 L30.58,75.84 C30.5854217,75.6340472 30.7539758,75.4699286 30.96,75.47 L40.62,75.47 C40.7310158,75.4688893 40.8369652,75.5163839 40.91,75.6 C40.9829334,75.681745 41.0158921,75.7916074 41,75.9 C40.9885312,77.7608452 41.1728793,79.6177331 41.55,81.44 C41.9332742,83.303898 42.5762098,85.1047909 43.46,86.79 C45.1824026,90.1353441 46.2578949,93.7757329 46.63,97.52 L46.63,97.97 C48.1,113.64 48.88,132.44 44.27,132.97 C41.6426637,133.31343 38.9989389,133.51705 36.35,133.58 L36.35,133.58 Z M31.35,76.22 L31.35,82.48 C31.3628381,82.5359395 31.3628381,82.5940605 31.35,82.65 C28.8,87.43 24.9,95.38 24.9,96.32 C24.9,96.4 24.9,96.77 24.81,97.32 C23.16,114.23 24,121.6 25,124.8 C27.1,131.46 31,132.8 36.31,132.8 C38.9323034,132.735876 41.5493369,132.532255 44.15,132.19 C47.15,131.85 47.8,118.76 45.85,98.02 L45.85,97.57 C45.4847848,93.9096469 44.4331031,90.3508915 42.75,87.08 C41.8270884,85.3326242 41.1538619,83.4644207 40.75,81.53 C40.4343015,79.7656702 40.2438259,77.9812151 40.18,76.19 L31.35,76.22 Z" id="Shape" fill="#BFF1FF"></path>
                    <ellipse id="Oval" fill="#00CE9A" cx="35.86" cy="77.86" rx="6.92" ry="3.85"></ellipse>
                    <path d="M40.92,95.36 C40.92,95.36 43.26,118.16 42.79,121.26 C42.32,124.36 39.79,121.59 39.79,121.59 L40.92,95.36 Z" id="Shape" fill="#FFFFFF"></path>
                    <path d="M41.69,123.24 C40.798224,123.07967 39.9873019,122.621323 39.39,121.94 C39.2996528,121.842587 39.2527354,121.712662 39.26,121.58 L40.43,95.34 C40.43,95.0638576 40.6538576,94.84 40.93,94.84 C41.2061424,94.84 41.43,95.0638576 41.43,95.34 C41.53,96.27 43.77,118.24 43.3,121.34 C43,122.91 42.28,123.24 41.69,123.24 L41.69,123.24 Z M40.26,121.41 C40.6402399,121.826805 41.1394776,122.116573 41.69,122.24 C42.06,122.24 42.22,121.67 42.3,121.24 C42.59,119.32 41.76,109.45 41.11,102.5 L40.26,121.41 Z" id="Shape" fill="#FFFFFF"></path>
                    <polygon id="Shape" fill="#E4CCB1" points="101.17 79.05 102.83 92.28 113.36 92.28 115.85 79.05"></polygon>
                    <path d="M76.44,42.13 C76.44,42.13 67.91,59.86 82.6,59.86 L82.6,47.12 L76.44,42.13 Z" id="Shape" fill="#EFD7C1"></path>
                    <path d="M139.45,39.73 C139.45,39.73 147.94,58.34 133.32,56.97 L132.85,44.12 L139.45,39.73 Z" id="Shape" fill="#EFD7C1"></path>
                    <path d="M79.83,50.17 L74.83,39.17 C74.83,39.17 73.44,25.44 74.83,22.94 C76.22,20.44 81.57,12 81.57,12 C81.57,12 79.83,4.82 79.57,3.26 C79.31,1.7 77.91,3.89 121.97,0.45 C121.97,0.45 141.97,1.7 141.97,35.72 L133.97,50.39" id="Shape" fill="#FF8F54"></path>
                    <path d="M133.94,50.94 C133.763171,50.9404834 133.599238,50.8475307 133.508865,50.6955396 C133.418492,50.5435485 133.415121,50.3551264 133.5,50.2 L141.4,35.64 C141.35,2.6 122.11,1 121.92,1 C96.35,3 86,3.09 82,3.13 L80,3.13 L80,3.13 C80.27,4.66 82,11.77 82,11.84 C82.0314803,11.9695994 82.0098794,12.1064047 81.94,12.22 C81.89,12.3 76.59,20.66 75.23,23.12 C74.16,25.04 74.9,35.12 75.28,38.98 L80.28,49.87 C80.3734638,50.1170873 80.2585854,50.3942479 80.0177295,50.5027654 C79.7768736,50.6112829 79.4931585,50.5137084 79.37,50.28 L74.37,39.28 C74.3612337,39.2270269 74.3612337,39.1729731 74.37,39.12 C74.23,37.7 73.01,25.12 74.43,22.6 C75.68,20.42 80.23,13.22 81,12 C80.71,10.79 79.28,4.86 79,3.44 L79,3.29 C78.9125708,3.04158646 78.949772,2.7662977 79.1,2.55 C79.38,2.2 79.73,2.19 82.01,2.17 C85.91,2.17 96.29,2.04 121.89,0.04 C122.16,0.04 142.38,1.71 142.38,35.81 C142.380419,35.8937629 142.359788,35.9762888 142.32,36.05 L134.32,50.72 C134.234032,50.8480037 134.093813,50.929183 133.94,50.94 L133.94,50.94 Z" id="Shape" fill="#FF8F54"></path>
                    <path d="M82.4,28 C82.95,25.51 94.6,19.13 94.6,19.13 C94.6,19.13 127.6,19.13 130.9,26.06 C134.2,32.99 135.11,48.55 135.11,48.55 C135.11,48.55 135.54,58.45 134.35,62.39 C134.1,63.23 123.42,82.59 107.85,81.2 C92.28,79.81 81.57,58.76 81.57,58.76 L81.57,51.55 L82.4,28 Z" id="Shape" fill="#F7DBBF"></path>
                    <path d="M109.44,81.77 C108.9,81.77 108.34,81.77 107.8,81.7 C101.3,81.12 94.62,77 88.49,69.78 C85.665455,66.4524977 83.1954426,62.8396437 81.12,59 L81.07,58.89 L81.07,51.55 L81.9,28 C82.49,25.32 92.38,19.79 94.36,18.71 L94.47,18.65 L94.6,18.65 C95.96,18.65 127.93,18.73 131.35,25.86 C134.68,32.8 135.57,47.86 135.6,48.54 C135.6,48.95 136.02,58.54 134.82,62.54 C134.35,64.09 124.05,81.77 109.44,81.77 L109.44,81.77 Z M82.07,58.63 C82.91,60.23 93.33,79.4 107.89,80.7 C108.41,80.7 108.89,80.77 109.44,80.77 C123.19,80.77 133.23,64.04 133.86,62.24 C135,58.43 134.6,48.67 134.6,48.58 C134.6,48.49 133.69,33.04 130.44,26.28 C127.84,20.85 103.9,19.65 94.72,19.63 C90.29,22.07 83.25,26.46 82.89,28.1 L82.07,51.56 L82.07,58.63 Z" id="Shape" fill="#F7DBBF"></path>
                    <path d="M105,57.65 C105,57.65 105.44,57.88 106.07,58.16 C106.418755,58.3107584 106.776032,58.4409809 107.14,58.55 C107.532761,58.6683069 107.939881,58.7322349 108.35,58.74 C108.552623,58.7640283 108.757377,58.7640283 108.96,58.74 C109.158674,58.7150625 109.355688,58.678331 109.55,58.63 C109.74,58.63 109.92,58.5 110.1,58.45 C110.26692,58.3849327 110.430461,58.3115065 110.59,58.23 C110.84682,58.1098685 111.097164,57.9763518 111.34,57.83 L111.65,57.68 C111.65,57.68 111.6,57.79 111.48,57.98 C111.333286,58.2458812 111.147934,58.488523 110.93,58.7 C110.793461,58.8544177 110.639043,58.9920507 110.47,59.11 C110.278223,59.2485847 110.074017,59.3690999 109.86,59.47 C109.626776,59.577986 109.381803,59.6585253 109.13,59.71 C108.866954,59.7643054 108.59848,59.787797 108.33,59.78 C107.809819,59.7615385 107.299097,59.6355603 106.83,59.41 C106.434282,59.2242152 106.069916,58.9779302 105.75,58.68 C105.435271,58.3888184 105.180495,58.0389248 105,57.65 L105,57.65 Z" id="Shape" fill="#EBB16B"></path>
                    <path d="M96.47,66.51 L120.57,66.51 C120.57,66.51 115.09,72.15 108.09,72.05 C101.09,71.95 96.47,66.51 96.47,66.51 L96.47,66.51 Z" id="Shape" fill="#EEAFE4"></path>
                    <ellipse id="Oval" fill="#FFFFFF" cx="98.67" cy="45.75" rx="2.98" ry="6.02"></ellipse>
                    <ellipse id="Oval" fill="#4A806C" cx="98.67" cy="45.75" rx="1.84" ry="3.71"></ellipse>
                    <ellipse id="Oval" fill="#FFFFFF" cx="119.69" cy="45.75" rx="2.98" ry="6.02"></ellipse>
                    <ellipse id="Oval" fill="#4A806C" cx="119.69" cy="45.75" rx="1.84" ry="3.71"></ellipse>
                    <path d="M91.57,37.3 C91.3913672,37.3196496 91.2158208,37.2425071 91.1094873,37.0976314 C91.0031538,36.9527557 90.982188,36.7621567 91.0544873,36.5976314 C91.1267866,36.4331061 91.2813672,36.3196496 91.46,36.3 L104.08,33.5 C104.356142,33.4392487 104.629249,33.6138576 104.69,33.89 C104.750751,34.1661424 104.576142,34.4392487 104.3,34.5 L91.68,37.3 L91.57,37.3 Z" id="Shape" fill="#FF8F54"></path>
                    <path d="M126.44,37.3 L126.33,37.3 L114.24,34.5 C113.963858,34.4364872 113.791487,34.1611424 113.855,33.885 C113.918513,33.6088576 114.193858,33.4364873 114.47,33.5 L126.56,36.3 C126.738633,36.3196496 126.893213,36.4331061 126.965513,36.5976314 C127.037812,36.7621567 127.016846,36.9527557 126.910513,37.0976314 C126.804179,37.2425071 126.628633,37.3196496 126.45,37.3 L126.44,37.3 Z" id="Shape" fill="#FF8F54"></path>
                    <path d="M29.77,98.13 C29.77,98.13 28.39,114.13 28.77,116.71 C29.15,119.29 27.39,131.16 27.77,133.06 C28.15,134.96 27.16,139.06 27.77,140.46 C28.38,141.86 54.14,140.46 54.14,140.46 C54.14,140.46 53.97,129.1 54.14,128.07 C54.31,127.04 51.21,113.96 51.04,113.27 C50.87,112.58 48.63,101.57 48.63,101.57 L48.8,96.24 L29.77,98.13 Z" id="Shape" fill="#FF777E"></path>
                    <path d="M34.75,142.07 L34.75,142.07 C27.6,142.07 27.05,141.6 26.75,140.84 C26.4262136,139.431562 26.3921911,137.971995 26.65,136.55 C26.7977214,135.453015 26.8278924,134.343392 26.74,133.24 C26.56,132.24 26.8,129.59 27.21,125.36 C27.5759844,122.538097 27.7596985,119.695537 27.76,116.85 C27.41,114.24 28.64,99.7 28.76,98.05 C28.8011797,97.5692657 29.1797501,97.186489 29.66,97.14 L48.6,95.25 C48.8852515,95.2208302 49.1693007,95.3155133 49.38,95.51 C49.5910156,95.705514 49.7076126,95.982432 49.7,96.27 L49.53,101.49 C50.43,105.91 51.78,112.55 51.91,113.03 C51.91,113.17 55.25,126.85 55.02,128.23 C54.92,128.89 54.95,135.02 55.02,140.44 C55.0206671,140.973333 54.6026668,141.413334 54.07,141.44 C54,141.47 42.5,142.07 34.75,142.07 L34.75,142.07 Z M28.51,139.77 C30.5743913,140.046605 32.6585828,140.146967 34.74,140.07 C41.13,140.07 50.09,139.65 53.01,139.51 C53.01,136.43 52.88,128.85 53.01,127.91 C53.01,126.77 50.35,115.2 49.93,113.52 C49.76,112.83 47.74,102.91 47.51,101.78 C47.501154,101.703589 47.501154,101.626411 47.51,101.55 L47.64,97.36 L30.64,99.06 C30.23,103.98 29.42,114.69 29.64,116.6 C29.6818214,119.609203 29.5013305,122.617386 29.1,125.6 C28.7864266,128.031089 28.619458,130.478848 28.6,132.93 C28.7309639,134.211504 28.7074621,135.504103 28.53,136.78 C28.440189,137.777717 28.4334993,138.781174 28.51,139.78 L28.51,139.77 Z" id="Shape" fill="#FF777E"></path>
                    <polygon id="Shape" fill="#CB416A" points="30.91 98.71 32.52 103.81 51.62 101.26 48.7 96.93"></polygon>
                    <path d="M32.52,104.81 C32.0663999,104.830766 31.6557475,104.543309 31.52,104.11 L30,99 C29.907998,98.7129798 29.950361,98.3997737 30.1153046,98.1475069 C30.2802483,97.8952401 30.5501755,97.730826 30.85,97.7 L48.6,95.93 C48.9674594,95.8937189 49.3250089,96.0628821 49.53,96.37 L52.46,100.7 C52.6534315,100.987346 52.6843852,101.354328 52.5418173,101.670014 C52.3992494,101.9857 52.1034668,102.205125 51.76,102.25 L32.66,104.8 L32.52,104.81 Z M32.23,99.58 L33.23,102.71 L49.9,100.48 L48.2,98 L32.23,99.58 Z" id="Shape" fill="#CB416A"></path>
                    <polygon id="Shape" fill="#FF777E" points="30.91 98.02 32.52 103.12 51.62 100.57 48.7 96.24"></polygon>
                    <path d="M32.52,104.12 C32.0663999,104.140766 31.6557475,103.853309 31.52,103.42 L30,98.32 C29.907998,98.0329798 29.950361,97.7197737 30.1153046,97.4675069 C30.2802483,97.2152401 30.5501755,97.050826 30.85,97.02 L48.6,95.25 C48.9654599,95.2115701 49.3225543,95.3766783 49.53,95.68 L52.45,100 C52.6434315,100.287346 52.6743852,100.654328 52.5318173,100.970014 C52.3892494,101.2857 52.0934668,101.505125 51.75,101.55 L32.65,104.1 L32.52,104.12 Z M32.23,98.89 L33.23,102.02 L49.9,99.79 L48.2,97.3 L32.23,98.89 Z" id="Shape" fill="#FF777E"></path>
                    <path d="M35,112.88 L35,127.65 C35,127.65 49.35,127.65 50.78,126.65 C52.21,125.65 48,110.78 48,110.78 L35,112.88 Z" id="Shape" fill="#BFF1FF"></path>
                    <path d="M35.06,128.65 L34.95,128.65 C34.3977153,128.65 33.95,128.202285 33.95,127.65 L33.95,112.88 C33.943624,112.384607 34.3009422,111.959228 34.79,111.88 L47.85,109.79 C48.3520685,109.71045 48.8339302,110.020218 48.97,110.51 C53.29,125.91 51.86,126.99 51.33,127.4 C50,128.43 41.73,128.65 35.06,128.65 L35.06,128.65 Z M35.96,113.73 L35.96,126.65 C42.96,126.65 48.74,126.29 50.01,125.85 C50.3,124.38 48.9,117.78 47.29,111.92 L35.96,113.73 Z" id="Shape" fill="#BFF1FF"></path>
                    <path d="M42.21,115.39 C41.9338576,115.420376 41.6853757,115.221142 41.655,114.945 C41.6246243,114.668858 41.8238576,114.420376 42.1,114.39 L47.1,113.26 C47.3761424,113.199249 47.6492487,113.373858 47.71,113.65 C47.7707513,113.926142 47.5961424,114.199249 47.32,114.26 L42.32,115.39 L42.21,115.39 Z" id="Shape" fill="#CB416A"></path>
                    <path d="M43.61,121.38 C43.3338576,121.410376 43.0853757,121.211142 43.055,120.935 C43.0246244,120.658858 43.2238576,120.410376 43.5,120.38 L48.5,119.25 C48.7761424,119.189249 49.0492487,119.363858 49.11,119.64 C49.1707513,119.916142 48.9961424,120.189249 48.72,120.25 L43.72,121.38 L43.61,121.38 Z" id="Shape" fill="#CB416A"></path>
                    <path d="M40.76,119 C40.4838576,119.030376 40.2353757,118.831142 40.205,118.555 C40.1746243,118.278858 40.3738576,118.030376 40.65,118 L47.91,116.39 C48.1861424,116.329249 48.4592486,116.503858 48.5199999,116.78 C48.5807513,117.056142 48.4061423,117.329249 48.13,117.39 L40.86,119 L40.76,119 Z" id="Shape" fill="#CB416A"></path>
                    <path d="M52.89,101.5 C52.89,101.5 51.52,117.5 51.89,120.08 C52.26,122.66 50.51,134.53 50.89,136.42 C51.27,138.31 50.28,142.42 50.89,143.82 C51.5,145.22 77.26,143.82 77.26,143.82 C77.26,143.82 77.09,132.46 77.26,131.43 C77.43,130.4 74.33,117.32 74.16,116.63 C73.99,115.94 71.75,104.93 71.75,104.93 L71.92,99.6 L52.89,101.5 Z" id="Shape" fill="#71DCEE"></path>
                    <path d="M57.87,145.44 L57.87,145.44 C50.72,145.44 50.17,144.97 49.87,144.21 C49.5462136,142.801562 49.5121911,141.341995 49.77,139.92 C49.9174179,138.82299 49.947588,137.7134 49.86,136.61 C49.68,135.61 49.92,132.96 50.33,128.73 C50.6959292,125.908091 50.8796431,123.065536 50.88,120.22 C50.53,117.61 51.76,103.07 51.88,101.42 C51.9211797,100.939266 52.2997501,100.556489 52.78,100.51 L71.71,98.62 C71.99207,98.5916473 72.2729188,98.6843492 72.4826854,98.8750461 C72.692452,99.065743 72.8114214,99.3365122 72.81,99.62 L72.64,104.84 C73.54,109.26 74.89,115.9 75.02,116.38 C75.02,116.52 78.36,130.21 78.13,131.58 C78.02,132.33 78.08,139.46 78.13,143.79 C78.1306671,144.323333 77.7126668,144.763334 77.18,144.79 C77.09,144.83 65.62,145.44 57.87,145.44 L57.87,145.44 Z M51.63,143.14 C53.6943296,143.417283 55.7785791,143.517648 57.86,143.44 C64.25,143.44 73.21,143.02 76.13,142.88 C76.13,139.8 76,132.22 76.13,131.28 C76.13,130.15 73.54,118.86 73.05,116.89 C72.88,116.2 70.86,106.28 70.63,105.15 C70.621154,105.073589 70.621154,104.996411 70.63,104.92 L70.76,100.73 L53.76,102.43 C53.35,107.35 52.54,118.06 52.76,119.97 C52.8017122,122.979201 52.6212217,125.987375 52.22,128.97 C51.9067545,131.397772 51.7397865,133.842183 51.72,136.29 C51.8494902,137.568228 51.8259907,138.857341 51.65,140.13 C51.5587878,141.13099 51.5520975,142.137886 51.63,143.14 L51.63,143.14 Z" id="Shape" fill="#71DCEE"></path>
                    <polygon id="Shape" fill="#7541A3" points="54.03 102.07 55.65 107.17 74.74 104.62 71.82 100.29"></polygon>
                    <path d="M55.64,108.17 C55.1863999,108.190766 54.7757475,107.903309 54.64,107.47 L53.03,102.37 C52.937998,102.08298 52.980361,101.769774 53.1453046,101.517507 C53.3102483,101.26524 53.5801755,101.100826 53.88,101.07 L71.72,99.3 C72.0874594,99.2637189 72.4450089,99.4328821 72.65,99.74 L75.58,104.07 C75.7734315,104.357346 75.8043852,104.724328 75.6618173,105.040014 C75.5192494,105.3557 75.2234668,105.575125 74.88,105.62 L55.78,108.17 L55.64,108.17 Z M55.35,102.94 L56.35,106.07 L73,103.84 L71.31,101.34 L55.35,102.94 Z" id="Shape" fill="#55508C"></path>
                    <polygon id="Shape" fill="#71DCEE" points="54.03 101.38 55.65 106.48 74.74 103.93 71.82 99.6"></polygon>
                    <path d="M55.64,107.49 C55.1863999,107.510766 54.7757475,107.223309 54.64,106.79 L53.03,101.69 C52.937998,101.40298 52.980361,101.089774 53.1453046,100.837507 C53.3102483,100.58524 53.5801755,100.420826 53.88,100.39 L71.66,98.61 C72.0254599,98.5715701 72.3825543,98.7366783 72.59,99.04 L75.52,103.37 C75.7134315,103.657346 75.7443852,104.024328 75.6018173,104.340014 C75.4592494,104.6557 75.1634668,104.875125 74.82,104.92 L55.72,107.47 L55.64,107.49 Z M55.35,102.26 L56.35,105.39 L73,103.15 L71.31,100.65 L55.35,102.26 Z" id="Shape" fill="#71DCEE"></path>
                    <path d="M58.07,116.24 L58.07,131 C58.07,131 72.42,131 73.85,130 C75.28,129 71.13,114.18 71.13,114.18 L58.07,116.24 Z" id="Shape" fill="#FFFFFF"></path>
                    <path d="M58.19,132 L58.08,132 C57.5277153,132 57.08,131.552285 57.08,131 L57.08,116.24 C57.073624,115.744607 57.4309422,115.319228 57.92,115.24 L71,113.16 C71.5020685,113.08045 71.9839302,113.390218 72.12,113.88 C76.44,129.28 75.02,130.36 74.48,130.77 C73.09,131.79 64.85,132 58.19,132 L58.19,132 Z M59.08,117.08 L59.08,130 C66.08,130 71.87,129.64 73.13,129.2 C73.42,127.73 72.02,121.13 70.41,115.26 L59.08,117.08 Z" id="Shape" fill="#FFFFFF"></path>
                    <path d="M65.33,118.75 C65.0538576,118.780376 64.8053757,118.581142 64.775,118.305 C64.7446243,118.028858 64.9438576,117.780376 65.22,117.75 L70.22,116.62 C70.4961424,116.559249 70.7692487,116.733858 70.83,117.01 C70.8907513,117.286142 70.7161424,117.559249 70.44,117.62 L65.44,118.75 L65.33,118.75 Z" id="Shape" fill="#55508C"></path>
                    <path d="M66.74,124.74 C66.4638576,124.770376 66.2153757,124.571142 66.185,124.295 C66.1546244,124.018858 66.3538576,123.770376 66.63,123.74 L71.63,122.61 C71.7601991,122.577304 71.8981111,122.599456 72.0115211,122.671282 C72.1249312,122.743109 72.2039067,122.858319 72.23,122.99 C72.2597856,123.120002 72.2363983,123.256517 72.165038,123.369191 C72.0936777,123.481865 71.9802593,123.56136 71.85,123.59 L66.85,124.72 L66.74,124.74 Z" id="Shape" fill="#55508C"></path>
                    <path d="M63.88,122.32 C63.6038576,122.350376 63.3553757,122.151142 63.325,121.875 C63.2946244,121.598858 63.4938576,121.350376 63.77,121.32 L71.03,119.72 C71.2086328,119.682487 71.3937092,119.743123 71.5155128,119.879067 C71.6373163,120.015011 71.6773421,120.20561 71.6205128,120.379067 C71.5636835,120.552524 71.4186328,120.682487 71.24,120.72 L64,122.31 L63.88,122.32 Z" id="Shape" fill="#55508C"></path>
                    <ellipse id="Oval" fill="#F7DBBF" transform="translate(136.702226, 142.224365) rotate(-0.320000) translate(-136.702226, -142.224365) " cx="136.702226" cy="142.224365" rx="6" ry="7.3"></ellipse>
                    <path d="M136.7,150 C133.13,150 130.21,146.52 130.19,142.24 C130.151989,140.252586 130.802014,138.313109 132.03,136.75 C133.136769,135.311327 134.835328,134.451018 136.65,134.41 C140.25,134.41 143.18,137.89 143.2,142.17 C143.22,146.45 140.32,149.98 136.74,150 L136.7,150 Z M136.7,135.41 C135.172122,135.450134 133.746516,136.186881 132.83,137.41 C131.746761,138.791423 131.174433,140.504873 131.21,142.26 C131.21,145.99 133.7,149.02 136.72,149.02 L136.72,149.52 L136.72,149.02 C139.72,149.02 142.21,145.94 142.19,142.19 C142.17,138.44 139.7,135.44 136.68,135.44 L136.7,135.41 Z" id="Shape" fill="#F7DBBF"></path>
                    <ellipse id="Oval" fill="#F7DBBF" transform="translate(78.405618, 143.919935) rotate(-3.490000) translate(-78.405618, -143.919935) " cx="78.4056176" cy="143.919935" rx="6.01" ry="7.3"></ellipse>
                    <path d="M78.55,151.71 C75.09,151.71 72.17,148.46 71.92,144.31 C71.67,140.16 74.36,136.31 77.92,136.13 C81.48,135.95 84.63,139.23 84.92,143.52 C85.0660392,145.50199 84.5219379,147.473474 83.38,149.1 C82.3548423,150.596035 80.7080192,151.548104 78.9,151.69 L78.55,151.71 Z M78.27,137.13 L78,137.13 C75,137.31 72.69,140.51 72.92,144.25 C73.15,147.99 75.79,150.9 78.83,150.7 C80.339318,150.575713 81.710972,149.774049 82.56,148.52 C83.5649461,147.081466 84.0418643,145.339831 83.91,143.59 C83.68,140 81.21,137.12 78.27,137.12 L78.27,137.13 Z" id="Shape" fill="#F7DBBF"></path>
                    <path d="M2.16,142.91 L208.53,142.91 C208.53,142.91 211.46,148.26 208.53,150.91 C205.6,153.56 2.16,153.31 2.16,153.31 C2.16,153.31 -1.61,148.1 2.16,142.89" id="Shape" fill="#2D1A7A"></path>
                    <path d="M17.3,153.84 L2.16,153.84 C2.00084076,153.837661 1.85230514,153.75968 1.76,153.63 C1.76,153.58 -2.17,148.07 1.76,142.63 C1.85436111,142.497464 2.00730674,142.419126 2.17,142.42 L208.53,142.42 C208.713227,142.4195 208.882051,142.51926 208.97,142.68 C209.1,142.91 212.05,148.41 208.87,151.31 C206.44,153.51 87.8,153.84 17.3,153.84 L17.3,153.84 Z M2.43,152.84 L17.3,152.84 C107.5,152.84 205.02,152.23 208.24,150.53 C210.46,148.53 208.74,144.47 208.24,143.41 L2.42,143.41 C0.534667942,146.268094 0.538604058,149.975915 2.43,152.83 L2.43,152.84 Z" id="Shape" fill="#2D1A7A"></path>
                    <path d="M166.86,94.06 L171.65,104.95 L171.65,136.88 L171.5,141.57 L163.3,145.63 L159.89,145.84 L153.65,143.11 L151.92,141.31 L150.57,139.23 L150.25,128.92 L150.32,108.34 L151.32,105 L153.76,99.81 L156.64,94.06 C156.64,94.06 162,98.44 166.86,94.06 L166.86,94.06 Z" id="Shape" fill="#FF8F54"></path>
                    <path d="M160.88,146.38 L160.88,146.38 C153.7,146.38 149.96,139.71 149.82,138.6 C149.7,137.67 149.75,122.94 149.82,110.22 L149.82,107.67 C149.82,106.28 154.94,96.22 156.11,93.93 L156.11,87.53 C156.11,87.2538576 156.333858,87.03 156.61,87.03 L166.12,87.03 C166.265964,87.0310383 166.404186,87.0958089 166.498386,87.2073115 C166.592587,87.3188141 166.633359,87.4659135 166.61,87.61 C166.605476,89.4275146 166.789799,91.2405813 167.16,93.02 C167.578799,94.8980838 168.308878,96.692861 169.32,98.33 C171.278037,101.582634 172.499995,105.224615 172.9,109 C173.6,116.82 172.06,140.6 171.99,141.61 C171.980971,141.756739 171.907821,141.892068 171.79,141.98 C168,144.9 164.28,146.38 160.88,146.38 L160.88,146.38 Z M157.1,88 L157.1,94 C157.101495,94.0795165 157.084372,94.1582806 157.05,94.23 C154.05,100.09 150.83,106.78 150.81,107.62 L150.81,110.17 C150.81,116.92 150.69,137.44 150.81,138.42 C150.9,138.98 154.15,145.32 160.88,145.32 L160.88,145.32 C164.01,145.32 167.42,143.95 171.01,141.25 C171.17,138.74 172.56,116.36 171.9,109.02 C171.501207,105.384207 170.313562,101.879289 168.42,98.75 C167.353661,97.0135596 166.586335,95.1104561 166.15,93.12 C165.848658,91.4208517 165.658256,89.7038875 165.58,87.98 L157.1,88 Z" id="Shape" fill="#BFF1FF"></path>
                    <ellipse id="Oval" fill="#71DCEE" cx="161.56" cy="84.83" rx="6.81" ry="3.78"></ellipse>
                    <path d="M191.43,103.87 C191.43,103.87 192.81,119.87 192.43,122.45 C192.05,125.03 193.81,136.9 193.43,138.79 C193.05,140.68 194.04,144.79 193.43,146.19 C192.82,147.59 167.06,146.19 167.06,146.19 C167.06,146.19 167.23,134.83 167.06,133.8 C166.89,132.77 169.99,119.69 170.16,119 C170.33,118.31 172.57,107.3 172.57,107.3 L172.4,101.97 L191.43,103.87 Z" id="Shape" fill="#FFB9DC"></path>
                    <path d="M186.46,147.81 C178.71,147.81 167.24,147.2 167.12,147.2 C166.587333,147.173334 166.169333,146.733333 166.17,146.2 C166.25,140.78 166.29,134.66 166.17,133.99 C165.94,132.62 169.25,118.92 169.28,118.79 C169.42,118.25 171.02,110.38 171.66,107.25 L171.49,102.03 C171.488579,101.746512 171.607548,101.475743 171.817315,101.285046 C172.027081,101.094349 172.30793,101.001647 172.59,101.03 L191.52,102.92 C192.00025,102.966489 192.37882,103.349266 192.42,103.83 C192.56,105.48 193.8,120.02 193.42,122.63 C193.420149,125.478865 193.603863,128.324761 193.97,131.15 C194.38,135.38 194.63,138.02 194.44,139.02 C194.352488,140.123402 194.382658,141.232984 194.53,142.33 C194.787809,143.751995 194.753786,145.211562 194.43,146.62 C194.16,147.34 193.6,147.81 186.46,147.81 L186.46,147.81 Z M168.19,145.25 C171.11,145.4 180.07,145.81 186.46,145.81 C188.544744,145.887245 190.632281,145.786883 192.7,145.51 C192.746932,144.508682 192.710138,143.505193 192.59,142.51 C192.414578,141.237297 192.39108,139.948251 192.52,138.67 C192.501602,136.222131 192.334628,133.777635 192.02,131.35 C191.618887,128.367365 191.438397,125.359198 191.48,122.35 C191.73,120.44 190.92,109.73 190.48,104.81 L173.48,103.11 L173.61,107.3 C173.618846,107.376411 173.618846,107.453589 173.61,107.53 C173.38,108.66 171.36,118.58 171.19,119.27 C170.7,121.27 168.08,132.53 168.11,133.72 C168.32,134.59 168.23,142.16 168.19,145.24 L168.19,145.25 Z" id="Shape" fill="#FFB9DC"></path>
                    <polygon id="Shape" fill="#00A19A" points="190.29 104.44 188.68 109.55 169.58 106.99 172.51 102.66"></polygon>
                    <path d="M188.68,110.54 L188.55,110.54 L169.45,108 C169.106533,107.955125 168.810751,107.7357 168.668183,107.420014 C168.525615,107.104328 168.556569,106.737346 168.75,106.45 L171.68,102.12 C171.884991,101.812882 172.242541,101.643719 172.61,101.68 L190.39,103.46 C190.689824,103.490826 190.959752,103.65524 191.124695,103.907507 C191.289639,104.159774 191.332002,104.47298 191.24,104.76 L189.63,109.86 C189.492428,110.267312 189.109916,110.54111 188.68,110.54 L188.68,110.54 Z M171.31,106.21 L188,108.44 L189,105.31 L173,103.71 L171.31,106.21 Z" id="Shape" fill="#00A19A"></path>
                    <polygon id="Shape" fill="#FFB9DC" points="190.29 103.75 188.68 108.86 169.58 106.3 172.51 101.97"></polygon>
                    <path d="M188.68,109.86 L188.55,109.86 L169.45,107.31 C169.106533,107.265125 168.810751,107.0457 168.668183,106.730014 C168.525615,106.414328 168.556569,106.047346 168.75,105.76 L171.68,101.43 C171.887446,101.126678 172.24454,100.96157 172.61,101 L190.39,102.78 C190.689824,102.810826 190.959752,102.97524 191.124695,103.227507 C191.289639,103.479774 191.332002,103.79298 191.24,104.08 L189.63,109.18 C189.492428,109.587312 189.109916,109.86111 188.68,109.86 L188.68,109.86 Z M171.31,105.53 L188,107.75 L189,104.62 L173,103 L171.31,105.53 Z" id="Shape" fill="#FFB9DC"></path>
                    <path d="M186.25,118.61 L186.25,133.38 C186.25,133.38 171.9,133.38 170.47,132.38 C169.04,131.38 173.19,116.56 173.19,116.56 L186.25,118.61 Z" id="Shape" fill="#BFF1FF"></path>
                    <path d="M186.14,134.38 C179.47,134.38 171.24,134.16 169.87,133.13 C169.33,132.72 167.87,131.64 172.23,116.24 C172.36607,115.750218 172.847932,115.44045 173.35,115.52 L186.41,117.61 C186.899058,117.689228 187.256376,118.114607 187.25,118.61 L187.25,133.38 C187.25,133.932285 186.802285,134.38 186.25,134.38 L186.14,134.38 Z M171.2,131.59 C172.39,132.02 178.2,132.35 185.2,132.38 L185.2,119.46 L173.86,117.64 C172.31,123.52 170.9,130.14 171.2,131.59 L171.2,131.59 Z" id="Shape" fill="#BFF1FF"></path>
                    <path d="M179,121.13 L178.89,121.13 L173.89,120 C173.613858,119.939249 173.439249,119.666142 173.5,119.39 C173.560751,119.113858 173.833858,118.939249 174.11,119 L179.11,120.13 C179.386142,120.160376 179.585376,120.408858 179.555,120.685 C179.524624,120.961142 179.276142,121.160376 179,121.13 L179,121.13 Z" id="Shape" fill="#00A19A"></path>
                    <path d="M177.59,127.11 L177.48,127.11 L172.48,125.98 C172.301367,125.940701 172.15727,125.809087 172.101987,125.634737 C172.046705,125.460387 172.088637,125.269788 172.211987,125.134737 C172.335338,124.999686 172.521367,124.940701 172.7,124.98 L177.7,126.11 C177.976142,126.140376 178.175376,126.388858 178.145,126.665 C178.114624,126.941142 177.866142,127.140376 177.59,127.11 L177.59,127.11 Z" id="Shape" fill="#00A19A"></path>
                    <path d="M180.45,124.7 L180.34,124.7 L173.08,123.1 C172.803858,123.04201 172.62701,122.771142 172.685,122.495 C172.74299,122.218858 173.013858,122.04201 173.29,122.1 L180.55,123.7 C180.826142,123.730376 181.025376,123.978858 180.995,124.255 C180.964624,124.531142 180.716142,124.730376 180.44,124.7 L180.45,124.7 Z" id="Shape" fill="#00A19A"></path>
                    <path d="M40.24,118.07 L42,141.18 C42,141.18 53.28,148.52 63.85,141.18 L63.85,118.07 C56.138341,120.302616 47.951659,120.302616 40.24,118.07 L40.24,118.07 Z" id="Shape" fill="#FF4C83"></path>
                    <path d="M53.52,145.44 C49.2875106,145.37492 45.1475246,144.191574 41.52,142.01 C41.2601895,141.840225 41.0939346,141.559439 41.07,141.25 L39.28,118.14 C39.267044,117.818264 39.4098052,117.509974 39.6635461,117.311739 C39.9172871,117.113504 40.2509597,117.04958 40.56,117.14 C44.2773252,118.217069 48.129815,118.755878 52,118.74 C55.9056909,118.774837 59.794864,118.22887 63.54,117.12 C63.8468656,117.012718 64.1867293,117.061293 64.4512563,117.250241 C64.7157834,117.439189 64.8719587,117.744928 64.87,118.07 L64.87,141.18 C64.8694615,141.507224 64.7088622,141.813483 64.44,142 C61.2455763,144.252893 57.4289178,145.45521 53.52,145.44 L53.52,145.44 Z M43,140.58 C46.2220126,142.383263 49.8384456,143.365504 53.53,143.44 C56.8571943,143.455665 60.1143788,142.484774 62.89,140.65 L62.89,119.41 C59.3305777,120.310615 55.6715514,120.757494 52,120.74 C48.4015648,120.746974 44.8166144,120.300115 41.33,119.41 L43,140.58 Z" id="Shape" fill="#FF4C83"></path>
                    <path d="M42.39,126.28 C42.39,126.28 42.93,134.91 43.82,136.7 C44.71,138.49 53.49,138.13 53.49,138.13 L52.06,126.28 L42.39,126.28 Z" id="Shape" fill="#FFFFFF"></path>
                    <path d="M51.74,139.16 C43.94,139.16 43.23,137.75 42.93,137.16 C41.99,135.28 41.48,127.83 41.39,126.35 C41.3734427,126.07455 41.4714438,125.8045 41.6608046,125.603778 C41.8501655,125.403055 42.1140529,125.289503 42.39,125.29 L52.06,125.29 C52.5686257,125.286326 52.9989766,125.665035 53.06,126.17 L54.49,138 C54.524494,138.28531 54.4345714,138.571669 54.2431669,138.786042 C54.0517624,139.000415 53.7773798,139.122078 53.49,139.12 C53.49,139.12 52.8,139.16 51.74,139.16 L51.74,139.16 Z M43.46,127.28 C43.7,130.57 44.19,135.2 44.72,136.28 C44.97,136.58 46.79,137.19 51.72,137.19 L52.35,137.19 L51.16,127.31 L43.46,127.28 Z" id="Shape" fill="#FFFFFF"></path>
                    <ellipse id="Oval" fill="#00CE9A" cx="52.06" cy="113.39" rx="13.97" ry="6.24"></ellipse>
                    <path d="M52.06,120.63 C43.67,120.63 37.06,117.45 37.06,113.39 C37.06,109.33 43.64,106.15 52.06,106.15 C60.48,106.15 67.06,109.33 67.06,113.39 C67.06,117.45 60.45,120.63 52.06,120.63 L52.06,120.63 Z M52.06,108.15 C44.42,108.15 39.06,110.91 39.06,113.39 C39.06,115.87 44.39,118.63 52.06,118.63 C59.73,118.63 65.06,115.87 65.06,113.39 C65.06,110.91 59.7,108.15 52.06,108.15 L52.06,108.15 Z" id="Shape" fill="#00CE9A"></path>
                    <path d="M42.39,113.39 C43.6622188,115.290179 45.8357284,116.386417 48.12,116.28 C52.24,116.28 42.39,113.39 42.39,113.39 L42.39,113.39 Z" id="Shape" fill="#FFFFFF"></path>
                    <path d="M48.12,117.28 C45.4685354,117.392859 42.9548405,116.096081 41.51,113.87 C41.308439,113.514251 41.3437587,113.071631 41.5991848,112.752348 C41.854611,112.433065 42.278683,112.301446 42.67,112.42 C50.33,114.67 50.23,115.42 50.12,116.2 C50,117.28 48.67,117.28 48.12,117.28 L48.12,117.28 Z" id="Shape" fill="#FFFFFF"></path>
                    <path d="M6.12,134.81 C6.12,134.81 17.93,143.48 27.95,147 C31.95,148.44 43.95,148.89 49.28,146.21 C54.61,143.53 56.38,136.51 54.28,134.1 C52.18,131.69 38.16,127.79 33.17,127 C28.18,126.21 24.24,120.71 18.06,121.44 C11.88,122.17 11.06,123.1 8.06,124.76 C2.15,128 5.49,131.66 6.12,134.83" id="Shape" fill="#FFE3A4"></path>
                    <path d="M37.6,149.2 L37.6,149.2 C34.2251262,149.294373 30.8549679,148.886584 27.6,147.99 C17.6,144.42 6,135.99 5.51,135.61 C5.30837116,135.462517 5.16924439,135.244909 5.12,135 C4.96178361,134.318114 4.75115773,133.64946 4.49,133 C3.49,130.37 2.17,126.78 7.56,123.83 L8.75,123.16 C10.97,121.89 12.44,121.04 17.92,120.4 C18.331606,120.352406 18.7456525,120.329032 19.16,120.33 C22.54,120.33 25.16,121.93 27.79,123.48 C29.463729,124.657483 31.3425861,125.512126 33.33,126 C37.89,126.74 52.62,130.68 55.06,133.5 C56.06,134.68 56.41,136.64 55.96,138.87 C55.2340332,142.428871 52.9465053,145.472788 49.73,147.16 C46.16,148.93 40.6,149.2 37.6,149.2 L37.6,149.2 Z M7,134.22 C8.89,135.58 19.39,142.94 28.27,146.11 C31.3074333,146.923838 34.4465591,147.294336 37.59,147.21 C42.39,147.21 46.48,146.54 48.82,145.37 C51.5011099,143.9715 53.4054017,141.434895 54,138.47 C54.3681595,137.236293 54.2012544,135.90468 53.54,134.8 C51.78,132.8 38.35,128.8 33.01,127.97 C30.7784252,127.45462 28.6645574,126.521532 26.78,125.22 C24.16,123.65 21.47,122.04 18.18,122.42 C13.1,123.02 11.85,123.74 9.77,124.93 L8.54,125.62 C4.67,127.74 5.43,129.77 6.39,132.34 C6.62617433,132.955531 6.82978928,133.583066 7,134.22 L7,134.22 Z" id="Shape" fill="#FFE3A4"></path>
                    <path d="M28.8,126.37 C28.8,126.37 19.34,130.32 16.8,133.01 C14.26,135.7 13.74,138.17 13.98,138.8 C14.22,139.43 17.32,139.6 19.44,138.89 C21.56,138.18 23.7,137.33 25,136 C26.3,134.67 32.66,130 34.06,128.32 L29.06,126.38" id="Shape" fill="#FFF7A4"></path>
                    <path d="M16.25,140.33 C14.78,140.33 13.4,140.03 13.06,139.15 C12.58,137.89 13.58,134.99 16.06,132.32 C18.54,129.65 28,125.61 28.39,125.44 C28.7179556,125.355322 29.0620444,125.355322 29.39,125.44 L34.39,127.38 C34.6863841,127.496869 34.909343,127.747971 34.9903258,128.0561 C35.0713086,128.36423 35.0006222,128.692507 34.8,128.94 C33.0705089,130.67502 31.2118384,132.276285 29.24,133.73 C27.74,134.92 26.18,136.15 25.69,136.68 C24.28,138.18 22.01,139.08 19.77,139.84 C18.6263393,140.171775 17.440793,140.336808 16.25,140.33 L16.25,140.33 Z M15,138.22 C16.3970587,138.446859 17.827653,138.347607 19.18,137.93 C21.18,137.26 23.18,136.48 24.28,135.3 C25.4665,134.191546 26.7080726,133.143552 28,132.16 C29.44,131.02 31.12,129.68 32.24,128.68 L28.95,127.39 C26.19,128.56 19.45,131.67 17.56,133.69 C16.2912416,134.924287 15.4028299,136.496359 15,138.22 L15,138.22 Z" id="Shape" fill="#FFF7A4"></path>
                    <path d="M39,129.61 C39,129.61 26.91,140.34 26.16,141.32 C25.41,142.3 28.75,142.32 31.62,141.4 C34.49,140.48 38.01,137.53 38.89,137.17 C39.77,136.81 45.14,134.04 46.17,132.17 L39,129.61 Z" id="Shape" fill="#FFF7A4"></path>
                    <path d="M27.64,143.09 L27.64,143.09 C26.27,143.09 25.49,142.79 25.17,142.09 C24.953747,141.6197 25.0277126,141.066904 25.36,140.67 C26.14,139.67 36.3,130.67 38.36,128.82 C38.6337532,128.579065 39.0169579,128.506256 39.36,128.63 L46.52,131.23 C46.793156,131.330816 47.0088064,131.54568 47.1106208,131.818465 C47.2124351,132.091251 47.1903009,132.394865 47.05,132.65 C45.81,134.9 39.91,137.8 39.28,138.06 C38.7944564,138.342158 38.323828,138.649234 37.87,138.98 C36.0462152,140.345285 34.0528877,141.468002 31.94,142.32 C30.5538531,142.792641 29.1040249,143.052262 27.64,143.09 L27.64,143.09 Z M39.22,130.75 C35.4,134.15 29.91,139.07 27.79,141.09 C28.9836648,141.044809 30.165128,140.832751 31.3,140.46 C33.2289771,139.661118 35.049911,138.622984 36.72,137.37 C37.2794129,136.945294 37.875033,136.570522 38.5,136.25 C40.6077323,135.270642 42.5999826,134.059864 44.44,132.64 L39.22,130.75 Z" id="Shape" fill="#FFF7A4"></path>
                    <path d="M50.65,133.85 C50.65,133.85 45.5,137.99 43.84,140.32 C42.18,142.65 42.05,143.52 42.04,144.26 C42.03,145 42.12,146.87 45.26,145.06 C48.4,143.25 50.26,142.53 51.78,140.57 C53.0130376,138.910005 53.8912538,137.014011 54.36,135 L50.65,133.85 Z" id="Shape" fill="#FFF7A4"></path>
                    <path d="M43.14,146.83 L43.14,146.83 C42.594595,146.843897 42.0671862,146.634378 41.68,146.25 C41.2134007,145.692641 40.9836594,144.9747 41.04,144.25 C41.04,143.15 41.39,142.06 43.04,139.75 C44.69,137.44 49.82,133.25 50.04,133.08 C50.3019489,132.87112 50.6510953,132.807298 50.97,132.91 L54.67,134.08 C54.9331901,134.163106 55.1503296,134.351294 55.27,134.6 C55.76,135.6 53.75,139.7 52.59,141.19 C51.28,142.88 49.75,143.72 47.65,144.88 C47.08,145.19 46.46,145.53 45.78,145.88 C44.9969275,146.419574 44.0873308,146.746891 43.14,146.83 L43.14,146.83 Z M50.87,135 C49.63,136 45.96,139.11 44.67,140.93 C43.07,143.19 43.06,143.86 43.05,144.31 C43.0225581,144.506132 43.0466836,144.706029 43.12,144.89 L43.12,144.89 L43.12,144.89 C43.7026569,144.812752 44.2582384,144.596693 44.74,144.26 C45.43,143.86 46.07,143.51 46.65,143.19 C48.65,142.11 49.92,141.39 50.98,140.02 C51.9078824,138.712306 52.6421216,137.277508 53.16,135.76 L50.87,135 Z" id="Shape" fill="#FFF7A4"></path>
                    <path d="M19.1,120.8 C19.1,120.8 13.3,123.8 11.25,125.8 C9.95261439,127.139367 9.23421523,128.935365 9.25,130.8 C9.25,131 24.48,125.66 24.5,123.94 C24.52,122.22 19.1,120.8 19.1,120.8 L19.1,120.8 Z" id="Shape" fill="#FFF7A4"></path>
                    <path d="M9.32,131.79 L9.32,131.79 C9.04928618,131.791581 8.78949829,131.683336 8.6,131.49 C8.41033194,131.298837 8.30577901,131.039257 8.31,130.77 C8.27923338,128.64281 9.09175713,126.589929 10.57,125.06 C12.7,123 18.41,120.06 18.65,119.91 C18.8687398,119.79681 19.1215569,119.768324 19.36,119.83 C21.23,120.31 25.58,121.67 25.56,123.93 C25.52,126.87 9.48,131.79 9.32,131.79 L9.32,131.79 Z M19.23,121.87 C17.98,122.54 13.6,124.87 11.96,126.5 C11.1676205,127.295704 10.6372788,128.314518 10.44,129.42 C13.78,128.31 22.05,125.11 23.44,123.79 C22.1750813,122.875615 20.7403961,122.222867 19.22,121.87 L19.23,121.87 Z" id="Shape" fill="#FFF7A4"></path>
                </g>
            </g>
        </g>
    </g>
</svg>