<?xml version="1.0" encoding="UTF-8" standalone="no"?>
<svg width="45px" height="39px" viewBox="0 0 45 39" version="1.1" xmlns="http://www.w3.org/2000/svg" xmlns:xlink="http://www.w3.org/1999/xlink">
    <!-- Generator: Sketch 3.8.3 (29802) - http://www.bohemiancoding.com/sketch -->
    <title>Dislike</title>
    <desc>Created with Sketch.</desc>
    <defs></defs>
    <g id="Page-1" stroke="none" stroke-width="1" fill="none" fill-rule="evenodd">
        <g id="Dislike">
            <g id="heart" transform="translate(20.000000, 0.000000)" fill="#CB4E44">
                <g id="Group">
                    <path d="M6.72348936,15.9975329 L0.826436571,24.8278389 L2.9945,38.9554286 C3.284625,38.7075 5.41725,36.8313214 21.1445,22.5461786 C26.288375,17.394 26.263625,9.0675 21.1445,3.88607143 C14.6325,-2.71189286 8.176875,0.171321429 3.006875,4.87639286 L6.72348936,15.9975329 Z" id="Shape"></path>
                </g>
            </g>
            <g id="heart" transform="translate(13.000000, 19.500000) scale(-1, 1) translate(-13.000000, -19.500000) " fill="#E2574C">
                <g id="Group">
                    <path d="M0.257494257,15.9024783 L6.19258718,24.83037 L3.9945,38.9554286 C4.284625,38.7075 6.41725,36.8313214 22.1445,22.5461786 C27.288375,17.394 27.263625,9.0675 22.1445,3.88607143 C15.6325,-2.71189286 9.176875,0.171321429 4.006875,4.87639286 L0.257494257,15.9024783 Z" id="Shape"></path>
                </g>
            </g>
        </g>
    </g>
</svg>