<?xml version="1.0" encoding="UTF-8" standalone="no"?>
<svg width="44px" height="39px" viewBox="0 0 44 39" version="1.1" xmlns="http://www.w3.org/2000/svg" xmlns:xlink="http://www.w3.org/1999/xlink">
    <!-- Generator: Sketch 3.8.3 (29802) - http://www.bohemiancoding.com/sketch -->
    <title>heart</title>
    <desc>Created with Sketch.</desc>
    <defs></defs>
    <g id="Page-1" stroke="none" stroke-width="1" fill="none" fill-rule="evenodd">
        <g id="heart">
            <g id="Group">
                <path d="M40.145875,3.88607143 C33.633875,-2.71189286 27.176875,0.171321429 22.00825,4.87778571 C16.836875,0.171321429 10.4335,-2.76342857 3.86925,3.88607143 C-1.2485,9.0675 -1.27325,17.394 3.86925,22.5475714 C21.951875,39.0250714 21.94775,38.9958214 21.94775,38.9958214 C21.94775,38.9958214 21.973875,39.0501429 40.1445,22.5475714 C45.28975,17.394 45.263625,9.0675 40.145875,3.88607143 L40.145875,3.88607143 Z" id="Shape" fill="#E2574C"></path>
                <path d="M22.006875,4.87639286 L21.9945,4.86664286 L21.9945,38.9554286 C22.284625,38.7075 24.41725,36.8313214 40.1445,22.5461786 C45.288375,17.394 45.263625,9.0675 40.1445,3.88607143 C33.6325,-2.71189286 27.176875,0.171321429 22.006875,4.87639286 L22.006875,4.87639286 Z" id="Shape" fill="#CB4E44"></path>
            </g>
        </g>
    </g>
</svg>