<?xml version="1.0" encoding="UTF-8"?>
<svg width="22px" height="23px" viewBox="0 0 22 23" version="1.1" xmlns="http://www.w3.org/2000/svg" xmlns:xlink="http://www.w3.org/1999/xlink">
    <!-- Generator: Sketch 42 (36781) - http://www.bohemiancoding.com/sketch -->
    <title>settings</title>
    <desc>Created with Sketch.</desc>
    <defs></defs>
    <g id="Page-1" stroke="none" stroke-width="1" fill="none" fill-rule="evenodd">
        <g id="Mobile---Bons-plans---scroll.png" transform="translate(-212.000000, -565.000000)" fill-rule="nonzero" fill="#FFFFFF">
            <g id="Group-4" transform="translate(126.000000, 554.000000)">
                <g id="settings" transform="translate(86.000000, 11.000000)">
                    <g id="Capa_1">
                        <g id="Group">
                            <path d="M11.6582329,11.2265107 L11.6582329,0.685964912 C11.6582329,0.327290448 11.375502,0.0403508772 11.0220884,0.0403508772 C10.6686747,0.0403508772 10.3859438,0.327290448 10.3859438,0.685964912 L10.3859438,11.2309942 C8.91044177,11.531384 7.79718876,12.8539961 7.79718876,14.4411306 C7.79718876,16.0282651 8.91485944,17.3508772 10.3859438,17.6512671 L10.3859438,22.3454191 C10.3859438,22.7040936 10.6686747,22.9910331 11.0220884,22.9910331 C11.375502,22.9910331 11.6582329,22.7040936 11.6582329,22.3454191 L11.6582329,17.6512671 C13.1337349,17.3508772 14.246988,16.0282651 14.246988,14.4411306 C14.2514056,12.8584795 13.1381526,11.531384 11.6582329,11.2265107 Z M11.0220884,16.422807 C9.94417671,16.422807 9.06947791,15.5350877 9.06947791,14.4411306 C9.06947791,13.3471735 9.94417671,12.4594542 11.0220884,12.4594542 C12.1,12.4594542 12.9746988,13.3471735 12.9746988,14.4411306 C12.9746988,15.5350877 12.1,16.422807 11.0220884,16.422807 Z" id="Shape"></path>
                            <path d="M3.87429719,5.81949318 L3.87429719,0.685964912 C3.87429719,0.327290448 3.59156627,0.0403508772 3.23815261,0.0403508772 C2.88473896,0.0403508772 2.60200803,0.327290448 2.60200803,0.685964912 L2.60200803,5.81949318 C1.12650602,6.11988304 0.013253012,7.44249513 0.013253012,9.02962963 C0.013253012,10.6167641 1.13092369,11.9393762 2.60200803,12.2397661 L2.60200803,22.3454191 C2.60200803,22.7040936 2.88473896,22.9910331 3.23815261,22.9910331 C3.59156627,22.9910331 3.87429719,22.7040936 3.87429719,22.3454191 L3.87429719,12.2352827 C5.3497992,11.9348928 6.46305221,10.6122807 6.46305221,9.0251462 C6.46305221,7.4380117 5.3497992,6.11988304 3.87429719,5.81949318 Z M3.23815261,11.011306 C2.16024096,11.011306 1.28554217,10.1235867 1.28554217,9.02962963 C1.28554217,7.93567251 2.16024096,7.04795322 3.23815261,7.04795322 C4.31606426,7.04795322 5.19076305,7.93567251 5.19076305,9.02962963 C5.19076305,10.1235867 4.31164659,11.011306 3.23815261,11.011306 Z" id="Shape"></path>
                            <path d="M19.397992,5.81949318 L19.397992,0.685964912 C19.397992,0.327290448 19.115261,0.0403508772 18.7618474,0.0403508772 C18.4084337,0.0403508772 18.1257028,0.327290448 18.1257028,0.685964912 L18.1257028,5.81949318 C16.6502008,6.11988304 15.5369478,7.44249513 15.5369478,9.02962963 C15.5369478,10.6167641 16.6546185,11.9393762 18.1257028,12.2397661 L18.1257028,22.3499025 C18.1257028,22.708577 18.4084337,22.9955166 18.7618474,22.9955166 C19.115261,22.9955166 19.397992,22.708577 19.397992,22.3499025 L19.397992,12.2352827 C20.873494,11.9348928 21.986747,10.6122807 21.986747,9.0251462 C21.986747,7.4380117 20.873494,6.11988304 19.397992,5.81949318 Z M18.7618474,11.011306 C17.6839357,11.011306 16.8092369,10.1235867 16.8092369,9.02962963 C16.8092369,7.93567251 17.6839357,7.04795322 18.7618474,7.04795322 C19.839759,7.04795322 20.7144578,7.93567251 20.7144578,9.02962963 C20.7144578,10.1235867 19.839759,11.011306 18.7618474,11.011306 Z" id="Shape"></path>
                        </g>
                    </g>
                </g>
            </g>
        </g>
    </g>
</svg>