<?xml version="1.0" encoding="UTF-8"?>
<svg width="281px" height="126px" viewBox="0 0 281 126" version="1.1" xmlns="http://www.w3.org/2000/svg" xmlns:xlink="http://www.w3.org/1999/xlink">
    <!-- Generator: Sketch 3.8.3 (29802) - http://www.bohemiancoding.com/sketch -->
    <title>tableau_de_bord</title>
    <desc>Created with Sketch.</desc>
    <defs></defs>
    <g id="Page-1" stroke="none" stroke-width="1" fill="none" fill-rule="evenodd">
        <g id="tableau_de_bord">
            <g id="Group">
                <path d="M280.919,103.954 C280.919,115.975 218.233,125.72 140.909,125.72 C63.581,125.72 0.899,115.975 0.899,103.954 C0.899,91.933 63.581,82.189 140.909,82.189 C218.233,82.189 280.919,91.933 280.919,103.954 L280.919,103.954 Z" id="Shape" fill="#DADADA"></path>
                <g transform="translate(30.000000, 42.000000)" id="Shape" fill="#AFD085">
                    <path d="M3.11,15.003 C0.54,21.788 1.493,30.936 1.493,30.936 C1.493,30.936 10.138,25.437 12.704,18.651 C15.276,11.867 15.384,1.828 15.384,1.828 C15.384,1.828 5.678,8.218 3.11,15.003 L3.11,15.003 Z"></path>
                    <path d="M1.493,31.936 C1.345,31.936 1.196,31.903 1.057,31.836 C0.745,31.686 0.534,31.384 0.498,31.039 C0.457,30.656 -0.451,21.576 2.174,14.648 C4.827,7.64 14.426,1.259 14.832,0.992 C15.141,0.788 15.535,0.772 15.862,0.949 C16.185,1.127 16.386,1.469 16.383,1.838 C16.377,2.255 16.243,12.134 13.637,19.005 C10.985,26.022 2.394,31.547 2.03,31.779 C1.867,31.883 1.68,31.936 1.493,31.936 L1.493,31.936 Z M14.307,3.824 C11.493,5.929 5.846,10.597 4.045,15.357 C2.24,20.119 2.24,26.179 2.371,29.101 C4.87,27.261 9.963,23.068 11.767,18.296 C13.567,13.552 14.133,7.062 14.307,3.824 L14.307,3.824 Z"></path>
                </g>
                <g transform="translate(5.000000, 43.000000)" id="Shape" fill="#4A806C">
                    <path d="M14.203,14.535 C16.772,21.321 15.819,30.47 15.819,30.47 C15.819,30.47 7.176,24.97 4.605,18.184 C2.036,11.4 1.929,1.361 1.929,1.361 C1.929,1.361 11.634,7.751 14.203,14.535 L14.203,14.535 Z"></path>
                    <path d="M15.819,31.47 C15.631,31.47 15.444,31.417 15.282,31.314 C14.917,31.083 6.329,25.555 3.669,18.539 C1.067,11.667 0.935,1.789 0.93,1.372 C0.926,1.003 1.126,0.661 1.451,0.483 C1.775,0.305 2.172,0.323 2.479,0.526 C2.885,0.794 12.483,7.174 15.137,14.182 C17.761,21.11 16.853,30.19 16.813,30.574 C16.778,30.919 16.566,31.22 16.254,31.371 C16.116,31.437 15.968,31.47 15.819,31.47 L15.819,31.47 Z M3.005,3.357 C3.181,6.595 3.743,13.084 5.541,17.83 C7.353,22.609 12.44,26.799 14.938,28.637 C15.069,25.711 15.067,19.646 13.268,14.889 C11.466,10.131 5.819,5.463 3.005,3.357 L3.005,3.357 Z"></path>
                </g>
                <g transform="translate(15.000000, 33.000000)" id="Shape" fill="#AFD085">
                    <path d="M13.751,22.664 C11.847,31.448 5.653,40.525 5.653,40.525 C5.653,40.525 0.395,29.034 2.299,20.249 C4.199,11.462 11.465,1.04 11.465,1.04 C11.465,1.04 15.651,13.877 13.751,22.664 L13.751,22.664 Z"></path>
                    <path d="M5.653,41.525 C5.625,41.525 5.596,41.524 5.567,41.521 C5.209,41.491 4.894,41.269 4.744,40.941 C4.522,40.46 -0.63,29.044 1.322,20.037 C3.243,11.156 10.343,0.9 10.645,0.469 C10.862,0.157 11.237,-0.007 11.612,0.051 C11.987,0.107 12.298,0.369 12.417,0.731 C12.591,1.265 16.664,13.927 14.728,22.876 C12.805,31.749 6.736,40.713 6.48,41.09 C6.292,41.363 5.982,41.525 5.653,41.525 L5.653,41.525 Z M11.11,3.401 C8.997,6.725 4.654,14.092 3.277,20.461 C1.894,26.841 4.51,34.875 5.846,38.362 C7.664,35.404 11.397,28.802 12.773,22.452 C14.151,16.078 12.171,7.328 11.11,3.401 L11.11,3.401 Z"></path>
                </g>
                <g transform="translate(24.000000, 35.000000)" id="Shape" fill="#4A806C">
                    <path d="M1.471,22.542 C1.748,31.526 6.192,41.577 6.192,41.577 C6.192,41.577 13.448,31.231 13.171,22.247 C12.895,13.261 7.643,1.692 7.643,1.692 C7.643,1.692 1.195,13.557 1.471,22.542 L1.471,22.542 Z"></path>
                    <path d="M6.192,42.577 C6.16,42.577 6.128,42.576 6.094,42.572 C5.735,42.537 5.423,42.311 5.277,41.981 C5.092,41.564 0.752,31.648 0.471,22.572 C0.19,13.422 6.495,1.709 6.764,1.215 C6.946,0.881 7.252,0.67 7.678,0.694 C8.059,0.708 8.397,0.934 8.553,1.28 C8.77,1.759 13.891,13.135 14.171,22.218 C14.454,31.429 7.315,41.719 7.01,42.153 C6.823,42.42 6.516,42.577 6.192,42.577 L6.192,42.577 Z M7.563,4.079 C5.809,7.748 2.27,15.994 2.471,22.512 C2.671,29.014 5.143,36.179 6.393,39.415 C8.339,36.228 12.372,28.803 12.171,22.277 C11.971,15.766 9.038,7.731 7.563,4.079 L7.563,4.079 Z"></path>
                </g>
                <g transform="translate(53.000000, 0.000000)" id="Shape" fill="#B91C48">
                    <path d="M168.94,88.189 L168.94,2.52 C168.94,1.467 168.088,0.616 167.038,0.616 L12.987,0.616 C11.934,0.616 11.083,1.468 11.083,2.52 L11.083,88.189 L168.94,88.189 L168.94,88.189 Z"></path>
                    <path d="M178.872,107.405 L169.886,90.727 L10.115,90.727 L0.948,107.389 C0.626,107.979 0.636,108.698 0.979,109.276 C1.322,109.858 1.946,110.212 2.618,110.212 L177.196,110.212 C177.867,110.212 178.489,109.86 178.833,109.284 C179.177,108.71 179.192,107.995 178.872,107.405 L178.872,107.405 Z"></path>
                </g>
                <g transform="translate(70.000000, 7.000000)">
                    <rect id="Rectangle-path" fill="#FFFFFF" x="1.067" y="1.444" width="144.318" height="72.795"></rect>
                    <path d="M145.385,74.739 L1.067,74.739 C0.791,74.739 0.567,74.515 0.567,74.239 L0.567,1.444 C0.567,1.168 0.791,0.944 1.067,0.944 L145.385,0.944 C145.66,0.944 145.885,1.168 145.885,1.444 L145.885,74.239 C145.885,74.516 145.661,74.739 145.385,74.739 L145.385,74.739 Z M1.567,73.739 L144.885,73.739 L144.885,1.944 L1.567,1.944 L1.567,73.739 L1.567,73.739 Z" id="Shape" fill="#64B9EA"></path>
                </g>
                <g transform="translate(4.000000, 66.000000)" id="Shape" fill="#FF6666">
                    <path d="M2.356,4.495 C-0.248,8.198 3.987,35.472 22.974,35.601 C42.711,35.918 44.682,8.622 43.592,4.495 C42.501,0.368 4.958,0.792 2.356,4.495 L2.356,4.495 Z"></path>
                    <path d="M23.317,36.604 L23.314,36.604 L22.959,36.601 C13.187,36.535 7.651,29.761 4.731,24.089 C0.775,16.407 -0.331,6.577 1.538,3.919 C3.835,0.649 22.245,0.556 24.337,0.556 C33.118,0.556 43.753,1.195 44.56,4.239 C45.32,7.121 44.791,20.556 38.085,29.261 C34.332,34.134 29.363,36.604 23.317,36.604 L23.317,36.604 Z M24.337,2.557 C11.682,2.557 3.915,4.016 3.175,5.071 C2.148,6.53 2.355,15.106 6.511,23.175 C9.178,28.355 14.2,34.541 22.982,34.602 L23.316,34.605 L23.318,34.605 C28.713,34.605 33.147,32.397 36.502,28.042 C42.809,19.854 43.245,7.095 42.627,4.751 C42.073,3.863 36.018,2.557 24.337,2.557 L24.337,2.557 Z"></path>
                </g>
                <g transform="translate(76.000000, 14.000000)" fill="#64B9EA">
                    <rect id="Rectangle-path" x="1.203" y="0.593" width="132.468" height="10.158"></rect>
                    <path d="M133.671,11.251 L1.203,11.251 C0.927,11.251 0.703,11.027 0.703,10.751 L0.703,0.593 C0.703,0.317 0.927,0.093 1.203,0.093 L133.671,0.093 C133.947,0.093 134.171,0.317 134.171,0.593 L134.171,10.751 C134.171,11.027 133.947,11.251 133.671,11.251 L133.671,11.251 Z M1.703,10.251 L133.171,10.251 L133.171,1.093 L1.703,1.093 L1.703,10.251 L1.703,10.251 Z" id="Shape"></path>
                </g>
                <g transform="translate(161.000000, 29.000000)" fill="#64B9EA">
                    <rect id="Rectangle-path" x="0.846" y="1.421" width="20.527" height="12.047"></rect>
                    <path d="M21.374,13.968 L0.847,13.968 C0.571,13.968 0.347,13.744 0.347,13.468 L0.347,1.421 C0.347,1.145 0.571,0.921 0.847,0.921 L21.374,0.921 C21.65,0.921 21.874,1.145 21.874,1.421 L21.874,13.468 C21.874,13.744 21.65,13.968 21.374,13.968 L21.374,13.968 Z M1.346,12.968 L20.873,12.968 L20.873,1.921 L1.346,1.921 L1.346,12.968 L1.346,12.968 Z" id="Shape"></path>
                </g>
                <g transform="translate(187.000000, 29.000000)" fill="#64B9EA">
                    <rect id="Rectangle-path" x="0.874" y="1.421" width="20.527" height="12.047"></rect>
                    <path d="M21.401,13.968 L0.874,13.968 C0.598,13.968 0.374,13.744 0.374,13.468 L0.374,1.421 C0.374,1.145 0.598,0.921 0.874,0.921 L21.401,0.921 C21.677,0.921 21.901,1.145 21.901,1.421 L21.901,13.468 C21.901,13.744 21.677,13.968 21.401,13.968 L21.401,13.968 Z M1.374,12.968 L20.901,12.968 L20.901,1.921 L1.374,1.921 L1.374,12.968 L1.374,12.968 Z" id="Shape"></path>
                </g>
                <g transform="translate(161.000000, 48.000000)" fill="#64B9EA">
                    <rect id="Rectangle-path" x="0.846" y="1.192" width="46.555" height="25.075"></rect>
                    <path d="M47.401,26.768 L0.846,26.768 C0.57,26.768 0.346,26.544 0.346,26.268 L0.346,1.193 C0.346,0.917 0.57,0.693 0.846,0.693 L47.401,0.693 C47.677,0.693 47.901,0.917 47.901,1.193 L47.901,26.268 C47.901,26.544 47.677,26.768 47.401,26.768 L47.401,26.768 Z M1.346,25.768 L46.901,25.768 L46.901,1.693 L1.346,1.693 L1.346,25.768 L1.346,25.768 Z" id="Shape"></path>
                </g>
                <g transform="translate(76.000000, 29.000000)" id="Shape">
                    <g>
                        <path d="M1.203,1.782 L78.969,1.782" fill="#FFFFFF"></path>
                        <path d="M78.969,2.782 L1.203,2.782 C0.65,2.782 0.203,2.334 0.203,1.782 C0.203,1.23 0.65,0.782 1.203,0.782 L78.969,0.782 C79.522,0.782 79.969,1.23 79.969,1.782 C79.969,2.334 79.521,2.782 78.969,2.782 L78.969,2.782 Z" fill="#64B9EA"></path>
                    </g>
                    <g transform="translate(0.000000, 8.000000)">
                        <path d="M1.203,1.082 L78.969,1.082" fill="#FFFFFF"></path>
                        <path d="M78.969,2.082 L1.203,2.082 C0.65,2.082 0.203,1.635 0.203,1.082 C0.203,0.529 0.65,0.082 1.203,0.082 L78.969,0.082 C79.522,0.082 79.969,0.529 79.969,1.082 C79.969,1.635 79.521,2.082 78.969,2.082 L78.969,2.082 Z" fill="#64B9EA"></path>
                    </g>
                    <g transform="translate(0.000000, 14.000000)">
                        <path d="M1.203,1.843 L78.969,1.843" fill="#FFFFFF"></path>
                        <path d="M78.969,2.843 L1.203,2.843 C0.65,2.843 0.203,2.395 0.203,1.843 C0.203,1.291 0.65,0.843 1.203,0.843 L78.969,0.843 C79.522,0.843 79.969,1.291 79.969,1.843 C79.969,2.395 79.521,2.843 78.969,2.843 L78.969,2.843 Z" fill="#64B9EA"></path>
                    </g>
                    <g transform="translate(0.000000, 21.000000)">
                        <path d="M1.203,1.513 L78.969,1.513" fill="#FFFFFF"></path>
                        <path d="M78.969,2.513 L1.203,2.513 C0.65,2.513 0.203,2.065 0.203,1.513 C0.203,0.961 0.65,0.513 1.203,0.513 L78.969,0.513 C79.522,0.513 79.969,0.961 79.969,1.513 C79.969,2.065 79.521,2.513 78.969,2.513 L78.969,2.513 Z" fill="#64B9EA"></path>
                    </g>
                    <g transform="translate(0.000000, 28.000000)">
                        <path d="M1.71,1.174 L79.475,1.174" fill="#FFFFFF"></path>
                        <path d="M79.475,2.174 L1.71,2.174 C1.157,2.174 0.71,1.727 0.71,1.174 C0.71,0.621 1.157,0.174 1.71,0.174 L79.476,0.174 C80.029,0.174 80.476,0.621 80.476,1.174 C80.476,1.727 80.028,2.174 79.475,2.174 L79.475,2.174 Z" fill="#64B9EA"></path>
                    </g>
                    <g transform="translate(0.000000, 34.000000)">
                        <path d="M1.71,1.427 L79.475,1.427" fill="#FFFFFF"></path>
                        <path d="M79.475,2.427 L1.71,2.427 C1.157,2.427 0.71,1.979 0.71,1.427 C0.71,0.875 1.157,0.427 1.71,0.427 L79.476,0.427 C80.029,0.427 80.476,0.875 80.476,1.427 C80.476,1.979 80.028,2.427 79.475,2.427 L79.475,2.427 Z" fill="#64B9EA"></path>
                    </g>
                    <g transform="translate(0.000000, 41.000000)">
                        <path d="M1.71,1.936 L79.475,1.936" fill="#FFFFFF"></path>
                        <path d="M79.475,2.936 L1.71,2.936 C1.157,2.936 0.71,2.489 0.71,1.936 C0.71,1.383 1.157,0.936 1.71,0.936 L79.476,0.936 C80.029,0.936 80.476,1.383 80.476,1.936 C80.476,2.489 80.028,2.936 79.475,2.936 L79.475,2.936 Z" fill="#64B9EA"></path>
                    </g>
                </g>
            </g>
        </g>
    </g>
</svg>