<?xml version="1.0" encoding="utf-8"?>
<!-- Generator: Adobe Illustrator 16.0.0, SVG Export Plug-In . SVG Version: 6.00 Build 0)  -->
<!DOCTYPE svg PUBLIC "-//W3C//DTD SVG 1.1//EN" "http://www.w3.org/Graphics/SVG/1.1/DTD/svg11.dtd">
<svg version="1.1" id="Calque_1" xmlns="http://www.w3.org/2000/svg" xmlns:xlink="http://www.w3.org/1999/xlink" x="0px" y="0px"
	 width="753.818px" height="753.818px" viewBox="0 0 753.818 753.818" enable-background="new 0 0 753.818 753.818"
	 xml:space="preserve">
<g>
	<path fill="#66B8E7" d="M376.909,650.924c-89.687,0-259.357-14.994-259.357-71.709c0-56.668,169.671-71.616,259.357-71.616
		s259.357,14.948,259.357,71.616C636.266,635.93,466.595,650.924,376.909,650.924z M376.909,532.208
		c-151.886,0-234.748,31.049-234.748,47.007c0,16.004,82.862,47.1,234.748,47.1s234.747-31.096,234.747-47.1
		C611.656,563.257,528.795,532.208,376.909,532.208z"/>
	<g>
		<g>
			<path fill="#FFFFFF" d="M526.678,292.167c0,86.901-157.457,269.836-157.457,269.836S211.759,379.068,211.759,292.167
				c0-86.992,70.562-157.36,157.462-157.36C456.123,134.807,526.678,205.176,526.678,292.167z"/>
			<path fill="#66B8E7" d="M369.221,574.313c-3.607,0-6.972-1.542-9.326-4.282c-6.535-7.592-160.441-187.451-160.441-277.864
				c0-93.532,76.139-169.666,169.768-169.666c93.63,0,169.763,76.133,169.763,169.666c0,90.413-153.9,270.272-160.437,277.864
				C376.189,572.771,372.824,574.313,369.221,574.313z M369.221,147.112c-80.03,0-145.157,65.077-145.157,145.056
				c0,63.113,97.328,193.226,145.157,250.757c47.819-57.531,145.153-187.695,145.153-250.757
				C514.375,212.188,449.246,147.112,369.221,147.112z"/>
		</g>
		<path fill="#66B8E7" d="M369.221,398.584c-60.9,0-110.455-49.504-110.455-110.354c0-60.85,49.554-110.359,110.455-110.359
			c60.896,0,110.45,49.509,110.45,110.359C479.672,349.08,430.117,398.584,369.221,398.584z M369.221,202.481
			c-47.342,0-85.845,38.452-85.845,85.749c0,47.292,38.503,85.744,85.845,85.744c47.343,0,85.846-38.453,85.846-85.744
			C455.067,240.934,416.564,202.481,369.221,202.481z"/>
	</g>
</g>
</svg>
