<?xml version="1.0" encoding="UTF-8"?>
<svg width="287px" height="287px" viewBox="0 0 287 287" version="1.1" xmlns="http://www.w3.org/2000/svg" xmlns:xlink="http://www.w3.org/1999/xlink">
    <!-- Generator: Sketch 42 (36781) - http://www.bohemiancoding.com/sketch -->
    <title>Shape</title>
    <desc>Created with Sketch.</desc>
    <defs></defs>
    <g id="Page-1" stroke="none" stroke-width="1" fill="none" fill-rule="evenodd">
        <g id="Animation-culturel" transform="translate(0.000000, -1.000000)" fill-rule="nonzero" fill="#66B8E7">
            <path d="M283.873,137.961 L216.286,70.374 C216.284,70.372 216.283,70.371 216.281,70.369 C216.279,70.367 216.278,70.366 216.276,70.364 L197.795,51.883 C195.721,49.809 192.763,48.877 189.876,49.383 C186.986,49.89 184.525,51.774 183.281,54.431 C182.61,55.866 181.695,57.166 180.562,58.299 C175.23,63.631 166.556,63.631 161.224,58.299 C155.893,52.968 155.893,44.293 161.223,38.963 C162.357,37.83 163.659,36.915 165.093,36.244 C167.751,35 169.635,32.539 170.142,29.649 C170.65,26.759 169.716,23.803 167.642,21.728 L149.547,3.635 C146.032,0.121 140.334,0.121 136.819,3.635 L70.089,70.365 C70.088,70.366 70.086,70.367 70.085,70.369 C70.084,70.371 70.083,70.372 70.081,70.373 L58.762,81.693 C58.605,81.529 58.447,81.368 58.286,81.207 C45.938,68.86 25.843,68.858 13.493,81.207 C1.143,93.557 1.143,113.651 13.493,126.001 C13.653,126.161 13.815,126.319 13.979,126.477 L2.636,137.818 C-0.879,141.333 -0.879,147.032 2.636,150.547 L80.074,227.985 C79.76,228.275 79.45,228.571 79.148,228.874 C73.166,234.856 69.871,242.811 69.871,251.27 C69.871,259.729 73.166,267.684 79.148,273.666 C85.13,279.649 93.085,282.944 101.545,282.944 C110.005,282.944 117.96,279.649 123.941,273.667 C124.244,273.364 124.54,273.056 124.83,272.741 L136.963,284.874 C138.651,286.562 140.94,287.51 143.327,287.51 C145.714,287.51 148.003,286.562 149.691,284.874 L283.873,150.69 C287.388,147.175 287.388,141.476 283.873,137.961 Z M143.183,22.727 L147.612,27.157 C136.155,39.565 136.45,58.982 148.497,71.029 C160.544,83.076 179.96,83.371 192.369,71.914 L197.189,76.734 L181.553,92.37 C179,94.924 178.22,98.755 179.571,102.103 C180.923,105.451 184.144,107.667 187.755,107.733 C191.231,107.796 194.495,109.18 196.947,111.631 C199.467,114.151 200.854,117.5 200.854,121.064 C200.854,124.628 199.466,127.977 196.947,130.497 C194.427,133.018 191.077,134.404 187.514,134.404 C183.951,134.404 180.601,133.017 178.08,130.497 C175.628,128.046 174.244,124.782 174.182,121.308 C174.117,117.698 171.901,114.476 168.553,113.123 C165.204,111.772 161.372,112.552 158.82,115.104 L143.184,130.741 L89.176,76.734 L143.183,22.727 Z M37.016,122.976 C36.341,119.967 34.172,117.514 31.268,116.474 C29.361,115.791 27.663,114.714 26.221,113.272 C20.89,107.941 20.89,99.266 26.221,93.935 C31.553,88.603 40.227,88.603 45.559,93.935 C47.001,95.377 48.079,97.075 48.76,98.98 C49.799,101.884 52.253,104.054 55.262,104.73 C58.272,105.408 61.417,104.494 63.598,102.313 L76.449,89.462 L130.456,143.469 L125.224,148.701 C119.632,144.096 112.679,141.591 105.341,141.591 C96.969,141.591 89.099,144.851 83.18,150.77 C77.26,156.69 74,164.56 74,172.931 C74,180.269 76.505,187.222 81.11,192.814 L75.734,198.19 L21.728,144.183 L34.598,131.313 C36.779,129.131 37.692,125.986 37.016,122.976 Z M143.327,265.782 L129.468,251.923 C127.76,250.216 125.463,249.287 123.104,249.287 C122.404,249.287 121.699,249.369 121.002,249.536 C117.957,250.267 115.511,252.529 114.544,255.509 C113.874,257.572 112.754,259.4 111.214,260.94 C108.631,263.522 105.198,264.945 101.546,264.945 C97.894,264.945 94.46,263.522 91.877,260.939 C89.294,258.357 87.872,254.923 87.872,251.271 C87.872,247.619 89.294,244.185 91.878,241.602 C93.417,240.063 95.244,238.943 97.307,238.273 C100.286,237.307 102.549,234.861 103.281,231.816 C104.013,228.77 103.109,225.563 100.894,223.348 L88.464,210.918 L100.665,198.717 C102.651,196.731 103.596,193.932 103.22,191.149 C102.845,188.367 101.192,185.919 98.75,184.53 C97.708,183.937 96.752,183.21 95.908,182.365 C93.388,179.845 92.001,176.496 92.001,172.932 C92.001,169.368 93.389,166.019 95.909,163.499 C98.429,160.978 101.778,159.592 105.342,159.592 C108.905,159.592 112.255,160.979 114.775,163.499 C115.617,164.342 116.346,165.299 116.941,166.344 C118.33,168.783 120.778,170.436 123.561,170.811 C126.345,171.191 129.142,170.241 131.127,168.256 L143.185,156.198 L149.654,162.667 C148.725,163.406 147.834,164.202 146.985,165.051 C141.066,170.97 137.806,178.84 137.806,187.212 C137.806,195.583 141.066,203.453 146.985,209.373 C159.205,221.592 179.087,221.591 191.307,209.372 C192.156,208.523 192.951,207.633 193.691,206.703 L198.049,211.062 L143.327,265.782 Z M210.775,198.332 L197.456,185.013 C195.097,182.655 191.626,181.793 188.438,182.778 C185.25,183.761 182.868,186.428 182.249,189.707 C181.751,192.34 180.481,194.739 178.577,196.644 C173.375,201.844 164.912,201.846 159.711,196.644 C157.191,194.124 155.804,190.775 155.804,187.211 C155.804,183.647 157.191,180.298 159.711,177.777 C161.615,175.873 164.014,174.603 166.647,174.106 C169.925,173.487 172.592,171.104 173.576,167.917 C174.56,164.729 173.7,161.258 171.34,158.898 L155.91,143.468 L161.23,138.148 C162.412,139.961 163.79,141.663 165.352,143.225 C171.271,149.144 179.142,152.404 187.513,152.404 C195.884,152.404 203.754,149.144 209.674,143.225 C215.594,137.306 218.854,129.436 218.854,121.064 C218.854,112.693 215.594,104.823 209.674,98.903 C208.112,97.341 206.41,95.964 204.597,94.782 L209.917,89.462 L264.781,144.326 L210.775,198.332 Z" id="Shape"></path>
        </g>
    </g>
</svg>