<?xml version="1.0" encoding="UTF-8"?>
<svg width="424px" height="512px" viewBox="0 0 424 512" version="1.1" xmlns="http://www.w3.org/2000/svg" xmlns:xlink="http://www.w3.org/1999/xlink">
    <!-- Generator: Sketch 42 (36781) - http://www.bohemiancoding.com/sketch -->
    <title>Énergies renouvelables</title>
    <desc>Created with Sketch.</desc>
    <defs></defs>
    <g id="Page-1" stroke="none" stroke-width="1" fill="none" fill-rule="evenodd">
        <g id="Énergies-renouvelables" fill-rule="nonzero" fill="#66B8E7">
            <path d="M420.917,2.586 C419.167,0.836 416.604,0 413.339,0 C393.23,0 346.48,31.766 299.573,78.672 C279.104,99.141 261.51,119.578 248.198,137.781 C246.573,137.601 244.948,137.492 243.323,137.492 C234.385,137.492 225.432,140.297 217.917,145.89 C197.276,136.781 171.839,127.874 143.886,120.382 C102.855,109.39 64.98,103.741 38.48,103.741 C16.855,103.741 2.808,107.499 0.761,115.163 C-3.833,132.233 52.855,162.249 127.324,182.202 C155.277,189.694 181.762,194.702 204.183,197.132 C206.261,201.921 209.246,206.413 213.167,210.335 C214.917,212.093 216.792,213.655 218.761,215.046 L200.667,512 L286.011,512 L278.402,393.703 C288.729,412.094 298.636,423 306.339,423 C307.011,423 307.683,422.914 308.323,422.742 C325.401,418.164 323.057,354.086 303.104,279.609 C295.62,251.656 286.698,226.218 277.604,205.578 C284.213,196.687 286.917,185.812 285.698,175.289 C303.917,161.969 324.354,144.391 344.823,123.922 C399.339,69.406 433.417,15.078 420.917,2.586 Z M200.948,175.289 C180.401,172.726 156.885,168.047 132.839,161.601 C103.761,153.805 75.948,143.938 54.542,133.82 C47.667,130.578 42.167,127.656 37.729,125.078 L38.479,125.078 C64.198,125.078 100.604,130.875 138.354,140.992 C162.088,147.351 184.932,155.086 204.167,163.211 C202.511,167.086 201.417,171.156 200.948,175.289 Z M228.245,165.078 C232.276,161.047 237.636,158.828 243.323,158.828 C249.026,158.828 254.386,161.047 258.417,165.078 C266.73,173.398 266.73,186.93 258.417,195.25 C254.386,199.273 249.026,201.492 243.323,201.492 C237.635,201.492 232.276,199.273 228.245,195.25 C219.917,186.93 219.917,173.398 228.245,165.078 Z M223.355,490.664 L236.386,276.617 C237.886,283.031 239.511,289.562 241.292,296.172 C244.98,309.985 249.042,323.18 253.292,335.492 L263.261,490.664 L223.355,490.664 Z M282.511,285.132 C290.292,314.219 295.651,343.234 297.604,366.828 C298.229,374.406 298.448,380.648 298.417,385.773 C295.854,381.351 292.917,375.828 289.667,368.953 C279.542,347.547 269.698,319.742 261.886,290.656 C255.542,266.922 250.808,243.265 248.23,222.539 C252.355,222.062 256.418,220.992 260.277,219.312 C268.418,238.554 276.136,261.406 282.511,285.132 Z M277.589,154.727 C276.355,153.079 274.995,151.493 273.511,149.993 C272.011,148.493 270.417,147.134 268.761,145.907 C281.355,129.251 297.292,111.126 314.652,93.759 C335.949,72.462 358.386,53.314 377.855,39.829 C384.105,35.501 389.402,32.188 393.855,29.649 C391.308,34.094 387.98,39.391 383.667,45.633 C370.183,65.102 351.026,87.547 329.729,108.844 C312.37,126.203 294.245,142.125 277.589,154.727 Z" id="Shape"></path>
        </g>
    </g>
</svg>