<?xml version="1.0" encoding="utf-8"?>
<!-- Generator: Adobe Illustrator 16.0.0, SVG Export Plug-In . SVG Version: 6.00 Build 0)  -->
<!DOCTYPE svg PUBLIC "-//W3C//DTD SVG 1.1//EN" "http://www.w3.org/Graphics/SVG/1.1/DTD/svg11.dtd">
<svg version="1.1" id="Calque_1" xmlns="http://www.w3.org/2000/svg" xmlns:xlink="http://www.w3.org/1999/xlink" x="0px" y="0px"
	 width="753.818px" height="753.818px" viewBox="0 0 753.818 753.818" enable-background="new 0 0 753.818 753.818"
	 xml:space="preserve">
<g>
	<g>
		<g>
			<g>
				<path fill="#FFFFFF" d="M599.565,443.321l-50.226,47.952l-50.523-48.052c0,0-63.772-9.194-65.254,75.835v49.534h231.259
					l0.394-48.843C663.239,434.621,599.565,443.321,599.565,443.321z"/>
			</g>
			<g>
				<path fill="#66B9E8" d="M664.821,581.245H433.562c-6.972,0-12.656-5.685-12.656-12.654v-49.534
					c1.137-65.503,38.213-88.787,72.571-88.787c4.449,0,7.168,0.445,7.168,0.445c2.521,0.395,5.042,1.583,6.922,3.361l41.723,39.696
					l41.526-39.598c1.878-1.829,4.449-3.016,7.02-3.41c0,0,2.472-0.346,6.624-0.346c34.507,0,71.879,23.382,73.411,89.032
					l-0.396,49.239C677.425,575.66,671.791,581.245,664.821,581.245z M446.217,555.935h206.048l0.295-36.285
					c-1.285-55.12-30.205-63.771-47.656-63.92l-46.814,44.688c-4.895,4.647-12.557,4.747-17.5,0l-47.161-44.836
					c-17.204,0-46.271,8.305-47.211,63.672V555.935z"/>
			</g>
		</g>
		<g>
			<g>
				<path fill="#FFFFFF" d="M609.354,340.1c0,36.879-29.166,66.738-65.254,66.738s-65.255-29.859-65.255-66.738
					s29.167-66.737,65.255-66.737S609.354,303.221,609.354,340.1z"/>
			</g>
			<g>
				<path fill="#66B9E8" d="M544.1,419.492c-42.959,0-77.91-35.593-77.91-79.393c0-43.799,34.951-79.393,77.91-79.393
					c42.959,0,77.91,35.594,77.91,79.393C622.01,383.899,587.059,419.492,544.1,419.492z M544.1,286.018
					c-29.019,0-52.599,24.273-52.599,54.082c0,29.81,23.581,54.083,52.599,54.083s52.6-24.273,52.6-54.083
					C596.699,310.291,573.118,286.018,544.1,286.018z"/>
			</g>
		</g>
		<g>
			<g>
				<path fill="#FFFFFF" d="M254.606,445.002l-50.326,47.854l-50.424-48.151c0,0-63.771-9.095-65.254,76.033v49.336H319.86
					l0.396-48.842C318.378,436.104,254.606,445.002,254.606,445.002z"/>
			</g>
			<g>
				<path fill="#66B9E8" d="M319.86,582.729H88.602c-6.97,0-12.655-5.686-12.655-12.655v-49.336
					c1.136-65.651,38.312-88.985,72.67-88.985c4.4,0,7.02,0.446,7.02,0.446c2.571,0.396,5.092,1.582,6.97,3.361l41.724,39.796
					l41.526-39.549c1.878-1.779,4.449-2.966,7.02-3.361c0,0,2.57-0.347,6.822-0.347c34.407,0,71.78,23.333,73.214,88.835
					l-0.396,49.237C332.466,577.143,326.831,582.729,319.86,582.729z M101.258,557.417h206.046l0.297-36.284
					c-1.236-55.121-30.254-63.674-47.655-63.723l-46.915,44.64c-4.944,4.647-12.606,4.598-17.5-0.049l-47.062-44.937
					c-17.253,0.05-46.271,8.452-47.21,63.869V557.417z"/>
			</g>
		</g>
		<g>
			<g>
				<path fill="#FFFFFF" d="M264.395,341.682c0,36.879-29.167,66.738-65.254,66.738c-36.089,0-65.255-29.859-65.255-66.738
					c0-36.78,29.166-66.738,65.255-66.738C235.228,274.943,264.395,304.901,264.395,341.682z"/>
			</g>
			<g>
				<path fill="#66B9E8" d="M199.14,421.075c-42.96,0-77.911-35.594-77.911-79.394c0-43.799,34.951-79.394,77.911-79.394
					c42.958,0,77.91,35.595,77.91,79.394C277.05,385.481,242.099,421.075,199.14,421.075z M199.14,287.6
					c-29.019,0-52.6,24.272-52.6,54.082s23.581,54.083,52.6,54.083c29.018,0,52.598-24.273,52.598-54.083
					S228.158,287.6,199.14,287.6z"/>
			</g>
		</g>
		<g>
			<g>
				<path fill="#FFFFFF" d="M425.652,478.717l-50.226,47.854l-50.523-48.051c0,0-63.771-9.195-65.254,75.932v49.436h231.357
					l0.297-48.742C489.424,469.918,425.652,478.717,425.652,478.717z"/>
			</g>
			<g>
				<path fill="#66B9E8" d="M491.006,616.542H259.648c-6.97,0-12.656-5.685-12.656-12.655v-49.436
					c1.138-65.601,38.214-88.885,72.571-88.885c4.449,0,7.168,0.445,7.168,0.445c2.521,0.395,5.043,1.583,6.921,3.361l41.773,39.747
					l41.476-39.549c1.879-1.829,4.45-3.015,7.02-3.412c0,0,2.521-0.346,6.723-0.346c34.506,0,71.879,23.384,73.313,89.033
					l-0.297,49.14C503.612,610.907,497.976,616.542,491.006,616.542z M272.304,591.231H478.4l0.248-36.187
					c-1.236-55.22-30.205-63.822-47.656-63.919l-46.815,44.59c-4.944,4.646-12.557,4.746-17.5,0l-47.162-44.837
					c-17.204,0-46.271,8.304-47.21,63.771V591.231z"/>
			</g>
		</g>
		<g>
			<g>
				<path fill="#F6F6F6" d="M435.441,375.495c0,36.78-29.266,66.639-65.255,66.639c-36.088,0-65.254-29.858-65.254-66.639
					c0-36.879,29.167-66.737,65.254-66.737C406.175,308.758,435.441,338.616,435.441,375.495z"/>
			</g>
			<g>
				<path fill="#66B9E8" d="M370.186,454.79c-42.96,0-77.91-35.593-77.91-79.295c0-43.8,34.95-79.393,77.91-79.393
					c42.959,0,77.91,35.593,77.91,79.393C448.096,419.197,413.146,454.79,370.186,454.79z M370.186,321.414
					c-29.019,0-52.6,24.273-52.6,54.081c0,29.76,23.581,53.984,52.6,53.984c29.018,0,52.599-24.225,52.599-53.984
					C422.785,345.688,399.204,321.414,370.186,321.414z"/>
			</g>
		</g>
		<g>
			<path fill="#66B9E8" d="M283.082,243.503c-4.004,0-7.959-1.929-10.431-5.486l-51.809-75.439
				c-3.955-5.784-2.472-13.644,3.263-17.6c5.833-3.903,13.645-2.47,17.599,3.264l51.809,75.438
				c3.955,5.784,2.471,13.644-3.263,17.599C288.074,242.763,285.553,243.503,283.082,243.503z"/>
		</g>
		<g>
			<path fill="#66B9E8" d="M374.833,237.57c-0.049,0-0.049,0-0.099,0c-6.97-0.05-12.606-5.734-12.557-12.753l0.692-99.563
				c0.049-6.97,5.686-12.557,12.656-12.557c0.049,0,0.049,0,0.098,0c6.971,0.05,12.606,5.734,12.557,12.754l-0.691,99.562
				C387.439,231.985,381.803,237.57,374.833,237.57z"/>
		</g>
		<g>
			<path fill="#66B9E8" d="M468.265,248.051c-2.323,0-4.597-0.643-6.723-1.929c-5.882-3.706-7.711-11.518-4.004-17.448l50.03-79.988
				c3.708-5.833,11.567-7.563,17.45-4.003c5.883,3.708,7.712,11.518,4.004,17.449l-50.029,79.988
				C476.621,245.926,472.467,248.051,468.265,248.051z"/>
		</g>
	</g>
</g>
</svg>
