<?xml version="1.0" encoding="UTF-8"?>
<svg width="60px" height="46px" viewBox="0 0 60 46" version="1.1" xmlns="http://www.w3.org/2000/svg" xmlns:xlink="http://www.w3.org/1999/xlink">
    <!-- Generator: Sketch 42 (36781) - http://www.bohemiancoding.com/sketch -->
    <title>Shape</title>
    <desc>Created with Sketch.</desc>
    <defs></defs>
    <g id="Page-1" stroke="none" stroke-width="1" fill="none" fill-rule="evenodd">
        <g id="Epanouissement-personnel" fill-rule="nonzero" fill="#66B8E7">
            <path d="M59.698,14.909 C59.475,14.686 59.165,14.586 58.846,14.627 L52.406,15.565 L51.627,6.657 L41.106,11.563 C40.225,11.943 39.351,12.412 38.493,12.957 C37.965,11.865 37.362,10.836 36.671,9.91 L29.995,0.377 L23.336,9.886 C22.638,10.822 22.03,11.859 21.498,12.958 C20.642,12.413 19.773,11.947 18.912,11.576 L8.364,6.657 L7.585,15.565 L1.145,14.627 C0.83,14.586 0.516,14.687 0.293,14.909 C0.069,15.133 -0.035,15.448 0.011,15.761 L1.423,25.456 C2.737,34.472 11.141,42.875 20.155,44.187 L29.205,45.506 L29.21,45.536 L29.261,45.515 L29.85,45.601 C29.899,45.608 29.947,45.612 29.995,45.612 C30.043,45.612 30.091,45.608 30.14,45.601 L30.751,45.512 L30.792,45.529 L30.795,45.506 L39.834,44.188 C48.85,42.875 57.253,34.472 58.565,25.457 L59.978,15.762 C60.026,15.448 59.922,15.133 59.698,14.909 Z M41.925,13.389 L49.884,9.677 L50.425,15.854 L49.151,16.039 C48.647,16.112 48.144,16.216 47.641,16.333 C47.53,16.359 47.419,16.385 47.308,16.414 C46.298,16.669 45.295,17.012 44.304,17.437 C44.228,17.47 44.153,17.503 44.077,17.536 C43.083,17.977 42.106,18.501 41.152,19.105 C41.098,19.139 41.045,19.174 40.991,19.208 C40.826,19.315 40.659,19.416 40.495,19.527 C40.43,19.084 40.35,18.646 40.261,18.21 C40.235,18.082 40.202,17.956 40.174,17.829 C40.102,17.505 40.025,17.183 39.94,16.864 C39.887,16.663 39.829,16.466 39.771,16.268 C39.704,16.043 39.633,15.82 39.56,15.597 C39.481,15.357 39.402,15.118 39.316,14.883 C39.308,14.862 39.302,14.84 39.294,14.818 C40.148,14.253 41.026,13.775 41.925,13.389 Z M10.108,9.677 L18.094,13.402 C18.971,13.779 19.844,14.255 20.698,14.819 C20.689,14.844 20.681,14.87 20.672,14.896 C20.59,15.12 20.514,15.349 20.439,15.577 C20.361,15.81 20.287,16.045 20.217,16.281 C20.161,16.473 20.105,16.664 20.053,16.858 C19.966,17.183 19.887,17.512 19.814,17.842 C19.787,17.965 19.756,18.086 19.73,18.21 C19.64,18.646 19.561,19.085 19.495,19.529 C19.334,19.42 19.17,19.32 19.008,19.216 C18.95,19.178 18.892,19.141 18.833,19.104 C17.881,18.501 16.906,17.979 15.914,17.538 C15.838,17.504 15.763,17.472 15.687,17.439 C14.697,17.013 13.693,16.67 12.683,16.415 C12.572,16.387 12.461,16.36 12.349,16.334 C11.846,16.217 11.343,16.113 10.839,16.04 L9.566,15.854 L10.108,9.677 Z M20.445,42.209 C12.243,41.015 4.598,33.369 3.402,25.167 L2.183,16.799 L7.411,17.56 L7.411,17.56 L10.552,18.017 C11.01,18.084 11.466,18.178 11.919,18.284 C12.084,18.323 12.25,18.369 12.415,18.413 C12.695,18.487 12.973,18.569 13.25,18.657 C13.459,18.724 13.669,18.793 13.878,18.868 C14.079,18.94 14.277,19.021 14.477,19.101 C16.273,19.823 18.031,20.841 19.681,22.143 C22.846,24.642 25.285,27.945 26.618,31.408 C26.643,31.473 26.67,31.538 26.694,31.603 C26.874,32.088 27.026,32.576 27.162,33.065 C27.189,33.164 27.223,33.261 27.248,33.36 C27.394,33.927 27.513,34.494 27.596,35.06 L28.816,43.428 L20.445,42.209 Z M30.776,32.991 C30.629,33.581 30.506,34.174 30.419,34.772 L30.208,36.221 L30.191,36.056 L29.972,37.515 L29.572,34.772 C29.485,34.174 29.362,33.58 29.215,32.99 C29.145,32.707 29.052,32.427 28.968,32.146 C28.881,31.856 28.8,31.565 28.699,31.278 C28.57,30.904 28.419,30.536 28.267,30.168 C28.194,29.992 28.124,29.815 28.046,29.641 C27.857,29.216 27.651,28.798 27.433,28.381 C27.381,28.282 27.329,28.184 27.275,28.086 C27.025,27.626 26.76,27.172 26.476,26.725 C26.459,26.699 26.442,26.673 26.425,26.647 C25.282,24.865 23.871,23.202 22.23,21.714 C22.026,21.528 21.825,21.341 21.616,21.162 C21.526,21.085 21.444,21.001 21.353,20.926 C21.381,20.641 21.411,20.356 21.449,20.074 C21.469,19.925 21.483,19.773 21.507,19.625 C21.588,19.108 21.686,18.596 21.803,18.091 C21.823,18.005 21.848,17.922 21.869,17.837 C21.977,17.397 22.096,16.961 22.231,16.532 C22.262,16.432 22.296,16.334 22.329,16.235 C22.473,15.801 22.628,15.373 22.8,14.952 C23.377,13.534 24.095,12.216 24.959,11.058 L29.997,3.865 L35.052,11.083 C35.788,12.07 36.425,13.173 36.955,14.362 L37,14.47 C37.066,14.621 37.124,14.779 37.187,14.933 C37.362,15.362 37.521,15.799 37.667,16.241 C37.699,16.337 37.732,16.433 37.762,16.53 C37.897,16.958 38.015,17.392 38.122,17.831 C38.143,17.919 38.169,18.005 38.19,18.093 C38.307,18.597 38.404,19.107 38.485,19.623 C38.509,19.774 38.523,19.928 38.544,20.08 C38.582,20.361 38.612,20.644 38.639,20.928 C38.545,21.005 38.462,21.091 38.37,21.17 C38.169,21.342 37.976,21.522 37.78,21.7 C36.129,23.194 34.71,24.865 33.562,26.657 C33.548,26.679 33.533,26.701 33.519,26.723 C33.232,27.174 32.966,27.63 32.714,28.094 C32.663,28.188 32.612,28.283 32.563,28.377 C32.343,28.796 32.136,29.218 31.946,29.646 C31.869,29.817 31.801,29.99 31.729,30.163 C31.576,30.535 31.424,30.905 31.294,31.282 C31.195,31.566 31.114,31.854 31.028,32.141 C30.941,32.422 30.846,32.704 30.776,32.991 Z M56.589,25.167 C55.394,33.369 47.749,41.014 39.547,42.209 L31.179,43.429 L32.398,35.061 C32.48,34.495 32.6,33.928 32.746,33.362 C32.772,33.262 32.806,33.163 32.833,33.063 C32.968,32.576 33.119,32.089 33.299,31.606 C33.323,31.54 33.35,31.475 33.376,31.409 C33.585,30.865 33.816,30.324 34.079,29.791 L34.079,29.791 C35.486,26.933 37.638,24.261 40.299,22.156 L40.312,22.146 C41.962,20.843 43.721,19.825 45.518,19.103 C45.716,19.024 45.914,18.943 46.114,18.871 C46.324,18.795 46.534,18.726 46.744,18.659 C47.02,18.571 47.297,18.49 47.576,18.416 C47.742,18.372 47.908,18.325 48.074,18.286 C48.528,18.18 48.983,18.086 49.441,18.019 L52.582,17.562 L52.582,17.562 L57.81,16.801 L56.589,25.167 Z" id="Shape"></path>
        </g>
    </g>
</svg>