<?xml version="1.0" encoding="utf-8"?>
<!-- Generator: Adobe Illustrator 16.0.0, SVG Export Plug-In . SVG Version: 6.00 Build 0)  -->
<!DOCTYPE svg PUBLIC "-//W3C//DTD SVG 1.1//EN" "http://www.w3.org/Graphics/SVG/1.1/DTD/svg11.dtd">
<svg version="1.1" id="Calque_1" xmlns="http://www.w3.org/2000/svg" xmlns:xlink="http://www.w3.org/1999/xlink" x="0px" y="0px"
	 width="753.818px" height="753.818px" viewBox="0 0 753.818 753.818" enable-background="new 0 0 753.818 753.818"
	 xml:space="preserve">
<g>
	<path fill="#66B8E7" d="M378.719,643.574c-121.216,0-219.809-98.632-219.809-219.887c0-121.216,98.592-219.847,219.809-219.847
		c121.25,0,219.881,98.631,219.881,219.847C598.6,544.942,499.969,643.574,378.719,643.574z M378.719,224.864
		c-109.601,0-198.784,89.189-198.784,198.823S269.119,622.55,378.719,622.55c109.634,0,198.856-89.229,198.856-198.862
		S488.353,224.864,378.719,224.864z"/>
	<g>
		<path fill="#FFFFFF" d="M457.845,220.271c0,43.769-35.399,79.164-79.126,79.164c-43.692,0-79.047-35.395-79.047-79.164
			c0-43.571,35.355-78.965,79.047-78.965C422.446,141.306,457.845,176.7,457.845,220.271z"/>
		<path fill="#66B8E7" d="M378.719,309.947c-49.4,0-89.56-40.242-89.56-89.676c0-49.318,40.159-89.478,89.56-89.478
			c49.435,0,89.637,40.159,89.637,89.478C468.356,269.705,428.154,309.947,378.719,309.947z M378.719,151.817
			c-37.779,0-68.536,30.712-68.536,68.454c0,37.856,30.757,68.652,68.536,68.652c37.818,0,68.614-30.796,68.614-68.652
			C447.334,182.53,416.538,151.817,378.719,151.817z"/>
	</g>
	<g>
		<path fill="#FFFFFF" d="M261.363,497.065c0,43.648-35.438,79.125-79.126,79.125c-43.687,0-79.086-35.477-79.086-79.125
			c0-43.692,35.399-79.125,79.086-79.125C225.924,417.94,261.363,453.373,261.363,497.065z"/>
		<path fill="#66B8E7" d="M182.237,586.703c-49.395,0-89.598-40.203-89.598-89.638c0-49.439,40.203-89.637,89.598-89.637
			c49.44,0,89.637,40.197,89.637,89.637C271.874,546.5,231.677,586.703,182.237,586.703z M182.237,428.453
			c-37.817,0-68.575,30.794-68.575,68.612s30.757,68.614,68.575,68.614c37.818,0,68.614-30.796,68.614-68.614
			S220.055,428.453,182.237,428.453z"/>
	</g>
	<g>
		<path fill="#FFFFFF" d="M650.668,502.852c0,43.57-35.394,79.049-79.081,79.049c-43.775,0-79.131-35.479-79.131-79.049
			c0-43.77,35.355-79.164,79.131-79.164C615.274,423.688,650.668,459.082,650.668,502.852z"/>
		<path fill="#66B8E7" d="M571.587,592.412c-49.445,0-89.643-40.16-89.643-89.561c0-49.435,40.197-89.676,89.643-89.676
			c49.39,0,89.593,40.241,89.593,89.676C661.179,552.252,620.976,592.412,571.587,592.412z M571.587,434.199
			c-37.818,0-68.62,30.796-68.62,68.652c0,37.779,30.802,68.536,68.62,68.536c37.812,0,68.569-30.757,68.569-68.536
			C640.156,464.995,609.399,434.199,571.587,434.199z"/>
	</g>
</g>
</svg>
