<?xml version="1.0" encoding="utf-8"?>
<!-- Generator: Adobe Illustrator 16.0.0, SVG Export Plug-In . SVG Version: 6.00 Build 0)  -->
<!DOCTYPE svg PUBLIC "-//W3C//DTD SVG 1.1//EN" "http://www.w3.org/Graphics/SVG/1.1/DTD/svg11.dtd">
<svg version="1.1" id="Calque_1" xmlns="http://www.w3.org/2000/svg" xmlns:xlink="http://www.w3.org/1999/xlink" x="0px" y="0px"
	 width="753.818px" height="753.818px" viewBox="0 0 753.818 753.818" enable-background="new 0 0 753.818 753.818"
	 xml:space="preserve">
<g>
	<path fill="#66B8E7" d="M376.958,682.974c-3.733,0-7.177-1.675-9.568-4.544c-7.987-9.997-196.589-245.427-196.589-362.711
		c0-120.967,92.506-219.358,206.157-219.358c113.647,0,206.06,98.391,206.06,219.358c0,117.285-188.507,352.714-196.495,362.711
		C384.178,681.299,380.687,682.974,376.958,682.974z M376.958,120.851c-100.161,0-181.667,87.437-181.667,194.868
		c0,94.469,142.971,285.27,181.667,335.208c38.649-49.938,181.569-240.738,181.569-335.208
		C558.527,208.288,477.068,120.851,376.958,120.851z"/>
	<path fill="#66B8E7" d="M511.557,310.552c0,79.402-60.317,143.689-134.6,143.689c-74.379,0-134.6-64.287-134.6-143.689
		c0-79.496,60.221-143.783,134.6-143.783C451.24,166.77,511.557,231.056,511.557,310.552z"/>
	<g>
		<path fill="#FFFFFF" d="M380.594,396.028c-44.484,0-80.692-38.409-80.692-85.572c0-47.114,36.208-85.476,80.692-85.476
			c23.246,0,45.345,10.668,60.745,29.179c3.443,4.162,2.872,10.332-1.339,13.822c-4.113,3.397-10.284,2.919-13.775-1.291
			c-11.623-14.062-28.271-22.098-45.631-22.098c-33.675,0-61.082,29.56-61.082,65.864c0,36.354,27.407,65.961,61.082,65.961
			c16.261,0,31.616-6.888,43.239-19.372c3.683-3.923,9.854-4.257,13.87-0.479c3.925,3.684,4.163,9.901,0.48,13.872
			C422.781,386.941,402.356,396.028,380.594,396.028z"/>
		<path fill="#FFFFFF" d="M380.594,312.705h-91.646c-5.408,0-9.807-4.401-9.807-9.806c0-5.404,4.399-9.805,9.807-9.805h91.646
			c5.404,0,9.804,4.401,9.804,9.805C390.397,308.304,385.998,312.705,380.594,312.705z"/>
		<path fill="#FFFFFF" d="M380.594,336.143h-91.646c-5.408,0-9.807-4.401-9.807-9.805c0-5.405,4.399-9.805,9.807-9.805h91.646
			c5.404,0,9.804,4.4,9.804,9.805C390.397,331.742,385.998,336.143,380.594,336.143z"/>
	</g>
</g>
</svg>
