<?xml version="1.0" encoding="utf-8"?>
<!-- Generator: Adobe Illustrator 16.0.0, SVG Export Plug-In . SVG Version: 6.00 Build 0)  -->
<!DOCTYPE svg PUBLIC "-//W3C//DTD SVG 1.1//EN" "http://www.w3.org/Graphics/SVG/1.1/DTD/svg11.dtd">
<svg version="1.1" id="Calque_1" xmlns="http://www.w3.org/2000/svg" xmlns:xlink="http://www.w3.org/1999/xlink" x="0px" y="0px"
	 width="753.818px" height="753.818px" viewBox="0 0 753.818 753.818" enable-background="new 0 0 753.818 753.818"
	 xml:space="preserve">
<g>
	<path fill="#66B8E7" d="M547.917,576.126c-6.822,0-12.773-4.968-13.809-11.9c-1.146-7.643,4.094-14.794,11.736-15.885
		c41.375-6.113,51.42-12.883,53.002-14.193c8.025-13.265-18.559-106.335-88.813-238.6c-3.601-6.823-1.036-15.284,5.789-18.887
		c6.767-3.548,15.282-1.037,18.887,5.786c29.695,55.843,123.203,240.511,81.605,273.536c-3.711,3.003-15.338,12.446-66.323,19.979
		C549.284,576.07,548.573,576.126,547.917,576.126z"/>
	<path fill="#66B8E7" d="M371.574,586.879c-70.527,0-190.862-4.367-212.507-33.517c-7.288-9.716-11.79-28.658,10.398-95.637
		c2.402-7.26,10.346-11.354,17.661-8.843c7.34,2.456,11.299,10.317,8.869,17.686c-19.27,58.081-14.437,70.035-14.219,70.527
		c8.571,10.262,86.355,24.455,225.881,21.452c0.083,0,0.193,0,0.3,0c7.588,0,13.812,6.06,13.975,13.647
		c0.166,7.752-5.948,14.139-13.674,14.301C399.222,586.715,386.505,586.879,371.574,586.879z"/>
	<path fill="#66B8E7" d="M245.615,326.553c-2.075,0-4.149-0.437-6.141-1.418c-6.932-3.385-9.797-11.736-6.414-18.669
		c38.646-79.096,109.83-210.815,155.326-210.815c0.493,0,0.983,0,1.446,0.055c12.2,0.874,33.299,9.443,77.241,73.365
		c4.367,6.387,2.783,15.067-3.604,19.434c-6.387,4.312-15.011,2.729-19.433-3.604c-40.749-59.335-55.952-61.301-56.087-61.355
		c-14.002,0.492-65.121,62.829-129.78,195.148C255.741,323.66,250.773,326.553,245.615,326.553z"/>
	<path fill="#66B8E7" d="M554.03,658.114c-3,0-6.003-0.982-8.623-2.946l-93.343-72.711c-3.276-2.565-5.24-6.441-5.351-10.59
		c-0.11-4.203,1.637-8.188,4.75-10.917l88.976-78.277c5.786-5.132,14.575-4.586,19.705,1.255c5.133,5.786,4.532,14.63-1.254,19.706
		l-76.312,67.142l80.079,62.339c6.059,4.75,7.149,13.537,2.402,19.598C562.329,656.259,558.179,658.114,554.03,658.114z"/>
	<path fill="#66B8E7" d="M502.72,267.162c-1.201,0-2.402-0.164-3.493-0.437l-106.581-27.84c-7.481-1.964-11.955-9.607-9.991-17.085
		c1.938-7.479,9.663-11.737,17.033-9.99l89.767,23.473l3.876-94.763c0.328-7.697,6.114-14.028,14.521-13.429
		c7.75,0.328,13.757,6.824,13.429,14.521l-4.585,112.121c-0.221,4.258-2.292,8.188-5.679,10.7
		C508.614,266.235,505.669,267.162,502.72,267.162z"/>
	<path fill="#66B8E7" d="M276.948,469.899c-5.323,0-10.398-3.059-12.718-8.188l-39.713-87.612l-75.547,57.644
		c-6.142,4.748-14.903,3.547-19.598-2.62c-4.695-6.114-3.494-14.903,2.62-19.543l89.524-68.343c3.383-2.674,7.723-3.494,11.9-2.457
		c4.119,1.038,7.56,3.877,9.307,7.752l46.943,103.605c3.193,7.043,0.083,15.34-6.959,18.506
		C280.851,469.517,278.884,469.899,276.948,469.899z"/>
</g>
</svg>
