<?xml version="1.0" encoding="utf-8"?>
<!-- Generator: Adobe Illustrator 16.0.0, SVG Export Plug-In . SVG Version: 6.00 Build 0)  -->
<!DOCTYPE svg PUBLIC "-//W3C//DTD SVG 1.1//EN" "http://www.w3.org/Graphics/SVG/1.1/DTD/svg11.dtd">
<svg version="1.1" id="Calque_1" xmlns="http://www.w3.org/2000/svg" xmlns:xlink="http://www.w3.org/1999/xlink" x="0px" y="0px"
	 width="753.818px" height="753.818px" viewBox="0 0 753.818 753.818" enable-background="new 0 0 753.818 753.818"
	 xml:space="preserve">
<g>
	<path fill="#66B9E8" stroke="#66B9E8" stroke-width="0.25" stroke-miterlimit="10" d="M376.909,569.753
		c3.167,0,5.786-2.737,5.786-6.177v-84.049c41.634-4.066,74.472-52.149,74.472-110.632c0-59.421-72.557-162.155-75.684-166.455
		c-0.039-0.156-0.117-0.156-0.195-0.234c-1.056-1.329-2.619-2.229-4.379-2.229c-1.758,0-3.244,0.899-4.377,2.229
		c-0.079,0.078-0.157,0.078-0.196,0.234c-3.128,4.3-75.683,107.034-75.683,166.455c0,58.482,32.837,106.565,74.471,110.632v84.049
		C371.124,567.016,373.743,569.753,376.909,569.753z M327.692,301.891l43.432,29.711v70.249l-61.805-45.27
		C311.821,340.046,318.896,320.812,327.692,301.891z M444.5,356.581l-61.805,45.27v-70.249l43.432-29.711
		C434.922,320.812,441.999,340.046,444.5,356.581z M382.695,317.059v-91.944c9.968,15.129,25.059,39.717,38.115,65.831
		L382.695,317.059z M371.124,317.059l-38.193-26.113c13.135-26.114,28.303-50.702,38.193-65.831V317.059z M382.695,467.291v-50.624
		l62.899-46.051C444.969,421.592,417.487,463.147,382.695,467.291z M308.224,370.616l62.899,46.051v50.624
		C336.331,463.147,308.85,421.592,308.224,370.616z"/>
	<path fill="#66B9E8" stroke="#66B9E8" stroke-width="0.25" stroke-miterlimit="10" d="M475.852,572.41
		c-30.258,16.771-64.424,25.684-98.943,25.684c-117.003,0-212.271-100.076-212.271-223.178c0-47.341,13.957-92.61,40.305-130.881
		c1.916-2.659,1.329-6.528-1.251-8.444c-2.619-1.993-6.255-1.407-8.132,1.329c-27.794,40.344-42.493,88.075-42.493,137.996
		c0,129.748,100.39,235.336,223.843,235.336c36.356,0,72.439-9.265,104.416-27.091c2.814-1.563,3.91-5.238,2.424-8.209
		C482.185,571.98,478.706,570.847,475.852,572.41z"/>
	<path fill="#66B9E8" stroke="#66B9E8" stroke-width="0.25" stroke-miterlimit="10" d="M274.292,178.673
		c0.899,0,1.877-0.156,2.736-0.742c30.492-17.045,65.011-26.114,99.881-26.114c117.082,0,212.271,100.076,212.271,223.1
		c0,48.827-14.775,95.346-42.648,134.282c-1.955,2.658-1.408,6.45,1.094,8.443c1.016,0.821,2.307,1.213,3.479,1.213
		c1.759,0,3.479-0.743,4.612-2.385c29.437-40.93,45.035-89.912,45.035-141.554c0-129.748-100.467-235.336-223.843-235.336
		c-36.707,0-73.142,9.5-105.354,27.678c-2.814,1.564-3.83,5.276-2.346,8.247C270.226,177.578,272.22,178.673,274.292,178.673z"/>
	<path fill="#66B9E8" stroke="#66B9E8" stroke-width="0.25" stroke-miterlimit="10" d="M189.774,206.428l54.26-10.478v54.183
		c0,3.401,2.58,6.06,5.786,6.06s5.786-2.658,5.786-6.06V188.68c0-1.837-0.742-3.557-2.072-4.652c-1.368-1.25-3.049-1.642-4.73-1.328
		l-61.062,11.845c-3.127,0.548-5.238,3.713-4.691,6.997C183.637,204.864,186.686,207.093,189.774,206.428z"/>
	<path fill="#66B9E8" stroke="#66B9E8" stroke-width="0.25" stroke-miterlimit="10" d="M564.397,555.054l-55.121,2.229l7.389-53.714
		c0.391-3.36-1.76-6.294-4.926-6.841c-3.127-0.43-6.098,1.877-6.489,5.121l-8.444,60.828c-0.234,1.876,0.312,3.636,1.407,5.003
		c1.095,1.252,2.737,2.073,4.3,2.073c0.079,0,0.157,0,0.234,0l62.079-2.542c3.128-0.156,5.629-2.971,5.473-6.372
		C570.26,557.517,567.641,554.818,564.397,555.054z"/>
</g>
</svg>
