<?xml version="1.0" encoding="utf-8"?>
<!-- Generator: Adobe Illustrator 16.0.0, SVG Export Plug-In . SVG Version: 6.00 Build 0)  -->
<!DOCTYPE svg PUBLIC "-//W3C//DTD SVG 1.1//EN" "http://www.w3.org/Graphics/SVG/1.1/DTD/svg11.dtd">
<svg version="1.1" id="Calque_1" xmlns="http://www.w3.org/2000/svg" xmlns:xlink="http://www.w3.org/1999/xlink" x="0px" y="0px"
	 width="753.818px" height="753.818px" viewBox="0 0 753.818 753.818" enable-background="new 0 0 753.818 753.818"
	 xml:space="preserve">
<g>
	<g>
		<path fill="#66B8E7" d="M580.432,298.392H203.808c-5.825,0-10.579-4.773-10.579-10.599c0-5.843,4.754-10.597,10.579-10.597
			h376.625c5.842,0,10.598,4.754,10.598,10.597C591.03,293.619,586.274,298.392,580.432,298.392z"/>
		<path fill="#66B8E7" d="M460.716,298.392H317.832c-5.846,0-10.599-4.773-10.599-10.599V246.51c0-5.844,4.752-10.598,10.599-10.598
			h142.884c5.826,0,10.599,4.753,10.599,10.598v41.283C471.314,293.619,466.542,298.392,460.716,298.392z M328.411,277.196h121.707
			v-20.106H328.411V277.196z"/>
		<path fill="#66B8E7" d="M491.74,612.874H293.592c-5.3,0-9.81-3.927-10.523-9.189l-42.524-314.481
			c-0.414-3.025,0.545-6.088,2.517-8.361c2.03-2.312,4.924-3.646,7.987-3.646h283.309c3.062,0,5.956,1.333,7.983,3.646
			c1.976,2.273,2.932,5.336,2.519,8.361l-42.616,314.481C501.51,608.947,497.039,612.874,491.74,612.874z M302.856,591.696h179.62
			l39.761-293.304H263.169L302.856,591.696z"/>
		<path fill="#66B8E7" d="M350.094,568.021c-5.823,0-10.598-4.755-10.598-10.579V338.585c0-5.825,4.775-10.58,10.598-10.58
			c5.825,0,10.598,4.754,10.598,10.58v218.856C360.692,563.266,355.919,568.021,350.094,568.021z"/>
		<path fill="#66B8E7" d="M441.099,568.021c-5.827,0-10.58-4.755-10.58-10.579V338.585c0-5.825,4.753-10.58,10.58-10.58
			c5.843,0,10.596,4.754,10.596,10.58v218.856C451.695,563.266,446.942,568.021,441.099,568.021z"/>
	</g>
	<g>
		<path fill="#FFFFFF" d="M387.488,293.919c0,69.414-56.258,125.673-125.766,125.673c-69.414,0-125.748-56.259-125.748-125.673
			c0-69.582,56.334-125.841,125.748-125.841C331.23,168.078,387.488,224.337,387.488,293.919z"/>
		<path fill="#66B8E7" d="M261.722,430.19c-75.164,0-136.346-61.146-136.346-136.271c0-75.257,61.183-136.439,136.346-136.439
			c75.182,0,136.365,61.183,136.365,136.439C398.087,369.045,336.904,430.19,261.722,430.19z M261.722,178.657
			c-63.494,0-115.168,51.711-115.168,115.262c0,63.458,51.674,115.094,115.168,115.094c63.512,0,115.187-51.636,115.187-115.094
			C376.909,230.369,325.234,178.657,261.722,178.657z"/>
	</g>
	<g>
		<path fill="#66B8E7" d="M192.064,374.08c-2.725,0-5.411-1.033-7.497-3.101c-4.134-4.133-4.134-10.823,0-14.976l139.333-139.333
			c4.135-4.134,10.843-4.134,14.976,0c4.153,4.151,4.153,10.842,0,14.976L199.543,370.979
			C197.476,373.047,194.789,374.08,192.064,374.08z"/>
		<path fill="#66B8E7" d="M331.398,374.08c-2.725,0-5.432-1.033-7.498-3.101L184.567,231.647c-4.134-4.134-4.134-10.825,0-14.976
			c4.152-4.134,10.842-4.134,14.976,0l139.333,139.333c4.153,4.152,4.153,10.843,0,14.976
			C336.809,373.047,334.123,374.08,331.398,374.08z"/>
	</g>
</g>
</svg>
