<?xml version="1.0" encoding="utf-8"?>
<!-- Generator: Adobe Illustrator 16.0.0, SVG Export Plug-In . SVG Version: 6.00 Build 0)  -->
<!DOCTYPE svg PUBLIC "-//W3C//DTD SVG 1.1//EN" "http://www.w3.org/Graphics/SVG/1.1/DTD/svg11.dtd">
<svg version="1.1" id="Calque_1" xmlns="http://www.w3.org/2000/svg" xmlns:xlink="http://www.w3.org/1999/xlink" x="0px" y="0px"
	 width="453px" height="453px" viewBox="130.409 170.409 453 453" enable-background="new 130.409 170.409 453 453"
	 xml:space="preserve">
<g>
	<polygon fill="#FF8F54" points="286.465,314.244 416.984,385.733 425.654,458.828 295.149,390.369 	"/>
	<path fill="#64B9EA" d="M375.224,488.14c0.38,3.224-1.922,6.148-5.149,6.53c-3.222,0.382-6.146-1.923-6.531-5.146
		c-0.38-3.228,1.924-6.148,5.149-6.531C371.916,482.61,374.843,484.912,375.224,488.14z"/>
	<g>
		<g>
			<path fill="#64B9EA" d="M323.946,507.875c-9.806,0-18.129-7.826-19.359-18.203l-20.896-176.325
				c-0.64-5.413,0.727-10.739,3.852-15c3.151-4.297,7.709-6.999,12.832-7.605l87.349-10.354c0.712-0.083,1.435-0.126,2.147-0.126
				c9.806,0,18.129,7.826,19.361,18.204l20.897,176.327c1.328,11.216-6.158,21.355-16.688,22.602l-87.347,10.354
				C325.382,507.832,324.659,507.875,323.946,507.875z M389.871,283.735c-0.576,0-1.162,0.035-1.739,0.104l-87.348,10.353
				c-4.157,0.493-7.865,2.698-10.44,6.209c-2.603,3.549-3.74,8.002-3.204,12.537l20.896,176.324
				c1.023,8.632,7.864,15.14,15.911,15.14c0.576,0,1.161-0.035,1.739-0.104l87.348-10.353c8.629-1.022,14.751-9.431,13.648-18.744
				l-20.896-176.327C404.76,290.243,397.918,283.735,389.871,283.735z"/>
		</g>
		<g>
			<line fill="#F6F6F6" x1="427.746" y1="469.454" x2="305.655" y2="483.921"/>
			
				<rect x="364.961" y="415.216" transform="matrix(0.1177 0.993 -0.993 0.1177 796.8971 56.4153)" fill="#64B9EA" width="3.475" height="122.945"/>
		</g>
		<g>
			
				<rect x="334.135" y="296.693" transform="matrix(0.9931 -0.1177 0.1177 0.9931 -32.6404 43.1473)" fill="#00A19A" width="29.872" height="2.589"/>
			
				<rect x="346.04" y="281.315" transform="matrix(0.1179 0.993 -0.993 0.1179 603.8224 -83.7836)" fill="#64B9EA" width="6.063" height="33.344"/>
		</g>
	</g>
	<path fill="#0F7782" d="M376.726,383.285l-1.354-11.425c-0.671-5.679-5.839-9.749-11.511-9.077l-11.771,1.395
		c-5.672,0.671-9.745,5.836-9.07,11.515l1.352,11.427c0.674,5.679,5.839,9.748,11.511,9.075l11.769-1.395
		C373.327,394.127,377.399,388.964,376.726,383.285z"/>
	<path fill="#913D88" d="M358.217,387.664l-0.719-6.067c-0.385-3.256-3.349-5.595-6.607-5.209l-6.246,0.742
		c-3.258,0.387-5.594,3.352-5.208,6.611l0.717,6.065c0.387,3.258,3.354,5.595,6.61,5.204l6.247-0.738
		C356.268,393.885,358.604,390.924,358.217,387.664z"/>
	<path fill="#F9E63A" d="M379.604,362.496c-0.061-0.52-0.533-0.891-1.054-0.831l-10.544,1.25c-0.52,0.062-0.893,0.534-0.831,1.055
		l3.183,26.854c0.061,0.521,0.534,0.895,1.054,0.832l10.545-1.251c0.522-0.059,0.893-0.533,0.829-1.054L379.604,362.496z"/>
	<path fill="#64B9EA" d="M375.56,385.399l-0.999-8.429c-0.512-4.324-4.448-7.424-8.771-6.911l-8.678,1.029
		c-4.323,0.511-7.422,4.444-6.91,8.768l0.999,8.43c0.512,4.323,4.446,7.424,8.768,6.91l8.677-1.028
		C372.97,393.657,376.075,389.725,375.56,385.399z"/>
	<path fill="#E00B6C" d="M390.658,384.446c-0.208-0.206-0.495-0.307-0.784-0.271l-53.325,6.319l-13.093-27.241
		c-0.174-0.364-0.563-0.578-0.969-0.532l-15.265,1.811c-0.267,0.032-0.51,0.173-0.663,0.392c-0.158,0.217-0.215,0.491-0.158,0.752
		l0.66,3.041c0.104,0.477,0.545,0.795,1.029,0.746l12.061-1.256l25.201,53.118c0.178,0.369,0.565,0.583,0.97,0.536l40.281-4.774
		c0.438-0.053,0.787-0.396,0.835-0.836l3.493-31.025C390.968,384.935,390.864,384.646,390.658,384.446z"/>
	<g>
		<path fill="#FFFFFF" d="M361.532,393.642c3.482-2.298,20.561-4.661,21.98-2.604c1.425,2.058-0.529,17.277-1.506,18.545
			c-0.975,1.269-16.214,4.192-18.329,2.172C361.559,409.736,358.05,395.938,361.532,393.642z"/>
		<path fill="#FFFFFF" d="M371.473,413.108c-6.899,0.816-8.069-0.296-8.448-0.662c-1.913-1.823-4.313-10.462-3.858-15.52
			c0.181-2.019,0.803-3.392,1.84-4.077c2.102-1.387,7.934-2.587,12.782-3.161c9.195-1.09,10.18,0.337,10.507,0.807
			c0.781,1.135,0.886,4.568,0.308,10.209c-0.035,0.331-0.845,8.158-1.841,9.46C381.633,411.63,373.569,412.86,371.473,413.108z
			 M374.012,391.577c-5.301,0.628-10.438,1.858-11.96,2.857c-0.516,0.346-0.871,1.289-0.993,2.66
			c-0.437,4.875,1.999,12.757,3.274,13.973c0.31,0.3,2.16,0.714,6.915,0.153c4.733-0.562,9.242-1.728,10.016-2.247
			c0.996-1.914,2.448-15.932,1.468-17.396C382.327,391.254,379.567,390.921,374.012,391.577z"/>
	</g>
	<g>
		<path fill="#FFFFFF" d="M362.721,374.293c0,0,7.107-1.411,8.441,2.822C372.493,381.346,362.721,374.293,362.721,374.293"/>
		<path fill="#FFFFFF" d="M370.774,378.929c-2.035,0.243-7.692-3.79-8.334-4.25c-0.153-0.112-0.228-0.301-0.185-0.49
			c0.043-0.183,0.188-0.326,0.375-0.362c0,0,0.313-0.065,0.821-0.124c2.07-0.247,7.004-0.417,8.166,3.268
			c0.205,0.65,0.193,1.14-0.032,1.492C371.464,378.646,371.229,378.875,370.774,378.929z M363.99,374.604
			c2.341,1.59,5.579,3.51,6.672,3.381c0.073-0.009,0.114-0.027,0.121-0.04c0.005-0.007,0.093-0.151-0.077-0.688
			C369.829,374.464,366.003,374.42,363.99,374.604z"/>
	</g>
	<g>
		<path fill="#FFFFFF" d="M373.015,364.705c0,0,3.621-1.468,4.581,0.495c0.964,1.966,0.988,9.235,1.155,9.737
			C378.908,375.442,373.015,364.705,373.015,364.705z"/>
		<path fill="#FFFFFF" d="M378.808,375.425c-0.138,0.017-0.232,0.029-0.503-0.345l-0.006,0.002c-0.007-0.01-0.008-0.016-0.011-0.027
			c-0.556-0.778-1.85-3.134-5.688-10.122c-0.067-0.118-0.078-0.26-0.032-0.389c0.044-0.126,0.145-0.229,0.27-0.28
			c0.039-0.016,0.976-0.394,2.05-0.52c1.974-0.234,2.794,0.552,3.133,1.246c0.676,1.379,0.899,4.77,1.073,8.125
			c0.037,0.759,0.08,1.542,0.109,1.689c0.032,0.123,0.021,0.297-0.052,0.405C379.075,375.329,378.949,375.409,378.808,375.425z
			 M373.707,364.97c1.445,2.634,3.301,5.989,4.425,7.987c-0.118-2.291-0.338-6.268-0.961-7.545
			c-0.301-0.614-1.033-0.858-2.169-0.722C374.51,364.748,374.039,364.87,373.707,364.97z"/>
	</g>
	<g>
		<polygon fill="#FFFFFF" points="386.669,415.768 346.445,422.029 345.387,420.1 387.046,414.229 		"/>
		<path fill="#FFFFFF" d="M346.554,422.971c-0.386,0.047-0.759-0.146-0.944-0.485l-1.06-1.926c-0.146-0.275-0.152-0.605-0.013-0.884
			c0.141-0.278,0.41-0.473,0.715-0.516l41.659-5.873l0.021-0.003c0.304-0.036,0.61,0.078,0.815,0.309
			c0.209,0.23,0.293,0.555,0.22,0.861l-0.375,1.538c-0.09,0.37-0.399,0.655-0.777,0.714l-40.229,6.262L346.554,422.971z
			 M346.883,420.854l0.073,0.134l9.825-1.532L346.883,420.854z"/>
	</g>
	<g>
		<path fill="#E00B6C" d="M393.475,419.815c0.281,2.375-2.462,4.649-6.122,5.082l-41.162,4.878
			c-3.663,0.434-6.858-1.136-7.141-3.508l-0.009-0.072c-0.279-2.372,2.463-4.646,6.122-5.079l41.167-4.878
			c3.658-0.435,6.857,1.136,7.138,3.505L393.475,419.815z"/>
		<path fill="#E00B6C" d="M387.465,425.844l-41.163,4.878c-4.247,0.504-7.847-1.406-8.197-4.341c-0.355-3.011,2.7-5.706,6.945-6.21
			l41.167-4.878c4.248-0.504,7.847,1.403,8.193,4.342C394.769,422.643,391.714,425.343,387.465,425.844z M345.276,422.061
			c-3.08,0.366-5.502,2.208-5.287,4.021c0.222,1.888,3.007,3.115,6.09,2.747l41.163-4.877c3.08-0.364,5.504-2.207,5.288-4.022
			c-0.223-1.888-3.011-3.112-6.091-2.748L345.276,422.061z"/>
	</g>
	<path fill="#FFFFFF" d="M385.17,416.713l-39.073,4.632c-4.125,0.49-7.033,2.59-6.755,4.943c0.275,2.297,3.591,3.662,7.718,3.172
		l39.071-4.631c4.125-0.488,7.032-2.589,6.75-4.938C392.609,417.591,389.295,416.225,385.17,416.713z"/>
	<g>
		<path fill="#E00B6C" d="M357.702,433.274c0.324,2.72-1.623,5.181-4.338,5.504c-2.717,0.319-5.182-1.618-5.503-4.339
			c-0.322-2.717,1.621-5.181,4.336-5.499C354.914,428.617,357.383,430.557,357.702,433.274z"/>
		<path fill="#E00B6C" d="M353.475,439.721c-3.231,0.384-6.175-1.935-6.555-5.17c-0.385-3.231,1.936-6.175,5.169-6.558
			c3.234-0.385,6.174,1.936,6.558,5.167C359.028,436.396,356.711,439.338,353.475,439.721z M352.312,429.883
			c-2.191,0.259-3.764,2.255-3.503,4.444c0.259,2.19,2.254,3.764,4.445,3.505c2.191-0.261,3.763-2.255,3.502-4.448
			C356.497,431.193,354.502,429.623,352.312,429.883z"/>
	</g>
	<g>
		<path fill="#E00B6C" d="M389.385,429.646c0.323,2.716-1.62,5.177-4.335,5.501c-2.716,0.321-5.18-1.618-5.502-4.333
			c-0.32-2.719,1.619-5.183,4.335-5.504C386.601,424.985,389.065,426.928,389.385,429.646z"/>
		<path fill="#E00B6C" d="M385.163,436.092c-3.233,0.383-6.178-1.935-6.559-5.168c-0.384-3.236,1.935-6.177,5.168-6.561
			c3.233-0.382,6.176,1.935,6.559,5.169C390.715,432.767,388.396,435.71,385.163,436.092z M383.994,426.254
			c-2.188,0.26-3.763,2.255-3.503,4.448c0.259,2.187,2.257,3.758,4.446,3.5c2.193-0.26,3.765-2.254,3.505-4.445
			C388.181,427.564,386.187,425.994,383.994,426.254z"/>
	</g>
	<path fill="none" d="M287.435,326.029"/>
</g>
</svg>
