<?xml version="1.0" encoding="utf-8"?>
<!-- Generator: Adobe Illustrator 19.1.0, SVG Export Plug-In . SVG Version: 6.00 Build 0)  -->
<svg version="1.1" id="Capa_1" xmlns="http://www.w3.org/2000/svg" xmlns:xlink="http://www.w3.org/1999/xlink" x="0px" y="0px"
	 viewBox="-17 140.9 561 561" style="enable-background:new -17 140.9 561 561;" xml:space="preserve">
<style type="text/css">
	.st0{fill:#404040;}
</style>
<g>
	<g id="gps-fixed">
		<path class="st0" d="M263.5,319.4c-56.1,0-102,45.9-102,102s45.9,102,102,102s102-45.9,102-102S319.6,319.4,263.5,319.4z
			 M490.5,395.9C477.7,288.8,393.5,204.6,289,194.4v-53.6h-51v53.6C130.9,204.6,46.8,288.8,36.5,395.9H-17v51h53.5
			C49.3,554,133.4,638.1,238,648.3v53.5h51v-53.5c107.1-12.8,191.2-96.9,201.5-201.5H544v-51H490.5z M263.5,599.9
			c-99.4,0-178.5-79-178.5-178.5s79.1-178.5,178.5-178.5S442,321.9,442,421.4S363,599.9,263.5,599.9z"/>
	</g>
</g>
</svg>
