<?xml version="1.0" encoding="UTF-8"?>
<svg width="100px" height="100px" viewBox="0 0 100 100" version="1.1" xmlns="http://www.w3.org/2000/svg" xmlns:xlink="http://www.w3.org/1999/xlink">
    <!-- Generator: Sketch 3.8.3 (29802) - http://www.bohemiancoding.com/sketch -->
    <title>Group</title>
    <desc>Created with Sketch.</desc>
    <defs></defs>
    <g id="Page-1" stroke="none" stroke-width="1" fill="none" fill-rule="evenodd">
        <g id="horloge" fill="#FFFFFF" stroke="#FFFFFF">
            <g id="Group">
                <path d="M84.881,15.134 C65.662,-4.085 34.39,-4.085 15.171,15.134 C2.864,27.443 -1.998,44.894 2.166,61.814 L3.314,61.532 C-0.749,45.017 3.996,27.984 16.007,15.971 C34.764,-2.787 65.287,-2.787 84.044,15.971 C102.801,34.728 102.8,65.249 84.042,84.007 C74.956,93.093 62.875,98.097 50.026,98.097 C37.221,98.097 25.182,93.126 16.107,84.1 L23.372,76.835 L8.001,76.835 L8.001,92.205 L15.27,84.936 C24.57,94.185 36.906,99.28 50.027,99.28 C63.193,99.28 75.569,94.152 84.879,84.843 C104.099,65.625 104.1,34.354 84.881,15.134 L84.881,15.134 Z" id="Shape"></path>
                <polygon id="Shape" points="49.435 15.876 49.435 49.399 28.914 49.399 28.914 50.581 50.628 50.581 50.628 49.399 50.618 49.399 50.618 15.876"></polygon>
            </g>
        </g>
    </g>
</svg>