<?xml version="1.0" encoding="UTF-8"?>
<svg width="145px" height="145px" viewBox="0 0 145 145" version="1.1" xmlns="http://www.w3.org/2000/svg" xmlns:xlink="http://www.w3.org/1999/xlink">
    <!-- Generator: Sketch 42 (36781) - http://www.bohemiancoding.com/sketch -->
    <title>intercom-chat-icon-6ffe4913c2a767d9314d5d9bb03092fcec74b3ed58735b3d44d12672a08ff635</title>
    <desc>Created with Sketch.</desc>
    <defs></defs>
    <g id="Page-1" stroke="none" stroke-width="1" fill="none" fill-rule="evenodd">
        <g id="intercom-chat-icon-6ffe4913c2a767d9314d5d9bb03092fcec74b3ed58735b3d44d12672a08ff635" fill-rule="nonzero">
            <circle id="Oval" fill="#008AC1" cx="72.5" cy="72.5" r="72.5"></circle>
            <path d="M106.74,42.54 C106.728973,37.8202549 102.899758,33.9999871 98.18,34 L46.82,34 C44.5497468,34 42.3724774,34.9018546 40.767166,36.507166 C39.1618546,38.1124774 38.26,40.2897468 38.26,42.56 L38.26,93.9 C38.26,96.1702532 39.1618546,98.3475226 40.767166,99.952834 C42.3724774,101.558145 44.5497468,102.46 46.82,102.46 L85.05,102.46 L106.74,111 L106.74,93.9 L106.74,93.9 L106.74,42.54 Z M96.81,85.92 C96.46,86.22 88,93.32 72.5,93.32 C57,93.32 48.5,86.22 48.19,85.92 C47.231786,85.0915729 47.126573,83.6432141 47.9550001,82.6850001 C48.7834272,81.7267861 50.231786,81.6215729 51.19,82.45 C51.32,82.56 58.87,88.75 72.54,88.75 C86.37,88.75 93.81,82.51 93.88,82.45 C94.4998558,81.9141016 95.3585246,81.7496001 96.1325541,82.0184618 C96.9065837,82.2873235 97.4783805,82.9487018 97.6325542,83.7534619 C97.7867279,84.5582219 97.4998558,85.3841016 96.88,85.92 L96.81,85.92 Z" id="Shape" fill="#FFFFFF"></path>
        </g>
    </g>
</svg>