<?xml version="1.0" encoding="UTF-8"?>
<svg width="109px" height="107px" viewBox="0 0 109 107" version="1.1" xmlns="http://www.w3.org/2000/svg" xmlns:xlink="http://www.w3.org/1999/xlink">
    <!-- Generator: Sketch 42 (36781) - http://www.bohemiancoding.com/sketch -->
    <title>map-location copy</title>
    <desc>Created with Sketch.</desc>
    <defs></defs>
    <g id="Page-1" stroke="none" stroke-width="1" fill="none" fill-rule="evenodd">
        <g id="Mobile---Show-Business-(complete)" transform="translate(-19.000000, -980.000000)" fill-rule="nonzero" fill="#EEAA06">
            <g id="Group-12" transform="translate(19.000000, 980.000000)">
                <g id="map-location-copy">
                    <g id="Capa_1">
                        <g id="Group">
                            <path d="M101.712571,44.1084457 L80.2653242,44.1084457 C79.1771209,44.1084457 78.2975063,45.0041199 78.2975063,46.112191 C78.2975063,47.2202622 79.1771209,48.1159363 80.2653242,48.1159363 L98.1764027,48.1159363 L103.881107,102.21706 L4.46301099,102.21706 L11.1594953,48.1159363 L29.1020589,48.1159363 C30.1902622,48.1159363 31.0698768,47.2202622 31.0698768,46.112191 C31.0698768,45.0041199 30.1902622,44.1084457 29.1020589,44.1084457 L7.68826452,44.1084457 L0,106.224551 L108.263437,106.224551 L101.712571,44.1084457 Z" id="Shape"></path>
                            <path d="M52.4502182,76.0782022 C52.160949,76.2525281 51.8520016,76.4068165 51.5745392,76.5891573 C51.1416193,76.8736891 50.7185385,77.1722472 50.3033289,77.480824 C49.4276499,78.1360487 49.2387394,79.3903933 49.880248,80.2820599 C50.2659403,80.8170599 50.864157,81.099588 51.4702449,81.099588 C51.8736476,81.099588 52.2809859,80.9733521 52.6332253,80.7128652 C52.9834969,80.4503745 53.3396719,80.1979026 53.7115895,79.9534457 C54.343259,79.5366667 55.0142849,79.1459363 55.7069568,78.7892697 C56.6278956,78.314382 57.001781,77.2043071 56.6160887,76.2465169 C56.6318312,76.2304869 56.6515094,76.2184644 56.6652841,76.2024345 C60.2250667,72.3632584 72.2208846,57.976367 77.187657,34.0075655 C78.1951797,29.1464794 78.4214788,24.4817603 77.8606507,20.1436517 C76.1683273,6.96902622 68.1297912,0.00400749064 54.6148179,0.00400749064 C41.1037802,0.00400749064 33.0652441,6.96902622 31.3689851,20.1436517 C30.8101248,24.483764 31.0364239,29.1484831 32.0439466,34.0075655 C36.9615235,57.7439326 48.7684309,72.0747191 52.4502182,76.0782022 Z M35.271168,20.6666292 C36.7135785,9.46168539 43.0420808,4.01350187 54.6167857,4.01350187 C66.1934584,4.01350187 72.5199929,9.46168539 73.9604356,20.6666292 C74.4622292,24.5538951 74.2516727,28.7677715 73.3386052,33.1840262 C68.8736264,54.7302996 58.2277316,68.4018539 54.6167857,72.5496067 C51.0019042,68.3978464 40.3579772,54.7202809 35.8949662,33.1840262 C34.9799309,28.7677715 34.7713422,24.5558989 35.271168,20.6666292 Z" id="Shape"></path>
                            <path d="M54.6167857,37.9208801 C62.588416,37.9208801 69.072376,31.3185393 69.072376,23.201367 C69.072376,15.0841948 62.588416,8.48185393 54.6167857,8.48185393 C46.6451554,8.48185393 40.1611954,15.0841948 40.1611954,23.201367 C40.1611954,31.3185393 46.6451554,37.9208801 54.6167857,37.9208801 Z M54.6167857,12.4913483 C60.4159451,12.4913483 65.1367402,17.2963296 65.1367402,23.2033708 C65.1367402,29.110412 60.4179129,33.9153933 54.6167857,33.9153933 C48.8156586,33.9153933 44.0968312,29.110412 44.0968312,23.2033708 C44.0968312,17.2963296 48.8176264,12.4913483 54.6167857,12.4913483 Z" id="Shape"></path>
                            <path d="M61.8445808,72.4754682 C60.7819592,72.7038951 60.1050298,73.7698876 60.3313289,74.8539139 C60.5281107,75.7956742 61.3447551,76.4388764 62.253887,76.4388764 C62.3896664,76.4388764 62.5293815,76.4248502 62.6671287,76.394794 C63.82027,76.1463296 65.0698344,75.9359363 66.3784333,75.7676217 C67.4567975,75.6333708 68.2242465,74.6314981 68.088467,73.5334457 C67.9546554,72.4333895 66.9805856,71.6399064 65.8943501,71.792191 C64.4716177,71.9705243 63.1079199,72.2009551 61.8445808,72.4754682 Z" id="Shape"></path>
                            <path d="M72.0201672,73.2889888 C72.0634592,74.365 72.9371703,75.206573 73.9840495,75.206573 C74.0135667,75.206573 74.0411162,75.206573 74.0706334,75.2045693 L78.008237,75.0382584 C79.0925047,74.9881648 79.9347308,74.050412 79.8835675,72.9463483 C79.8343721,71.8382772 78.8229137,70.9746629 77.8291656,71.0347753 L73.9014011,71.2010861 C72.8151656,71.2471723 71.9729396,72.1809176 72.0201672,73.2889888 Z" id="Shape"></path>
                            <path d="M44.1440589,82.508221 C43.1326005,83.2856742 42.0876892,84.0330712 41.0349066,84.726367 C40.1238069,85.3294944 39.8640549,86.5698127 40.4563681,87.4995506 C40.8322214,88.0906554 41.4658587,88.4112547 42.1093352,88.4112547 C42.4773171,88.4112547 42.8472669,88.3070599 43.1798281,88.0886517 C44.3073878,87.3432584 45.4310118,86.5417603 46.5152794,85.7082022 C47.3811193,85.0409551 47.5542873,83.7846067 46.9009717,82.9009551 C46.2456884,82.0253184 45.0158022,81.8409738 44.1440589,82.508221 Z" id="Shape"></path>
                            <path d="M88.0008163,69.2955243 C87.3356939,69.770412 86.4718218,70.1150562 85.3521334,70.3494944 C84.287544,70.5719101 83.6027433,71.6338951 83.8231389,72.7179213 C84.0159851,73.6656929 84.8345973,74.3169101 85.7496327,74.3169101 C85.8814765,74.3169101 86.0152881,74.3028839 86.1490997,74.2748315 C87.8060024,73.9261798 89.1519898,73.3691386 90.273646,72.5656367 L90.5373336,72.3692697 C91.4031735,71.7000187 91.5743736,70.4436704 90.9190903,69.5620225 C90.2618391,68.6803745 89.0299851,68.5080524 88.1621774,69.1732959 L88.0008163,69.2955243 Z" id="Shape"></path>
                            <path d="M17.4348666,84.962809 C17.7202002,83.8948127 17.0983697,82.7947566 16.0495228,82.5062172 C15.0085471,82.2076592 13.9203438,82.8448502 13.636978,83.9168539 C13.389033,84.8465918 13.2414466,85.796367 13.194219,86.7321161 C13.1843799,86.9625468 13.1784765,87.1949813 13.1784765,87.4394382 C13.1804443,87.8321723 13.1981546,88.2249064 13.2355432,88.6156367 C13.3398375,89.6475655 14.1938705,90.415 15.1915542,90.415 C15.2564922,90.415 15.323398,90.4109925 15.3942394,90.4049813 C16.4745714,90.2907678 17.2616986,89.3089326 17.1534686,88.2068727 C17.1259192,87.944382 17.1160801,87.6778839 17.1141122,87.425412 C17.1141122,87.2591011 17.1200157,87.0927903 17.127887,86.9284831 C17.1593721,86.2792697 17.2616986,85.61603 17.4348666,84.962809 Z" id="Shape"></path>
                            <path d="M87.9575243,53.720412 C86.3950769,53.508015 84.8011444,53.6382584 83.2623108,54.0830899 C82.2154317,54.3816479 81.607376,55.4897191 81.9045165,56.5537079 C82.1485259,57.4373596 82.9376209,58.0144382 83.7955895,58.0144382 C83.9746609,58.0144382 84.1537323,57.9903933 84.3308359,57.9382959 C85.3541013,57.6457491 86.4068838,57.5535768 87.4301491,57.693839 C88.5360628,57.8341011 89.5002936,57.0706742 89.6439443,55.9766292 C89.7895628,54.876573 89.0339207,53.8686891 87.9575243,53.720412 Z" id="Shape"></path>
                            <path d="M91.8734819,63.6469663 C91.5527276,64.7029401 92.1352017,65.8270412 93.1722418,66.1516479 C93.3670557,66.213764 93.5599019,66.2418165 93.752748,66.2418165 C94.5949741,66.2418165 95.3722622,65.6907865 95.6320141,64.829176 C95.8268281,64.191985 95.946865,63.5447753 95.9921248,62.8995693 C96.0019639,62.7332584 96.0078673,62.5649438 96.0078673,62.398633 C96.0078673,61.4608801 95.838635,60.5211236 95.5060738,59.6094195 C95.1282527,58.5694757 93.9888862,58.0444944 92.9774278,58.4272097 C91.9561303,58.8119288 91.4385942,59.9660861 91.8164152,61.0020225 C91.9856476,61.4668914 92.0722316,61.9377715 92.0722316,62.3966292 L92.0663281,62.6310674 C92.0427143,62.9636891 91.9797441,63.2963109 91.8734819,63.6469663 Z" id="Shape"></path>
                            <path d="M34.3994246,88.4934082 C33.2462834,89.0444382 32.0714961,89.5553933 30.9085157,90.0142509 C29.8950895,90.4109925 29.3913281,91.571161 29.7829239,92.6050936 C30.084,93.3985768 30.8278352,93.8874906 31.618898,93.8874906 C31.8550361,93.8874906 32.0951099,93.845412 32.3273124,93.7532397 C33.5768768,93.2623221 34.8362802,92.7132959 36.0720699,92.1241948 C37.0559788,91.6553184 37.4790597,90.4610861 37.0166224,89.4592135 C36.5581209,88.4553371 35.389237,88.0205243 34.3994246,88.4934082 Z" id="Shape"></path>
                            <path d="M20.0737104,80.1518165 C20.390529,80.1518165 20.7132512,80.0736704 21.0143273,79.9073596 C21.5810589,79.5927715 22.185179,79.3964045 22.8070094,79.3282772 C23.0726648,79.2962172 23.3442237,79.2962172 23.6059435,79.3322846 C24.713825,79.4785581 25.6721523,78.7051124 25.8138352,77.6090637 C25.9555181,76.5110112 25.1979082,75.5051311 24.1215118,75.3608614 C23.535102,75.2827154 22.9388532,75.2787079 22.368186,75.3448315 C21.2386586,75.4710674 20.1484874,75.8237266 19.1291578,76.3887828 C18.1747661,76.9197753 17.8225267,78.1340449 18.3439984,79.1058614 C18.7021413,79.7751124 19.3771028,80.1518165 20.0737104,80.1518165 Z" id="Shape"></path>
                            <path d="M19.6644042,95.8631835 C20.0894529,95.9753933 20.5223728,96.0595506 20.9513571,96.1116479 C21.4551185,96.173764 21.9588799,96.205824 22.4646091,96.205824 C23.0805361,96.205824 23.6984309,96.1617416 24.3143579,96.0815918 C25.3927221,95.9433333 26.1582033,94.9414607 26.020456,93.8434082 C25.8827088,92.7453558 24.9047033,91.9719101 23.8224035,92.106161 C23.027405,92.2103558 22.2245353,92.2344007 21.4295369,92.1362172 C21.1697849,92.1021536 20.910033,92.0520599 20.6542166,91.9859363 C19.6014341,91.6994007 18.5289733,92.3486142 18.2534788,93.420618 C17.9838878,94.4926217 18.6135895,95.5866667 19.6644042,95.8631835 Z" id="Shape"></path>
                        </g>
                    </g>
                </g>
            </g>
        </g>
    </g>
</svg>