<?xml version="1.0" encoding="UTF-8"?>
<svg width="63px" height="63px" viewBox="0 0 63 63" version="1.1" xmlns="http://www.w3.org/2000/svg" xmlns:xlink="http://www.w3.org/1999/xlink">
    <!-- Generator: Sketch 42 (36781) - http://www.bohemiancoding.com/sketch -->
    <title>Capa_1</title>
    <desc>Created with Sketch.</desc>
    <defs></defs>
    <g id="Page-1" stroke="none" stroke-width="1" fill="none" fill-rule="evenodd">
        <g id="Mobile---profil-user-association" transform="translate(-243.000000, -392.000000)" fill-rule="nonzero" fill="#D5D5D5">
            <g id="Capa_1" transform="translate(243.000000, 392.000000)">
                <g id="Group">
                    <path d="M31.4581333,62.9148444 C14.1112889,62.9148444 0,48.8035556 0,31.4595556 C0,14.1141333 14.1112889,0.00142222222 31.4581333,0.00142222222 C48.8049778,0.00142222222 62.9162667,14.1127111 62.9162667,31.4595556 C62.9162667,48.8064 48.8021333,62.9148444 31.4581333,62.9148444 Z M31.4581333,2.13475556 C15.2888889,2.13475556 2.13333333,15.2903111 2.13333333,31.4595556 C2.13333333,47.6288 15.2888889,60.7843556 31.4581333,60.7843556 C47.6273778,60.7843556 60.7829333,47.6288 60.7829333,31.4595556 C60.7829333,15.2903111 47.6273778,2.13475556 31.4581333,2.13475556 Z" id="Shape"></path>
                    <path d="M44.7061333,32.5248 L18.2115556,32.5248 C17.6227556,32.5248 17.1448889,32.0469333 17.1448889,31.4581333 C17.1448889,30.8693333 17.6227556,30.3914667 18.2115556,30.3914667 L44.7047111,30.3914667 C45.2935111,30.3914667 45.7713778,30.8693333 45.7713778,31.4581333 C45.7713778,32.0469333 45.2949333,32.5248 44.7061333,32.5248 Z" id="Shape"></path>
                    <path d="M31.4581333,45.7713778 C30.8693333,45.7713778 30.3914667,45.2935111 30.3914667,44.7047111 L30.3914667,18.2129778 C30.3914667,17.6241778 30.8693333,17.1463111 31.4581333,17.1463111 C32.0469333,17.1463111 32.5248,17.6241778 32.5248,18.2129778 L32.5248,44.7032889 C32.5248,45.2935111 32.0469333,45.7713778 31.4581333,45.7713778 Z" id="Shape"></path>
                </g>
            </g>
        </g>
    </g>
</svg>