<?xml version="1.0" encoding="utf-8"?>
<!-- Generator: Adobe Illustrator 16.0.0, SVG Export Plug-In . SVG Version: 6.00 Build 0)  -->
<!DOCTYPE svg PUBLIC "-//W3C//DTD SVG 1.1//EN" "http://www.w3.org/Graphics/SVG/1.1/DTD/svg11.dtd">
<svg version="1.1" id="Calque_1" xmlns="http://www.w3.org/2000/svg" xmlns:xlink="http://www.w3.org/1999/xlink" x="0px" y="0px"
	 width="453px" height="453px" viewBox="130.409 170.409 453 453" enable-background="new 130.409 170.409 453 453"
	 xml:space="preserve">
<g>
	<path fill="#0F7782" d="M516.347,491.753c0,16.649-69.394,30.148-154.989,30.148c-85.598,0-154.987-13.499-154.987-30.148
		c0-16.653,69.389-30.15,154.987-30.15C446.954,461.603,516.347,475.1,516.347,491.753z"/>
	<g>
		<path fill="#B91C48" d="M467.015,309.402l27.608,15.21c0,0-12.167,123.475-18.146,128.077h-76.391
			c-5.987-4.603-18.872-126.555-18.872-126.555l27.61-15.213"/>
		<path fill="#E00B6C" d="M476.478,455.516h-76.391c-0.623,0-1.229-0.205-1.723-0.587c-1.75-1.343-4.676-3.592-12.764-66.884
			c-3.927-30.738-7.166-61.309-7.197-61.614c-0.119-1.13,0.451-2.223,1.447-2.772l27.611-15.213c1.366-0.752,3.086-0.254,3.84,1.111
			c0.753,1.369,0.255,3.087-1.112,3.839l-25.966,14.308c4.659,43.773,13.142,112.339,17.395,122.158h73.283
			c2.505-6.492,8.79-43.54,16.728-123.672l-25.979-14.312c-1.368-0.754-1.866-2.474-1.111-3.84c0.751-1.366,2.473-1.864,3.838-1.112
			l27.61,15.21c0.99,0.545,1.56,1.628,1.448,2.753c-0.03,0.309-3.088,31.259-6.837,62.374
			c-7.721,64.064-10.647,66.318-12.396,67.665C477.708,455.311,477.102,455.516,476.478,455.516z"/>
	</g>
	<path fill="none" stroke="#FFB16B" stroke-width="4" stroke-linecap="round" stroke-linejoin="round" stroke-miterlimit="10" d="
		M421.405,331.383"/>
	<g>
		<path fill="#FFFFFF" d="M455.309,304.274l-17.031,18.643l-22.551-20.71c0,0,19.791,12.424,39.582,0"/>
		<path fill="#FFD4BA" d="M438.278,325.744c-0.706,0-1.391-0.265-1.911-0.744l-22.552-20.71c-1.076-0.99-1.221-2.636-0.335-3.797
			c0.886-1.164,2.515-1.456,3.75-0.681c0.743,0.464,18.579,11.295,36.576,0c1.321-0.828,3.068-0.429,3.896,0.892
			c0.496,0.79,0.552,1.731,0.237,2.537c0.382,0.972,0.207,2.117-0.544,2.94l-17.031,18.643c-0.508,0.555-1.214,0.885-1.962,0.918
			C438.361,325.743,438.32,325.744,438.278,325.744z M428.181,309.808l9.922,9.112l9.048-9.907
			C440.183,311.098,433.601,310.862,428.181,309.808z"/>
	</g>
	<g>
		<path fill="#FFFFFF" d="M441.37,344.635c0,1.14-0.926,2.066-2.07,2.066c-1.143,0-2.07-0.926-2.07-2.066
			c0-1.146,0.928-2.07,2.07-2.07C440.444,342.565,441.37,343.49,441.37,344.635z"/>
		<path fill="#FFFFFF" d="M441.37,362.464c0,1.145-0.926,2.075-2.07,2.075c-1.143,0-2.07-0.93-2.07-2.075
			c0-1.141,0.928-2.067,2.07-2.067C440.444,360.396,441.37,361.323,441.37,362.464z"/>
		<circle fill="#FFFFFF" cx="439.3" cy="376.617" r="2.07"/>
		<path fill="#FFFFFF" d="M441.37,390.081c0,1.14-0.926,2.065-2.07,2.065c-1.143,0-2.07-0.926-2.07-2.065
			c0-1.146,0.928-2.074,2.07-2.074C440.444,388.007,441.37,388.935,441.37,390.081z"/>
		<circle fill="#FFFFFF" cx="439.3" cy="406.132" r="2.07"/>
		<circle fill="#FFFFFF" cx="439.3" cy="421.831" r="2.07"/>
		<circle fill="#FFFFFF" cx="439.3" cy="439.515" r="2.07"/>
	</g>
	<path fill="#FF9CA0" d="M452.982,305.103l-14.672-7.885v-7.502c4.898-0.687,7.131-4.894,7.131-7.963
		c0-3.352-2.652-8.074-8.544-8.074c-0.781,0-1.413,0.632-1.413,1.414c0,0.781,0.632,1.413,1.413,1.413
		c4.165,0,5.718,3.218,5.718,5.247s-1.553,5.246-5.718,5.246c-0.781,0-1.413,0.633-1.413,1.413c0,0.131,0.04,0.25,0.074,0.369
		c-0.034,0.122-0.074,0.239-0.074,0.37v8.068l-14.746,7.884c-0.688,0.367-0.948,1.224-0.581,1.913
		c0.256,0.476,0.744,0.747,1.249,0.747c0.226,0,0.453-0.054,0.665-0.167l14.824-7.926l14.751,7.925
		c0.213,0.115,0.44,0.168,0.667,0.168c0.504,0,0.991-0.269,1.246-0.744C453.929,306.33,453.67,305.471,452.982,305.103z"/>
	<g>
		<path fill="#E00B6C" d="M384.019,327.168c-0.177-1.417-1.383-2.476-2.802-2.476c-0.031,0-0.061,0.001-0.091,0.001
			c-1.46,0.047-2.643,1.195-2.732,2.652l-8.745,142.199c-0.049,0.778,0.227,1.543,0.763,2.11c0.532,0.567,1.277,0.89,2.059,0.89
			h20.25c1.304,0,2.437-0.892,2.746-2.158l4.144-17.029c0.081-0.333,0.099-0.678,0.058-1.019L384.019,327.168z"/>
		<path fill="#E00B6C" d="M497.444,324.415c-0.102-1.442-1.274-2.575-2.721-2.628c-1.422-0.045-2.694,0.997-2.898,2.429
			l-18.146,128.077c-0.076,0.541,0.005,1.095,0.237,1.59l9.66,20.714c0.464,0.996,1.464,1.632,2.562,1.632h18.871
			c0.784,0,1.532-0.325,2.068-0.898c0.532-0.574,0.807-1.343,0.752-2.125L497.444,324.415z"/>
		<path fill="#E00B6C" d="M466.684,305.943l-7.819-5.981c-1.165-0.892-2.818-0.743-3.807,0.342l-17.031,18.693l-22.312-18.944
			c-0.638-0.542-1.484-0.771-2.31-0.632c-0.823,0.144-1.546,0.643-1.966,1.366l-5.059,8.714c-0.522,0.9-0.508,2.015,0.038,2.901
			l18.406,29.94c0.515,0.836,1.426,1.346,2.409,1.346c0.98,0,1.891-0.509,2.406-1.346l8.637-14.032l8.635,14.032
			c0.516,0.839,1.428,1.346,2.406,1.346c0.049,0,0.099-0.001,0.148-0.004c1.033-0.054,1.953-0.668,2.401-1.601l15.646-32.673
			C468.094,308.204,467.747,306.757,466.684,305.943z"/>
	</g>
	<g>
		<path fill="#AFD03D" d="M321.731,366.807c-0.07-0.022-1.733-0.521-3.878-0.521c-0.431,0-0.845,0.026-1.25,0.066
			c0.351-2.556-0.16-4.759-0.193-4.897c-0.09-0.367-0.446-0.6-0.823-0.527c-0.106,0.022-1.416,0.287-2.996,1.024
			c0.12-2.199-0.228-3.863-0.252-3.986c-0.042-0.193-0.165-0.362-0.337-0.461c-0.171-0.1-0.375-0.122-0.567-0.062
			c-0.105,0.033-1.359,0.446-2.906,1.352c-1.509-3.652-3.706-6.113-3.845-6.266c-0.134-0.149-0.324-0.232-0.523-0.232
			s-0.389,0.084-0.523,0.232c-0.136,0.149-2.193,2.454-3.684,5.91c-0.406-0.268-0.681-0.419-0.726-0.444
			c-0.326-0.174-0.743-0.066-0.941,0.26c-0.075,0.125-1.325,2.244-1.702,4.955c-0.976-0.345-1.678-0.483-1.754-0.497
			c-0.38-0.066-0.73,0.166-0.817,0.533c-0.05,0.207-1.167,5.131,1.262,8.855c2.006,3.077,5.725,4.265,7.081,4.61
			c0.707,0.998,1.242,1.594,1.31,1.667c0.132,0.146,0.323,0.23,0.521,0.23h0.001c0.197,0,0.388-0.084,0.521-0.232
			c0.099-0.109,1.224-1.375,2.404-3.39c0.116,0.083,0.256,0.134,0.405,0.134c0.029,0,0.057-0.006,0.086-0.008
			c0.066,0.219,0.225,0.406,0.459,0.478c0.069,0.022,1.729,0.524,3.879,0.524c1.931,0,3.627-0.4,5.041-1.192
			c3.876-2.171,5.173-7.056,5.225-7.263C322.302,367.293,322.093,366.918,321.731,366.807z"/>
	</g>
	<path fill="#FF8F54" d="M314.162,374.593c-2.031-2.883-5.476-4.603-9.213-4.603c-5.301,0-10.68,3.597-10.746,11.632
		c-0.114,13.823,1.077,48.738,1.088,49.089c0.023,0.67,0.516,1.233,1.178,1.345c0.079,0.013,0.158,0.02,0.235,0.02
		c0.577,0,1.107-0.354,1.319-0.906c0.13-0.337,13.001-33.84,17.072-45.255C316.625,381.637,316.294,377.616,314.162,374.593z"/>
	<path fill="#A3195B" d="M260.787,376.545c0,0-3.961,15.887-2.16,20.905c1.798,5.023,9.367,6.374,11.528,6.84
		c2.161,0.464,9.366-9.081,9.727-11.609c0.359-2.533-3.391-14.293-6.124-17.381C268.364,369.203,260.787,376.545,260.787,376.545z"
		/>
	<path fill="#55508C" d="M304.051,391.204c0,0-3.96,12.54-2.163,16.5c1.805,3.962,9.371,5.027,11.53,5.4
		c2.161,0.361,9.371-7.169,9.727-9.167c0.365-2-3.24-11.384-6.125-13.716C314.137,387.892,304.051,391.204,304.051,391.204z"/>
	<g>
		<path fill="#EBB16B" d="M317.809,428.979c0,0,10.489,38.783-15.75,10.269c-7.616-11.15-37.962-67.786-37.962-67.786
			s-8.259-31.67,16.783-7.646C285.98,371.42,317.809,428.979,317.809,428.979"/>
		<path fill="#EBB16B" d="M316.172,451.127c-3.479,0-8.296-3.471-15.154-10.924c-0.047-0.05-0.088-0.103-0.127-0.16
			c-7.572-11.085-36.8-65.6-38.041-67.914c-0.051-0.099-0.092-0.204-0.122-0.312c-0.321-1.237-3.051-12.206,0.311-16.558
			c0.94-1.216,2.279-1.859,3.873-1.859c3.469,0,8.355,3.072,14.947,9.395c0.074,0.07,0.138,0.147,0.196,0.233
			c5.075,7.567,35.69,62.914,36.991,65.267c0.055,0.1,0.097,0.204,0.127,0.315c0.438,1.623,4.182,15.997,0.511,20.793
			C318.819,450.532,317.606,451.127,316.172,451.127z M303.168,438.364c7.966,8.643,11.568,9.937,13.004,9.937
			c0.558,0,0.936-0.184,1.266-0.616c2.114-2.76,0.553-12.535-0.95-18.172c-1.805-3.264-31.566-57.027-36.699-64.784
			c-7.342-7.024-11.054-8.502-12.877-8.502c-0.724,0-1.228,0.235-1.635,0.761c-1.875,2.425-0.918,9.771,0.146,13.956
			C267.162,374.186,295.782,427.492,303.168,438.364z"/>
	</g>
	<g>
		<line fill="#FFDC7E" x1="277.589" y1="365.11" x2="274.492" y2="378.25"/>
		<path fill="#FFF7A4" d="M274.492,379.663c-0.106,0-0.215-0.012-0.326-0.037c-0.758-0.18-1.229-0.941-1.05-1.7l3.096-13.141
			c0.179-0.76,0.942-1.236,1.7-1.05c0.76,0.178,1.231,0.938,1.052,1.699l-3.094,13.14
			C275.715,379.226,275.132,379.663,274.492,379.663z"/>
	</g>
	<g>
		<line fill="#FFDC7E" x1="283.846" y1="374.631" x2="281.28" y2="386.134"/>
		<path fill="#FFF7A4" d="M281.282,387.547c-0.102,0-0.206-0.011-0.309-0.034c-0.762-0.169-1.242-0.926-1.071-1.688l2.565-11.501
			c0.17-0.762,0.935-1.238,1.686-1.071c0.763,0.168,1.243,0.925,1.072,1.687l-2.566,11.502
			C282.513,387.1,281.929,387.547,281.282,387.547z"/>
	</g>
	<g>
		<line fill="#FFDC7E" x1="289.213" y1="382.027" x2="287.051" y2="392.681"/>
		<path fill="#FFF7A4" d="M287.051,394.095c-0.091,0-0.186-0.01-0.282-0.029c-0.764-0.154-1.258-0.9-1.104-1.665l2.162-10.654
			c0.156-0.763,0.894-1.262,1.667-1.104c0.765,0.156,1.259,0.902,1.104,1.668l-2.161,10.651
			C288.299,393.632,287.711,394.095,287.051,394.095z"/>
	</g>
	<g>
		<line fill="#FFDC7E" x1="294.493" y1="391.366" x2="292.394" y2="402.694"/>
		<path fill="#FFF7A4" d="M292.395,404.106c-0.086,0-0.173-0.008-0.26-0.023c-0.768-0.142-1.274-0.879-1.132-1.646l2.098-11.328
			c0.144-0.768,0.875-1.271,1.649-1.131c0.768,0.142,1.274,0.88,1.13,1.647l-2.098,11.325
			C293.656,403.632,293.063,404.106,292.395,404.106z"/>
	</g>
	<g>
		<g>
			<path fill="#4A806C" d="M334.108,370.621c0.574,4.157-2.49,8.013-2.49,8.013s-3.988-2.883-4.562-7.044
				c-0.571-4.15,2.493-8.007,2.493-8.007S333.54,366.466,334.108,370.621z"/>
			<path fill="#4A806C" d="M331.618,379.341c-0.144,0-0.29-0.043-0.414-0.135c-0.174-0.124-4.24-3.11-4.848-7.52
				c-0.606-4.398,2.506-8.376,2.639-8.544c0.233-0.295,0.658-0.356,0.968-0.132c0.172,0.124,4.242,3.112,4.844,7.516
				c0.61,4.405-2.502,8.38-2.635,8.549C332.032,379.248,331.827,379.341,331.618,379.341z M329.689,364.61
				c-0.773,1.184-2.331,3.99-1.934,6.883c0.401,2.911,2.657,5.187,3.721,6.115c0.774-1.184,2.333-3.991,1.932-6.891
				C333.012,367.82,330.755,365.541,329.689,364.61z"/>
		</g>
		<g>
			<path fill="#4A806C" d="M339.756,373.845c-2.945,3.834-8.154,4.777-8.154,4.777s-0.441-5.278,2.506-9.111
				c2.942-3.83,8.15-4.77,8.15-4.77S342.696,370.016,339.756,373.845z"/>
			<path fill="#4A806C" d="M331.602,379.329c-0.154,0-0.305-0.051-0.429-0.145c-0.159-0.121-0.258-0.304-0.274-0.502
				c-0.02-0.227-0.431-5.599,2.65-9.602c3.072-4.001,8.361-4.995,8.584-5.035c0.196-0.035,0.397,0.014,0.556,0.135
				c0.157,0.122,0.257,0.304,0.272,0.501c0.019,0.228,0.425,5.594-2.645,9.594c-3.078,4.004-8.365,5.003-8.588,5.043
				C331.685,379.325,331.643,379.329,331.602,379.329z M341.572,365.634c-1.522,0.428-4.839,1.62-6.903,4.307
				c-2.07,2.69-2.363,6.204-2.382,7.786c1.527-0.428,4.843-1.624,6.909-4.313C341.264,370.719,341.555,367.214,341.572,365.634z"/>
		</g>
		<g>
			<path fill="#4A806C" d="M343.662,376.851c-2.705,3.21-7.619,3.513-7.619,3.513s-0.53-4.896,2.178-8.103
				c2.703-3.206,7.619-3.511,7.619-3.511S346.367,373.648,343.662,376.851z"/>
			<path fill="#4A806C" d="M336.043,381.069c-0.359,0-0.664-0.27-0.703-0.631c-0.023-0.211-0.53-5.234,2.341-8.635
				c2.864-3.396,7.901-3.746,8.114-3.759c0.402-0.023,0.707,0.254,0.747,0.629c0.024,0.212,0.526,5.239-2.342,8.634
				c-2.865,3.4-7.9,3.748-8.114,3.761C336.071,381.069,336.057,381.069,336.043,381.069z M345.172,369.542
				c-1.397,0.218-4.525,0.938-6.41,3.174c-1.896,2.245-2.076,5.444-2.053,6.855c1.398-0.217,4.526-0.938,6.412-3.176
				C345.014,374.155,345.194,370.955,345.172,369.542z"/>
		</g>
		<g>
			<path fill="#4A806C" d="M338.917,371.693c-0.889,6.822-6.627,11.699-6.627,11.699s-4.306-6.182-3.417-13.005
				c0.881-6.81,6.625-11.685,6.625-11.685S339.805,364.876,338.917,371.693z"/>
			<path fill="#4A806C" d="M332.289,384.098c-0.03,0-0.061-0.003-0.091-0.005c-0.196-0.027-0.375-0.135-0.488-0.299
				c-0.182-0.261-4.452-6.485-3.539-13.499c0.905-7,6.626-11.926,6.87-12.133c0.15-0.128,0.349-0.188,0.546-0.16
				c0.198,0.025,0.374,0.133,0.489,0.295c0.182,0.262,4.455,6.48,3.542,13.487c-0.914,7.012-6.627,11.938-6.871,12.145
				C332.618,384.04,332.458,384.098,332.289,384.098z M335.355,359.803c-1.458,1.439-5.114,5.508-5.782,10.672
				c-0.676,5.176,1.818,10.045,2.86,11.812c1.458-1.441,5.109-5.514,5.783-10.686C338.892,366.421,336.397,361.564,335.355,359.803z
				"/>
		</g>
		<g>
			<path fill="#4A806C" d="M331.264,373.088c1.813,3.784,0.079,8.393,0.079,8.393s-4.682-1.525-6.503-5.309
				c-1.809-3.78-0.074-8.388-0.074-8.388S329.444,369.312,331.264,373.088z"/>
			<path fill="#4A806C" d="M331.343,382.188c-0.075,0-0.147-0.011-0.221-0.034c-0.205-0.066-4.989-1.666-6.92-5.674
				c-1.917-4.008-0.173-8.745-0.097-8.943c0.132-0.356,0.516-0.544,0.88-0.422c0.203,0.066,4.986,1.667,6.915,5.667
				c1.922,4.013,0.178,8.75,0.102,8.949C331.896,382.013,331.628,382.188,331.343,382.188z M325.215,368.72
				c-0.375,1.364-0.999,4.513,0.262,7.148c1.27,2.636,4.116,4.117,5.416,4.678c0.374-1.364,0.998-4.514-0.266-7.152
				C329.358,370.763,326.513,369.28,325.215,368.72z"/>
		</g>
		<g>
			<path fill="#4A806C" d="M345.102,381.44c-3.9,1.562-8.383-0.482-8.383-0.482s1.838-4.568,5.739-6.126
				c3.895-1.556,8.372,0.484,8.372,0.484S348.994,379.884,345.102,381.44z"/>
			<path fill="#4A806C" d="M341.843,382.735c-2.897,0-5.316-1.089-5.417-1.135c-0.344-0.156-0.502-0.556-0.363-0.906
				c0.082-0.199,2-4.868,6.133-6.52c1.056-0.421,2.237-0.635,3.514-0.635c2.893,0,5.311,1.087,5.413,1.133
				c0.342,0.156,0.503,0.556,0.361,0.907c-0.08,0.199-1.996,4.868-6.119,6.517C344.307,382.521,343.122,382.735,341.843,382.735z
				 M337.681,380.573c0.852,0.298,2.428,0.749,4.161,0.749c1.099,0,2.106-0.181,2.998-0.537c2.713-1.085,4.381-3.827,5.028-5.084
				c-0.854-0.298-2.427-0.748-4.158-0.748c-1.096,0-2.102,0.179-2.989,0.535C339.99,376.579,338.324,379.317,337.681,380.573z"/>
		</g>
	</g>
	<path fill="#FF8F54" d="M342.283,380.832c-1.963-3.213-5.773-5.287-9.709-5.287c-4.265,0-9.614,2.682-10.666,10.236
		c-1.912,13.694-5.271,48.465-5.305,48.813c-0.063,0.67,0.351,1.291,0.994,1.487c0.138,0.041,0.276,0.062,0.414,0.062
		c0.508,0,0.988-0.275,1.242-0.739c0.171-0.317,17.288-31.864,22.807-42.651C344.269,388.445,344.347,384.211,342.283,380.832z"/>
	<g>
		<g>
			<path fill="#4A806C" d="M241.531,373.257c2.89,3.042,2.647,7.961,2.647,7.961s-4.924-0.018-7.814-3.062
				c-2.879-3.043-2.642-7.961-2.642-7.961S238.65,370.209,241.531,373.257z"/>
			<path fill="#4A806C" d="M244.178,381.924h-0.003c-0.212-0.001-5.261-0.054-8.323-3.283c-3.053-3.226-2.846-8.267-2.836-8.479
				c0.02-0.378,0.329-0.674,0.707-0.674h0.003c0.212,0,5.265,0.053,8.319,3.284c3.062,3.223,2.852,8.268,2.838,8.481
				C244.866,381.629,244.555,381.924,244.178,381.924z M234.436,370.945c0.062,1.414,0.433,4.602,2.441,6.724
				c2.021,2.131,5.181,2.664,6.587,2.798c-0.062-1.412-0.431-4.603-2.447-6.723C239.003,371.61,235.843,371.078,234.436,370.945z"/>
		</g>
		<g>
			<path fill="#4A806C" d="M248.002,372.583c-0.158,4.836-3.843,8.635-3.843,8.635s-3.431-4.033-3.273-8.864
				c0.156-4.828,3.839-8.626,3.839-8.626S248.159,367.755,248.002,372.583z"/>
			<path fill="#4A806C" d="M244.159,381.924c-0.008,0-0.015,0-0.024-0.001c-0.198-0.006-0.384-0.097-0.514-0.247
				c-0.149-0.173-3.607-4.299-3.442-9.345c0.163-5.043,3.881-8.932,4.038-9.095c0.14-0.141,0.337-0.236,0.53-0.212
				c0.2,0.005,0.387,0.095,0.517,0.247c0.146,0.172,3.609,4.293,3.445,9.336c-0.165,5.052-3.884,8.941-4.042,9.104
				C244.532,381.847,244.349,381.924,244.159,381.924z M244.689,364.854c-0.988,1.234-2.989,4.136-3.097,7.523
				c-0.11,3.39,1.698,6.417,2.604,7.712c0.988-1.233,2.988-4.138,3.098-7.53C247.405,369.173,245.594,366.15,244.689,364.854z"/>
		</g>
		<g>
			<path fill="#4A806C" d="M252.931,372.749c-0.33,4.185-4.146,7.298-4.146,7.298s-3.285-3.671-2.951-7.855
				c0.326-4.181,4.138-7.294,4.138-7.294S253.26,368.571,252.931,372.749z"/>
			<path fill="#4A806C" d="M248.785,380.753c-0.195,0-0.389-0.079-0.527-0.235c-0.144-0.159-3.48-3.947-3.127-8.383
				c0.345-4.429,4.229-7.65,4.395-7.784c0.292-0.24,0.722-0.206,0.975,0.075c0.142,0.16,3.484,3.95,3.135,8.379
				c-0.349,4.434-4.237,7.656-4.402,7.791C249.101,380.701,248.943,380.753,248.785,380.753z M249.892,365.931
				c-1.009,0.993-3.127,3.402-3.354,6.316c-0.232,2.917,1.487,5.629,2.327,6.766c1.01-0.992,3.131-3.403,3.362-6.319
				C252.455,369.78,250.734,367.069,249.892,365.931z"/>
		</g>
		<g>
			<path fill="#4A806C" d="M246.061,371.322c3.257,6.062,1.441,13.369,1.441,13.369s-7.106-2.51-10.362-8.571
				c-3.252-6.052-1.427-13.357-1.427-13.357S242.812,365.27,246.061,371.322z"/>
			<path fill="#4A806C" d="M247.502,385.396c-0.079,0-0.159-0.013-0.234-0.04c-0.301-0.106-7.403-2.672-10.75-8.902
				c-3.341-6.222-1.569-13.554-1.491-13.864c0.048-0.193,0.175-0.357,0.352-0.451c0.174-0.094,0.379-0.11,0.57-0.044
				c0.3,0.106,7.395,2.67,10.735,8.892c3.348,6.23,1.582,13.562,1.503,13.872c-0.047,0.193-0.174,0.358-0.349,0.452
				C247.732,385.367,247.618,385.396,247.502,385.396z M236.24,363.741c-0.347,2.021-0.941,7.456,1.522,12.043
				c2.474,4.608,7.335,7.104,9.212,7.928c0.343-2.021,0.935-7.459-1.536-12.055C242.975,367.067,238.114,364.567,236.24,363.741z"/>
		</g>
		<g>
			<path fill="#4A806C" d="M240.656,376.922c3.682,2.012,4.958,6.771,4.958,6.771s-4.69,1.491-8.375-0.526
				c-3.677-2.014-4.949-6.769-4.949-6.769S236.982,374.906,240.656,376.922z"/>
			<path fill="#4A806C" d="M241.816,384.931c-1.877,0-3.53-0.386-4.916-1.144c-3.897-2.135-5.238-7.001-5.293-7.206
				c-0.098-0.366,0.109-0.743,0.468-0.857c0.072-0.023,1.803-0.564,4.015-0.564c1.873,0,3.523,0.383,4.906,1.143
				c3.902,2.132,5.246,7.001,5.3,7.207c0.098,0.366-0.108,0.743-0.469,0.856C245.756,384.39,244.03,384.931,241.816,384.931z
				 M233.198,376.894c0.49,1.326,1.816,4.25,4.381,5.654c1.176,0.643,2.602,0.971,4.237,0.971c1.191,0,2.239-0.18,2.889-0.322
				c-0.49-1.326-1.82-4.25-4.388-5.654c-1.171-0.643-2.594-0.969-4.227-0.969C234.893,376.573,233.847,376.75,233.198,376.894z"/>
		</g>
		<g>
			<path fill="#4A806C" d="M256.774,375.64c-2.258,3.541-7.088,4.487-7.088,4.487s-1.173-4.781,1.085-8.319
				c2.253-3.535,7.088-4.485,7.088-4.485S259.029,372.108,256.774,375.64z"/>
			<path fill="#4A806C" d="M249.685,380.833c-0.32,0-0.607-0.216-0.686-0.537c-0.051-0.207-1.219-5.118,1.174-8.868
				c2.388-3.747,7.337-4.759,7.547-4.8c0.379-0.075,0.734,0.16,0.824,0.527c0.051,0.207,1.213,5.122-1.174,8.866
				c-2.393,3.751-7.34,4.759-7.549,4.8C249.775,380.829,249.729,380.833,249.685,380.833z M257.301,368.196
				c-1.357,0.4-4.364,1.526-5.935,3.991c-1.582,2.478-1.334,5.672-1.125,7.066c1.355-0.396,4.361-1.523,5.936-3.994
				C257.755,372.789,257.51,369.592,257.301,368.196z"/>
		</g>
	</g>
	<g>
		<path fill="#FF8F54" d="M241.702,392.029c6.492,12.355,24.121,42.701,24.121,42.701s-4.5-35.81-6.322-47.917
			C257.006,370.18,234.239,377.822,241.702,392.029z"/>
		<path fill="#FF8F54" d="M265.823,436.145c-0.493,0-0.962-0.259-1.221-0.703c-0.177-0.304-17.718-30.515-24.15-42.754
			c-2.132-4.06-2.211-8.108-0.221-11.401c1.957-3.236,5.776-5.327,9.733-5.327c4.514,0,9.756,2.798,10.933,10.646
			c1.804,11.984,6.283,47.592,6.328,47.951c0.084,0.665-0.313,1.3-0.951,1.514C266.125,436.121,265.973,436.145,265.823,436.145z
			 M249.964,378.786c-2.988,0-5.859,1.555-7.315,3.962c-1.031,1.707-1.813,4.591,0.307,8.624
			c4.634,8.826,15.099,27.08,20.586,36.591c-1.405-11.044-4.131-32.245-5.44-40.939
			C257.328,381.864,254.287,378.786,249.964,378.786z"/>
	</g>
	<path fill="#AFD03D" d="M292.994,385.663l-0.45-0.504l-0.524,0.426c-0.307,0.252-7.523,6.228-8.165,14.42
		c-0.649,8.197,5.551,15.231,5.816,15.527l0.451,0.502l0.523-0.427c0.307-0.25,7.529-6.229,8.173-14.427
		C299.464,392.989,293.259,385.958,292.994,385.663z"/>
	<g>
		<path fill="#4A806C" d="M290.195,399.753c4.403,6.701,2.288,15.864,2.288,15.864s-9.252-1.69-13.652-8.393
			c-4.401-6.692-2.283-15.858-2.283-15.858S285.801,393.062,290.195,399.753z"/>
		<path fill="#4A806C" d="M293.02,416.435l-0.664-0.122c-0.392-0.071-9.602-1.824-14.116-8.7
			c-4.516-6.865-2.471-16.018-2.381-16.404l0.152-0.656l0.664,0.121c0.389,0.07,9.602,1.827,14.111,8.691
			c4.516,6.876,2.475,16.026,2.385,16.412L293.02,416.435z M277.109,392.216c-0.372,2.215-1.187,9.299,2.313,14.621
			c3.504,5.338,10.325,7.395,12.503,7.931c0.368-2.214,1.18-9.297-2.32-14.627S279.286,392.754,277.109,392.216z"/>
	</g>
	<path fill="#4A806C" d="M307.237,389.54l-0.28-0.615l-0.626,0.254c-0.369,0.15-9.025,3.738-12.053,11.377
		c-3.034,7.642,0.82,16.188,0.987,16.548l0.281,0.613l0.625-0.253c0.367-0.149,9.026-3.731,12.06-11.378
		C311.259,398.448,307.403,389.899,307.237,389.54z"/>
	<path fill="#4A806C" d="M274.299,398.394c-3.384-8.285-12.867-12.099-13.269-12.259l-0.629-0.245l-0.275,0.615
		c-0.176,0.395-4.275,9.746-0.893,18.035c3.39,8.295,12.864,12.106,13.266,12.267l0.628,0.246l0.276-0.615
		C273.578,416.042,277.687,406.687,274.299,398.394z"/>
	<path fill="#AFD03D" d="M284.488,399.246c-0.792-8.913-8.733-15.353-9.07-15.622l-0.528-0.421l-0.444,0.509
		c-0.285,0.325-6.958,8.06-6.164,16.975c0.786,8.927,8.728,15.36,9.065,15.629l0.529,0.421l0.444-0.506
		C278.603,415.904,285.279,408.173,284.488,399.246z"/>
	<path fill="#AFD03D" d="M275.948,415.407c-0.102-0.419-2.589-10.324-10.353-14.809c-2.892-1.67-6.407-2.515-10.449-2.515
		c-4.205,0-7.413,0.925-7.548,0.964l-0.647,0.189l0.16,0.657c0.103,0.42,2.598,10.326,10.347,14.801
		c2.899,1.673,6.42,2.521,10.467,2.521c4.2,0,7.402-0.924,7.536-0.964l0.647-0.188L275.948,415.407z"/>
	<path fill="#AFD085" d="M277.697,415.402l-2.629-29.558c0.26-0.334,0.431-0.538,0.44-0.549l-1.062-0.931
		c-0.285,0.325-6.958,8.058-6.164,16.979c0.786,8.921,8.728,15.353,9.065,15.623l0.882-1.106
		C278.228,415.86,278.012,415.684,277.697,415.402z"/>
	<g>
		<line fill="#FFDC7E" x1="270.799" y1="360.165" x2="268.364" y2="367.176"/>
		<path fill="#FFF7A4" d="M268.364,368.59c-0.153,0-0.311-0.026-0.464-0.08c-0.737-0.255-1.129-1.06-0.872-1.798l2.436-7.011
			c0.255-0.737,1.059-1.128,1.798-0.871c0.737,0.255,1.127,1.06,0.871,1.798l-2.435,7.011
			C269.496,368.223,268.949,368.59,268.364,368.59z"/>
	</g>
	<path fill="#AFD085" d="M307.143,388.976c-0.207-0.193-0.511-0.246-0.766-0.131c-0.395,0.175-9.705,4.379-12.742,12.801
		c-3.042,8.422,1.454,17.604,1.646,17.991c0.12,0.239,0.365,0.39,0.632,0.39c0.014,0,0.028-0.001,0.042-0.001
		c0.281-0.017,0.527-0.198,0.624-0.467l10.748-29.827C307.422,389.464,307.351,389.167,307.143,388.976z"/>
	<path fill="#BAC341" d="M343.633,402.393c-0.084-0.388-0.328-0.724-0.673-0.922c-0.344-0.198-0.758-0.244-1.136-0.124
		c-13.778,4.364-29.899,6.575-47.915,6.576c-30.723,0-56.606-6.532-56.866-6.598c-0.387-0.1-0.792-0.031-1.125,0.186
		c-0.331,0.217-0.556,0.564-0.62,0.957l-12.968,79.604c-0.066,0.408,0.05,0.825,0.319,1.143c0.268,0.314,0.661,0.497,1.077,0.497
		h135.815c0.428,0,0.832-0.193,1.1-0.527c0.27-0.331,0.371-0.768,0.28-1.188L343.633,402.393z"/>
	<path fill="#FFFFFF" d="M291.636,441.969c-19.974,0-36.223-16.252-36.223-36.225c0-0.781,0.632-1.413,1.413-1.413
		s1.414,0.632,1.414,1.413c0,18.416,14.982,33.397,33.396,33.397c18.414,0,33.396-14.981,33.396-33.397
		c0-0.781,0.632-1.413,1.414-1.413c0.781,0,1.413,0.632,1.413,1.413C327.859,425.717,311.609,441.969,291.636,441.969z"/>
	<g>
		<polygon fill="#FFFFFF" points="235.199,445.28 230.849,477.156 305.125,478.423 		"/>
		<path fill="#FFFFFF" d="M305.125,480.543c-0.012,0-0.023,0-0.036,0l-74.276-1.267c-0.607-0.01-1.179-0.28-1.573-0.74
			c-0.395-0.459-0.573-1.066-0.492-1.665l4.351-31.876c0.091-0.671,0.497-1.256,1.09-1.579c0.593-0.323,1.307-0.342,1.918-0.051
			l69.926,33.143c0.901,0.428,1.383,1.426,1.157,2.398C306.965,479.865,306.108,480.543,305.125,480.543z M233.273,475.076
			l62.079,1.061l-58.443-27.7L233.273,475.076z"/>
	</g>
	<g>
		<g>
			<path fill="#F9E63A" d="M425.123,459.119c-0.589,0-1.139-0.372-1.339-0.96c-2.142-6.323-1.197-13.187-1.156-13.477
				c0.014-0.092,0.036-0.184,0.067-0.271l2.472-6.976c2.237-6.283-3.207-15.817-3.26-15.911c-0.392-0.677-0.16-1.54,0.517-1.933
				c0.672-0.392,1.537-0.157,1.931,0.517c0.25,0.436,6.146,10.773,3.477,18.273l-2.421,6.831c-0.113,0.944-0.718,6.816,1.052,12.038
				c0.25,0.739-0.146,1.543-0.885,1.792C425.427,459.095,425.273,459.119,425.123,459.119z"/>
			<path fill="#F9E63A" d="M437.61,466.746c-0.589,0-1.14-0.371-1.338-0.961c-2.137-6.316-1.195-13.183-1.154-13.473
				c0.014-0.093,0.036-0.185,0.066-0.273l2.479-6.977c2.222-6.262-3.213-15.812-3.271-15.907c-0.39-0.677-0.157-1.54,0.519-1.931
				c0.682-0.39,1.54-0.157,1.931,0.516c0.25,0.438,6.146,10.773,3.485,18.268l-2.427,6.835c-0.113,0.946-0.716,6.82,1.049,12.037
				c0.25,0.74-0.146,1.542-0.886,1.792C437.911,466.723,437.76,466.746,437.61,466.746z"/>
			<path fill="#F9E63A" d="M451.147,459.119c-0.591,0-1.141-0.372-1.339-0.96c-2.14-6.323-1.198-13.187-1.157-13.477
				c0.015-0.092,0.036-0.184,0.066-0.272l2.477-6.976c2.225-6.266-3.211-15.816-3.266-15.912c-0.39-0.676-0.157-1.54,0.518-1.931
				c0.681-0.391,1.54-0.157,1.931,0.517c0.251,0.438,6.144,10.773,3.48,18.273l-2.423,6.831c-0.113,0.945-0.717,6.818,1.051,12.038
				c0.25,0.739-0.146,1.543-0.886,1.792C451.449,459.095,451.298,459.119,451.147,459.119z"/>
		</g>
		<g>
			<g>
				<path fill="#64B9EA" d="M420.444,496.175c-11.779,0-13.537-6.219-13.537-9.926c0-6.151,4.527-11.154,10.093-11.154
					c0.782,0,1.413,0.633,1.413,1.413c0,0.779-0.631,1.413-1.413,1.413c-4.008,0-7.267,3.736-7.267,8.328
					c0,4.71,3.604,7.1,10.711,7.1c0.781,0,1.413,0.633,1.413,1.413C421.857,495.541,421.225,496.175,420.444,496.175z"/>
				<path fill="#64B9EA" d="M461.244,471.606c-0.03-0.759-0.654-1.359-1.413-1.359h-42.252c-0.392,0-0.768,0.163-1.032,0.45
					c-0.271,0.287-0.405,0.672-0.378,1.064c0.35,4.888,2.525,29.296,11.161,29.804c2.339,0.14,5.765,0.21,10.179,0.21
					c7.487,0,15.363-0.206,15.442-0.209c0.235-0.005,0.468-0.071,0.672-0.19C453.973,501.174,462.186,496.116,461.244,471.606z"/>
			</g>
			<path fill="#FFFFFF" d="M443.72,498.69c-1.37,0-2.265-0.171-2.301-0.18c-0.764-0.155-1.256-0.902-1.102-1.667
				c0.156-0.763,0.892-1.259,1.667-1.101c0.453,0.088,10.785,1.971,13.448-10.406c0.163-0.765,0.911-1.251,1.682-1.085
				c0.762,0.164,1.247,0.916,1.082,1.678C455.767,497.227,447.721,498.69,443.72,498.69z"/>
		</g>
	</g>
	<path fill="#FF8F54" d="M398.942,480.263c0.381-2.278-5.968-28.778-6.033-29.039c-0.315-1.268-4.362-21.183-4.655-22.625
		l0.33-10.279c0.006-0.204-0.076-0.4-0.225-0.539c-0.149-0.14-0.348-0.204-0.553-0.187l-36.777,3.677
		c-0.337,0.033-0.604,0.304-0.632,0.642c-0.109,1.273-2.673,31.229-2.001,36.261c0.334,2.498-0.408,10.103-1.064,16.812
		c-0.686,7.029-1.279,13.101-0.937,14.982c0.292,1.611,0.063,4.229-0.157,6.761c-0.279,3.168-0.544,6.163,0.107,7.762
		c0.282,0.685,0.668,1.626,14.428,1.626h0.002c15.028,0,37.287-1.178,37.508-1.19c0.378-0.019,0.675-0.337,0.67-0.716
		C398.857,498.089,398.672,481.855,398.942,480.263z"/>
	<path fill="#26C281" d="M356.453,434.42c-0.61,0-1.159-0.393-1.347-0.987l-3.136-9.915c-0.129-0.406-0.067-0.848,0.167-1.204
		c0.233-0.355,0.616-0.586,1.04-0.629l34.559-3.457c0.505-0.057,1.022,0.184,1.313,0.613l5.687,8.417
		c0.276,0.405,0.32,0.923,0.119,1.369c-0.202,0.446-0.617,0.757-1.102,0.822l-37.112,4.959
		C356.577,434.416,356.513,434.42,356.453,434.42z M355.189,424.323l2.253,7.126l33.674-4.5l-3.938-5.825L355.189,424.323z"/>
	<g>
		<polygon fill="#FF8F54" points="353.317,421.746 356.453,431.668 393.565,426.705 387.877,418.296 		"/>
		<path fill="#FF8F54" d="M356.453,432.375c-0.305,0-0.58-0.196-0.674-0.494l-3.135-9.921c-0.066-0.204-0.033-0.425,0.083-0.602
			c0.116-0.179,0.309-0.294,0.522-0.314l34.558-3.45c0.253-0.027,0.51,0.091,0.654,0.307l5.689,8.409
			c0.138,0.202,0.16,0.462,0.061,0.686c-0.101,0.224-0.31,0.378-0.552,0.411l-37.112,4.963
			C356.515,432.372,356.483,432.375,356.453,432.375z M354.253,422.363l2.695,8.526l35.393-4.733l-4.812-7.115L354.253,422.363z"/>
	</g>
	<path fill="#FFFFFF" d="M387.912,446.168c-0.196-0.69-0.872-1.132-1.585-1.013l-25.378,4.062c-0.686,0.111-1.189,0.701-1.189,1.396
		v28.71c0,0.779,0.63,1.412,1.41,1.413h0.207c10.545,0,28.632-0.302,31.305-2.322C395.022,476.642,393.419,465.791,387.912,446.168z
		"/>
	<g>
		<path fill="#26C281" d="M375.283,455.242c-0.322,0-0.615-0.222-0.688-0.551c-0.087-0.381,0.152-0.759,0.533-0.845l9.76-2.205
			c0.387-0.086,0.761,0.154,0.845,0.534c0.087,0.381-0.151,0.759-0.532,0.846l-9.761,2.203
			C375.388,455.237,375.333,455.242,375.283,455.242z"/>
		<path fill="#26C281" d="M378.004,466.871c-0.324,0-0.614-0.222-0.688-0.55c-0.087-0.381,0.151-0.76,0.532-0.845l9.764-2.2
			c0.386-0.086,0.762,0.153,0.846,0.532c0.087,0.382-0.153,0.76-0.534,0.845l-9.763,2.2
			C378.107,466.866,378.054,466.871,378.004,466.871z"/>
		<path fill="#26C281" d="M372.446,462.179c-0.326,0-0.618-0.225-0.69-0.553c-0.085-0.381,0.157-0.76,0.537-0.844l14.106-3.119
			c0.392-0.084,0.758,0.157,0.842,0.537c0.084,0.381-0.157,0.759-0.538,0.843l-14.104,3.119
			C372.546,462.174,372.496,462.179,372.446,462.179z"/>
	</g>
	<g>
		<g>
			<path fill="#FFE3A4" d="M192.111,481.992c0,0,20.683,15.188,38.225,21.434c7.072,2.517,27.961,3.315,37.36-1.382
				c9.399-4.699,12.424-16.992,8.786-21.208c-3.638-4.212-28.251-11.132-37.004-12.546c-8.757-1.42-15.64-11.011-26.466-9.74
				c-10.831,1.273-12.203,2.906-17.511,5.814C185.141,470.029,190.993,476.442,192.111,481.992"/>
			<path fill="#FFE3A4" d="M247.255,506.858L247.255,506.858c-6.982,0-13.807-0.825-17.394-2.101
				c-17.535-6.244-37.736-21-38.586-21.627c-0.285-0.207-0.479-0.515-0.549-0.859c-0.22-1.092-0.657-2.263-1.121-3.499
				c-1.674-4.484-3.97-10.624,5.218-15.648c0.762-0.418,1.443-0.81,2.083-1.178c3.854-2.214,6.398-3.679,15.94-4.801
				c0.707-0.083,1.424-0.124,2.128-0.124c5.838,0,10.463,2.776,14.937,5.463c3.314,1.988,6.447,3.868,9.791,4.411
				c7.947,1.283,33.641,8.144,37.847,13.017c1.72,1.99,2.269,5.313,1.507,9.115c-0.96,4.789-4.281,11.058-10.729,14.281
				C262.151,506.397,252.473,506.858,247.255,506.858z M193.373,481.16c3.032,2.178,21.664,15.319,37.436,20.934
				c3.307,1.176,9.762,1.938,16.445,1.938h0.001c8.455,0,15.674-1.186,19.809-3.252c5.538-2.769,8.394-8.173,9.222-12.309
				c0.571-2.854,0.235-5.426-0.875-6.713c-3.115-3.607-26.761-10.555-36.16-12.073c-3.882-0.629-7.396-2.738-10.794-4.778
				c-4.145-2.488-8.428-5.06-13.482-5.06c-0.594,0-1.201,0.035-1.798,0.105c-8.967,1.054-11.186,2.329-14.86,4.444
				c-0.657,0.376-1.352,0.778-2.136,1.206c-7.04,3.851-5.666,7.524-3.926,12.178C192.666,478.889,193.091,480.028,193.373,481.16z"
				/>
		</g>
		<g>
			<path fill="#FFF7A4" d="M231.843,467.208c0,0-16.577,6.912-20.997,11.627c-4.425,4.711-5.36,9.044-4.944,10.14
				c0.417,1.092,5.846,1.396,9.563,0.149c3.714-1.245,7.435-2.708,9.647-5.065c2.208-2.354,13.42-10.442,15.862-13.445l-8.673-3.396
				"/>
			<path fill="#FFF7A4" d="M209.932,491.346c-2.536,0-4.833-0.511-5.353-1.867c-0.658-1.733,0.549-6.622,5.236-11.611
				c4.574-4.879,20.794-11.676,21.483-11.963c0.262-0.11,0.541-0.136,0.802-0.086c0.233-0.034,0.479-0.01,0.715,0.083l8.673,3.396
				c0.421,0.165,0.736,0.52,0.852,0.956c0.115,0.438,0.015,0.901-0.269,1.252c-1.492,1.834-5.647,5.129-9.668,8.316
				c-2.769,2.194-5.384,4.269-6.26,5.203c-2.418,2.578-6.346,4.138-10.229,5.439C214.358,490.985,212.061,491.346,209.932,491.346z
				 M207.222,488.223c1.155,0.376,4.879,0.536,7.792-0.439c3.533-1.184,7.077-2.571,9.066-4.692
				c1.019-1.086,3.588-3.125,6.568-5.486c2.689-2.132,5.882-4.663,7.824-6.453l-6.401-2.506
				c-2.291,0.974-16.356,7.061-20.196,11.156C208.245,483.668,207.274,487.084,207.222,488.223z"/>
		</g>
		<g>
			<path fill="#FFF7A4" d="M249.682,472.889c0,0-21.168,18.795-22.496,20.514c-1.333,1.718,4.535,1.812,9.56,0.15
				c5.025-1.659,11.193-6.782,12.729-7.409c1.526-0.626,10.953-5.48,12.742-8.711L249.682,472.889z"/>
			<path fill="#FFF7A4" d="M229.795,496.159h-0.001c-2.248,0-3.528-0.472-4.023-1.484c-0.159-0.323-0.446-1.179,0.298-2.14
				c1.369-1.77,20.5-18.77,22.676-20.702c0.389-0.345,0.932-0.45,1.419-0.273l12.536,4.544c0.389,0.141,0.697,0.445,0.842,0.833
				c0.145,0.387,0.113,0.818-0.087,1.181c-2.139,3.864-12.351,8.887-13.441,9.334c-0.366,0.148-1.476,0.91-2.544,1.647
				c-2.674,1.839-6.713,4.618-10.279,5.797C234.794,495.688,232.028,496.159,229.795,496.159z M229.223,493.319
				c0.168,0.008,0.357,0.014,0.571,0.014l0,0c1.921,0,4.414-0.431,6.509-1.122c3.183-1.051,7.022-3.692,9.563-5.44
				c1.597-1.099,2.458-1.683,3.074-1.936c1.769-0.726,8.121-4.149,10.914-6.755l-9.863-3.575
				C242.889,480.815,232.433,490.206,229.223,493.319z"/>
		</g>
		<g>
			<path fill="#FFF7A4" d="M270.1,480.309c0,0-9.026,7.248-11.917,11.334c-2.892,4.085-3.134,5.601-3.152,6.904
				c-0.021,1.305,0.145,4.57,5.632,1.396c5.483-3.174,8.758-4.425,11.425-7.861c2.661-3.437,4.717-9.274,4.502-9.713L270.1,480.309z
				"/>
			<path fill="#FFF7A4" d="M256.953,502.701L256.953,502.701c-1.173,0-1.903-0.491-2.309-0.903
				c-0.951-0.967-1.042-2.332-1.027-3.272c0.026-1.858,0.592-3.716,3.412-7.699c2.971-4.198,11.81-11.319,12.188-11.62
				c0.367-0.296,0.858-0.39,1.311-0.244l6.489,2.059c0.367,0.117,0.671,0.378,0.839,0.725c0.759,1.545-2.479,8.396-4.651,11.201
				c-2.262,2.915-4.902,4.368-8.557,6.381c-0.998,0.549-2.085,1.148-3.278,1.838C259.584,502.199,258.138,502.701,256.953,502.701z
				 M270.401,481.886c-2.024,1.663-8.735,7.282-11.064,10.572c-2.867,4.048-2.883,5.289-2.893,6.108
				c-0.015,0.941,0.16,1.192,0.214,1.248c0.191,0.19,1.026,0.219,3.297-1.097c1.21-0.7,2.317-1.308,3.33-1.868
				c3.483-1.916,5.783-3.183,7.686-5.634c1.875-2.424,3.405-6.117,3.98-7.886L270.401,481.886z"/>
		</g>
		<g>
			<path fill="#FFF7A4" d="M214.85,457.466c0,0-10.163,5.254-13.74,8.721c-3.582,3.468-3.42,8.402-3.423,8.755
				c-0.006,0.352,26.675-9.003,26.703-12.016C224.421,459.913,214.85,457.466,214.85,457.466z"/>
			<path fill="#FFF7A4" d="M197.713,476.364h-0.001c-0.378,0-0.764-0.157-1.031-0.427c-0.265-0.271-0.413-0.641-0.407-1.019
				c-0.011-1.816,0.344-6.35,3.854-9.746c3.682-3.572,13.652-8.745,14.075-8.963c0.309-0.16,0.663-0.2,0.999-0.113
				c3.201,0.818,10.641,3.123,10.603,6.844c-0.011,1.13-0.026,2.84-13.882,8.418C207.031,473.328,198.728,476.364,197.713,476.364z
				 M215.019,458.973c-2.03,1.077-9.97,5.363-12.925,8.229c-1.899,1.839-2.602,4.196-2.855,5.871
				c5.715-1.821,21.765-8.057,23.697-10.327C222.53,461.85,219.096,460.085,215.019,458.973z"/>
		</g>
	</g>
	<path fill="#FF9CA0" d="M355.269,460.654c-2.035-2.537-12.51-3.208-17.768-3.208c-5.725,0-12.924,0.577-14.696,3.329
		c-2.732,4.254-7.478,39.227-4.146,44.479c1.462,2.302,6.362,3.471,14.566,3.471h0.001c8.121,0,19.279-1.32,23.961-3.771
		c1.584-0.827,2.648-2.62,3.251-5.479C362.746,488.517,357.469,463.407,355.269,460.654z"/>
	<path fill="#FF9CA0" d="M345.174,447.642c-0.279-0.266-0.651-0.408-1.041-0.389l-12.549,0.604
		c-0.394,0.019-0.761,0.199-1.015,0.501s-0.369,0.695-0.32,1.084c0.494,3.976,1.024,8.494,1.035,9.032c0,1.77,2.134,1.77,4.396,1.77
		c3.416,0,8.406-0.346,8.618-0.359c0.741-0.053,1.315-0.668,1.315-1.41v-9.809C345.613,448.278,345.454,447.908,345.174,447.642z"/>
	<path fill="#FFFFFF" d="M339.668,451.831c0,0.963-0.779,1.747-1.742,1.747c-0.96,0-1.741-0.784-1.741-1.747
		c0-0.962,0.781-1.745,1.741-1.745C338.889,450.086,339.668,450.869,339.668,451.831z"/>
	<path fill="#FFFFFF" d="M350.544,468.099c-1.782-2.223-10.973-2.285-12.014-2.285c-5.631,0-9.005,0.81-10.029,2.406
		c-1.98,3.081-4.981,26.062-2.717,29.639c0.392,0.62,1.587,2.502,9.951,2.502c5.374,0,12.776-0.886,15.907-2.525
		c1.176-0.612,1.957-1.896,2.382-3.922C355.491,486.947,352.337,470.341,350.544,468.099z"/>
</g>
</svg>
